<svg width="54" height="55" viewBox="0 0 54 55" fill="none" xmlns="http://www.w3.org/2000/svg">
    <path d="M38.9851 45.0417H15.6707C12.4433 45.0417 9.81841 42.4168 9.81841 39.1893V15.875C9.81841 12.6475 12.4433 10.0227 15.6707 10.0227H38.9851C42.2125 10.0227 44.8374 12.6475 44.8374 15.875V39.1893C44.8374 42.4168 42.2125 45.0417 38.9851 45.0417ZM15.6707 11.937C13.5004 11.937 11.7342 13.7032 11.7342 15.8736V39.1879C11.7342 41.3583 13.5004 43.1245 15.6707 43.1245H38.9851C41.1554 43.1245 42.9216 41.3583 42.9216 39.1879V15.875C42.9216 13.7047 41.1554 11.9385 38.9851 11.9385H15.6707V11.937Z" fill="white"/>
    <path d="M27.3248 36.5212C24.9243 36.5212 22.6691 35.5864 20.972 33.8892C19.2748 32.192 18.3399 29.9354 18.3399 27.5364C18.3399 25.1373 19.2748 22.8807 20.972 21.1835C22.6691 19.4864 24.9258 18.5515 27.3248 18.5515C29.7238 18.5515 31.9805 19.4864 33.6776 21.1835C35.3748 22.8807 36.3097 25.1373 36.3097 27.5364C36.3097 29.9354 35.3748 32.192 33.6776 33.8892C31.9805 35.5864 29.7238 36.5212 27.3248 36.5212ZM27.3248 20.4658C23.4271 20.4658 20.2557 23.6372 20.2557 27.5349C20.2557 31.4326 23.4271 34.604 27.3248 34.604C31.2225 34.604 34.3939 31.4326 34.3939 27.5349C34.3939 23.6372 31.2225 20.4658 27.3248 20.4658Z" fill="white"/>
    <path d="M40.1492 15.2853C40.368 14.3583 39.7939 13.4296 38.867 13.2108C37.94 12.992 37.0112 13.5661 36.7925 14.493C36.5737 15.42 37.1478 16.3487 38.0747 16.5675C39.0016 16.7863 39.9304 16.2122 40.1492 15.2853Z" fill="white"/>
    <path d="M26.8422 27.6419L14.8952 18.1545H38.7891L26.8422 27.6419ZM26.8422 30.4892C26.5672 30.4892 26.2922 30.3989 26.0646 30.2179L12.4613 19.4155V36.2089C12.4613 36.5967 12.7768 36.9123 13.1647 36.9123H40.5197C40.9076 36.9123 41.2232 36.5967 41.2232 36.2089V19.4154L27.6198 30.2181C27.3921 30.3989 27.1171 30.4892 26.8422 30.4892ZM53.5199 9.02503V46.0419C53.5199 50.5463 49.8552 54.2111 45.3506 54.2111H8.33385C3.82928 54.2111 0.164536 50.5463 0.164536 46.0418V9.02503C0.164536 4.52046 3.82928 0.855713 8.33385 0.855713H45.3507C49.8552 0.855713 53.5199 4.52046 53.5199 9.02503ZM43.7242 18.8579C43.7242 17.091 42.2867 15.6535 40.5197 15.6535H13.1647C11.3977 15.6535 9.96025 17.091 9.96025 18.8579V36.2089C9.96025 37.9758 11.3977 39.4133 13.1647 39.4133H40.5197C42.2867 39.4133 43.7242 37.9758 43.7242 36.2089V18.8579Z" fill="#C2C2C2"/>
</svg>
