<svg width="54" height="54" viewBox="0 0 54 54" fill="none" xmlns="http://www.w3.org/2000/svg">
    <path d="M42.9978 0.351807H11.6191C5.55202 0.351807 0.633644 5.27018 0.633644 11.3373V42.716C0.633644 48.7831 5.55202 53.7015 11.6191 53.7015H42.9978C49.065 53.7015 53.9833 48.7831 53.9833 42.716V11.3373C53.9833 5.27018 49.065 0.351807 42.9978 0.351807Z" fill="#666666" fill-opacity="0.4"/>
    <path d="M29.9196 30.1976V46.4774H22.4335V30.1976H16.2216V23.5988H22.4335V21.1883C22.4335 12.2682 26.1528 7.58228 34.0374 7.58228C36.4523 7.58228 37.0578 7.96773 38.3853 8.28559V14.8168C36.8981 14.5521 36.4825 14.4184 34.9421 14.4184C33.1097 14.4184 32.1418 14.9304 31.2515 15.9516C30.3612 16.9742 29.9168 18.7461 29.9168 21.2674V23.5988H38.391L36.1143 30.1976H29.9168H29.9196Z" fill="white"/>
</svg>
