<svg width="55" height="54" viewBox="0 0 55 54" fill="none" xmlns="http://www.w3.org/2000/svg">
    <path d="M43.0563 0.298584H11.6776C5.61048 0.298584 0.692108 5.21696 0.692108 11.2841V42.6628C0.692108 48.7299 5.61048 53.6483 11.6776 53.6483H43.0563C49.1234 53.6483 54.0418 48.7299 54.0418 42.6628V11.2841C54.0418 5.21696 49.1234 0.298584 43.0563 0.298584Z" fill="#666666" fill-opacity="0.4"/>
    <path d="M19.1788 21.8604H12.9353V41.7674H19.1788V21.8604Z" fill="white"/>
    <path d="M36.0552 21.4171C35.8194 21.3912 35.5777 21.3725 35.3318 21.3624C31.8368 21.2201 29.8606 23.294 29.1789 24.1786C28.9976 24.4159 28.907 24.5683 28.907 24.5683V21.9047H22.9353V41.8117H29.1789V32.4587C29.1789 31.1082 29.0739 29.6641 29.7498 28.4373C30.3223 27.4003 31.3564 26.8811 32.5272 26.8811C35.9747 26.8811 36.0567 30.0007 36.0567 30.297V41.9024H42.3002V28.9177C42.3002 24.4749 40.0421 21.8471 36.0567 21.4171H36.0552Z" fill="white"/>
    <path d="M19.5693 16.4948C20.0286 14.5489 18.8235 12.5992 16.8776 12.1399C14.9317 11.6806 12.982 12.8858 12.5227 14.8317C12.0634 16.7775 13.2686 18.7273 15.2144 19.1866C17.1603 19.6458 19.1101 18.4407 19.5693 16.4948Z" fill="white"/>
</svg>
