<svg height="83" viewBox="0 0 182 83" fill="none" xmlns="http://www.w3.org/2000/svg">
    <path d="M41.3109 24.3838C43.228 24.1008 44.5299 22.4579 44.2187 20.7142C43.9075 18.9706 42.1011 17.7865 40.1839 18.0696C38.2668 18.3526 36.9649 19.9955 37.2761 21.7392C37.5873 23.4828 39.3937 24.6669 41.3109 24.3838Z" fill="#DF496D"></path>
    <path d="M64.0421 37.6616L57.6907 43.4328C57.3942 43.7025 56.9079 43.7025 56.6114 43.4328L56.5106 43.3411C56.558 42.6669 56.5936 41.9927 56.5936 41.3131V32.5699L61.6581 29.2798C62.0377 29.0317 62.0377 28.5193 61.6581 28.2765L56.5936 24.9864V22.8559C56.5936 16.9929 53.9427 11.2379 49.317 7.06313C44.7981 2.97471 38.8914 0.736328 32.6704 0.736328C32.6111 0.736328 32.5518 0.736328 32.4925 0.736328C26.1708 0.779478 20.2285 3.03944 15.7629 7.10628C11.244 11.2109 8.75917 16.6693 8.75917 22.4891V43.4166L8.73545 43.4382C8.43893 43.7079 7.95264 43.7079 7.65612 43.4382L1.30468 37.667C0.824322 37.2301 0 37.5375 0 38.1578V53.2763C0 61.4801 3.65311 68.9073 9.5657 74.2848C15.5079 79.6893 23.7215 83.0172 32.7891 82.9848C50.8648 82.9255 65.3409 69.2686 65.3409 52.8286V38.1578C65.3409 37.5375 64.5225 37.2301 64.0362 37.667L64.0421 37.6616ZM11.3685 22.4837C11.3685 17.3004 13.5865 12.4353 17.6073 8.77833C21.5866 5.15916 26.8824 3.14192 32.5103 3.10416C32.5637 3.10416 32.6171 3.10416 32.6704 3.10416C38.1976 3.10416 43.4519 5.09983 47.4786 8.73518C51.6121 12.4676 53.9842 17.6078 53.9842 22.8451V41.038L49.5068 36.9712C49.2103 36.7015 48.724 36.7015 48.4275 36.9712L41.3229 43.4328C41.0263 43.7025 40.5401 43.7025 40.2435 43.4328L33.2101 37.0413C32.9136 36.7716 32.4273 36.7716 32.1308 37.0413L25.1033 43.4328C24.8068 43.7025 24.3205 43.7025 24.024 43.4328L16.9194 36.9712C16.6228 36.7015 16.1366 36.7015 15.84 36.9712L11.3626 41.0434V22.4891L11.3685 22.4837Z" fill="#DF496D"></path>
    <path d="M101.451 37.4668H80.5705V8.75131H101.451V16.1353H89.1851V19.8683H99.8919V26.4318H89.1851V30.0828H101.451V37.4668ZM114.223 16.1353V21.8374H118.653C120.13 21.8374 121.197 20.4426 121.197 19.0479C121.197 17.53 120.13 16.1353 118.653 16.1353H114.223ZM119.556 28.6881H114.223V37.4668H105.608V8.75131H119.556C126.243 8.75131 129.811 13.4689 129.811 18.9658C129.811 24.4628 126.202 28.6881 119.556 28.6881ZM141.665 8.75131V37.4668H133.05V8.75131H141.665ZM145.194 23.1091C145.194 15.1097 151.511 8.30006 161.192 8.30006C165.951 8.30006 169.192 10.1871 172.268 12.8945L167.387 18.4736C165.459 16.2994 163.161 15.684 161.192 15.684C156.721 15.684 153.808 18.9658 153.808 23.1091C153.808 27.2523 156.721 30.5341 161.192 30.5341C163.161 30.5341 165.459 29.9187 167.387 27.7446L172.268 33.3236C169.192 36.031 165.951 37.918 161.192 37.918C151.511 37.918 145.194 31.1084 145.194 23.1091ZM98.7843 74.4668L89.1851 60.7654V74.4668H80.5705V45.7513H87.2981L96.8563 59.2066V45.7513H105.471V74.4668H98.7843ZM116.65 74.4668H107.748L118.865 45.7513H126.495L137.9 74.4668H128.752L126.906 69.6672H118.373L116.65 74.4668ZM122.721 54.8582L119.727 62.9396H125.47L122.721 54.8582ZM153.557 74.4668H140.061V45.7513H153.557C161.925 45.7513 168.161 52.1918 168.161 60.1091C168.161 68.0673 161.925 74.4668 153.557 74.4668ZM152.367 53.1353H148.675V67.0828H152.367C156.798 67.0828 159.546 64.3343 159.546 60.1091C159.546 55.8428 156.798 53.0943 152.367 53.1353ZM180.363 45.7513V74.4668H171.749V45.7513H180.363Z" fill="#DF496D"></path>
</svg>