<svg  viewBox="0 0 106 98" fill="none" xmlns="http://www.w3.org/2000/svg">
    <path d="M71.0762 44.4395C76.5608 44.4395 81.0069 39.9934 81.0069 34.5088C81.0069 29.0243 76.5608 24.5781 71.0762 24.5781C65.5916 24.5781 61.1455 29.0243 61.1455 34.5088C61.1455 39.9934 65.5916 44.4395 71.0762 44.4395Z" fill="white"/>
    <path d="M23.5962 72.1187V70.6278C27.9031 70.048 30.8849 67.3561 30.8849 62.3038C30.8849 56.6304 27.1164 54.8911 23.5962 53.6073V44.1653C26.6193 44.331 27.779 45.6976 28.6485 45.6976C29.6011 45.6976 30.1394 44.4553 30.1394 43.7927C30.1394 42.136 26.5366 41.1837 23.5962 41.0594V39.8999C23.5962 38.784 21.4429 38.7309 21.4429 39.8999V41.1422C17.7158 41.4734 13.7816 43.2956 13.7816 48.5136C13.7816 53.8144 17.7572 55.1809 21.4429 56.4647V67.4802C16.7218 67.2733 15.728 64.1672 14.5685 64.1672C13.7816 64.1672 13.0361 65.2438 13.0361 66.0722C13.0361 67.8114 16.2663 70.669 21.4429 70.7518V72.1185C21.4427 73.2841 23.5962 73.2349 23.5962 72.1187ZM23.4305 57.2517C25.7081 58.2041 27.5717 59.4879 27.5717 62.6352C27.5717 65.3685 26.0393 66.9835 23.4305 67.3976V57.2517ZM17.0944 48.1824C17.0944 45.5319 19.1237 44.4553 21.6084 44.2067V52.9033C19.1651 51.9923 17.0944 51.0399 17.0944 48.1824Z" fill="black"/>
    <path d="M62.0882 68.9863C62.9377 68.9863 63.6263 68.2977 63.6263 67.4482C63.6263 66.5988 62.9377 65.9102 62.0882 65.9102H39.2393C38.3898 65.9102 37.7012 66.5988 37.7012 67.4482C37.7012 68.2977 38.3898 68.9863 39.2393 68.9863H62.0882Z" fill="black"/>
    <path d="M68.4765 62.1512V71.2938C68.4765 75.9755 64.6676 79.7845 59.9856 79.7845H29.9917C28.2135 79.7845 26.4847 80.4151 25.1238 81.56L9.89039 94.3768C9.84773 94.4127 9.80692 94.4469 9.71628 94.3866C9.62563 94.3266 9.64122 94.2759 9.65763 94.2224L12.9924 83.449C13.2432 82.6391 13.1327 81.7604 12.6891 81.0383C12.2412 80.3088 11.498 79.8074 10.6506 79.6626C6.5673 78.9641 3.60352 75.4446 3.60352 71.2938V41.1178C3.60352 36.4359 7.41243 32.627 12.0942 32.627H30.0881C30.9376 32.627 31.6262 31.9383 31.6262 31.0889C31.6262 30.2394 30.9376 29.5508 30.0881 29.5508H12.0942C5.71623 29.551 0.527344 34.7399 0.527344 41.1178V71.2938C0.527344 76.9074 4.50894 81.6736 10.0126 82.6734L6.71927 93.3126C6.29271 94.6908 6.81381 96.1524 8.01577 96.9499C8.56333 97.3131 9.18287 97.4928 9.79954 97.4925C10.5366 97.4925 11.27 97.2362 11.8708 96.7305L27.1042 83.9137C27.9114 83.2345 28.9368 82.8606 29.9917 82.8606H59.9856C66.3638 82.8606 71.5527 77.6717 71.5527 71.2938V62.1512C71.5527 60.1177 68.4765 60.115 68.4765 62.1512Z" fill="black"/>
    <path d="M72.4893 33.8693V30.2803C72.4893 29.4308 71.8006 28.7422 70.9512 28.7422C70.1017 28.7422 69.4131 29.4308 69.4131 30.2803V34.5063C69.4131 34.9142 69.5751 35.3053 69.8636 35.5938L72.6601 38.3903C72.9603 38.6907 73.3541 38.8409 73.7476 38.8409C74.1412 38.8409 74.5349 38.6907 74.8352 38.3903C75.4358 37.7896 75.4358 36.8159 74.8352 36.2152L72.4893 33.8693Z" fill="black"/>
    <path d="M93.9607 0.732422H46.069C39.6908 0.732422 34.502 5.92131 34.502 12.2992V46.1695C34.502 52.5477 39.6908 57.7366 46.069 57.7366H76.215C77.1719 57.7366 78.1022 58.0758 78.8341 58.6918L94.1838 71.6064C94.7849 72.1121 95.5178 72.3687 96.2551 72.3687C96.8717 72.3687 97.4913 72.1892 98.0389 71.826C99.2408 71.0285 99.7619 69.5669 99.3354 68.1888L96.1909 58.03C96.1423 57.8729 96.1862 57.7462 96.2315 57.6676C96.2688 57.6031 96.3568 57.4888 96.5268 57.4503C101.826 56.2491 105.527 51.6103 105.527 46.1695V12.2992C105.527 5.9211 100.339 0.732422 93.9607 0.732422ZM102.451 46.1695C102.451 50.1636 99.7355 53.5688 95.847 54.4502C94.8895 54.6674 94.0589 55.2791 93.568 56.129C93.0774 56.9782 92.9624 58.0025 93.2523 58.9395L96.3968 69.0981C96.4134 69.1516 96.429 69.2023 96.3381 69.2626C96.2475 69.3229 96.2069 69.2886 96.164 69.2527L80.8143 56.3381C79.5285 55.2563 77.8951 54.6606 76.2146 54.6606H46.069C41.387 54.6606 37.5781 50.8517 37.5781 46.1697V12.2992C37.5781 7.61751 41.387 3.80859 46.069 3.80859H93.9605C98.6424 3.80859 102.451 7.61751 102.451 12.2992L102.451 46.1695Z" fill="black"/>
    <path d="M86.7833 33.4357C87.6213 33.2963 88.1875 32.504 88.048 31.6661C87.522 28.5048 86.1086 25.558 84.0037 23.1599L86.0497 20.936C86.6248 20.3109 86.5844 19.3378 85.9593 18.7626C85.334 18.1875 84.3613 18.2279 83.7859 18.853L81.7763 21.0373C79.1439 18.9453 75.9546 17.6718 72.6143 17.3717V16.2826H73.9815C75.9119 16.2826 77.4822 14.7121 77.4822 12.7819V10.9577C77.4822 9.02731 75.9117 7.45703 73.9815 7.45703H68.171C66.2406 7.45703 64.6704 9.02752 64.6704 10.9577V12.7819C64.6704 14.7123 66.2408 16.2826 68.171 16.2826H69.5383V17.375C66.0961 17.6816 62.944 19.0058 60.3826 21.0443L58.3665 18.853C57.7912 18.2277 56.8183 18.1873 56.193 18.7626C55.568 19.3378 55.5274 20.3107 56.1026 20.936L58.1544 23.1662C55.4906 26.1971 53.8701 30.1662 53.8701 34.5087C53.8701 43.9962 61.5886 51.7147 71.0762 51.7147C74.9827 51.7147 78.8078 50.3696 81.8471 47.9269C84.84 45.5218 86.9656 42.1489 87.8329 38.4298C88.0257 37.6025 87.5115 36.7754 86.6843 36.5826C85.8566 36.3903 85.0301 36.904 84.8371 37.7313C83.3398 44.1533 77.6809 48.6386 71.0762 48.6386C63.2848 48.6386 56.9463 42.3 56.9463 34.5087C56.9463 26.7176 63.2848 20.379 71.0762 20.379C78.0154 20.379 83.8769 25.3382 85.0137 32.171C85.1531 33.0087 85.9452 33.5756 86.7833 33.4357ZM67.7461 12.7821V10.9579C67.7461 10.7237 67.9366 10.5334 68.1706 10.5334H73.9811C74.2153 10.5334 74.4056 10.7239 74.4056 10.9579V12.7821C74.4056 13.0163 74.2151 13.2066 73.9811 13.2066H68.1706C67.9366 13.2066 67.7461 13.0161 67.7461 12.7821Z" fill="black"/>
    <path d="M71.0762 23.0391C64.7524 23.0391 59.6074 28.1839 59.6074 34.5076C59.6074 40.8314 64.7522 45.9764 71.0762 45.9764C77.4002 45.9764 82.5448 40.8316 82.5448 34.5076C82.5448 28.1837 77.4 23.0391 71.0762 23.0391ZM71.0762 42.9003C66.4486 42.9003 62.6836 39.1354 62.6836 34.5076C62.6836 29.8799 66.4484 26.1152 71.0762 26.1152C75.704 26.1152 79.4686 29.8801 79.4686 34.5076C79.4686 39.1352 75.7038 42.9003 71.0762 42.9003Z" fill="black"/>
</svg>
