<svg viewBox="0 0 106 106" fill="none" xmlns="http://www.w3.org/2000/svg">
    <g clip-path="url(#clip0_33_2372)">
        <path d="M58.1487 3.28906H55.984L47.8146 5.42442L44.0888 7.78292L43.59 9.79974L38.5515 12.0897L25.9044 26.309L23.751 35.6404V49.6889L32.0307 71.8883L41.2176 78.7771L43.59 79.7888L44.5332 82.5712L56.9893 86.5544C58.2309 86.298 59.4531 85.9886 60.6528 85.6272L61.3919 72.4537L80.8069 57.6874L85.3871 59.2174H88.4767C90.0958 54.7125 90.9802 49.8568 90.9802 44.7945C90.9802 24.6203 76.9697 7.72037 58.1487 3.28906Z" fill="white"/>
        <path d="M25.317 44.7933C25.317 24.6194 39.3273 7.71942 58.1485 3.28811C54.999 2.54652 51.7154 2.15234 48.3392 2.15234C24.7891 2.15234 5.69824 21.2432 5.69824 44.7933C5.69824 68.3434 24.7891 87.4343 48.3392 87.4343C51.7137 87.4343 54.9953 87.0391 58.1434 86.2973C39.3248 81.8639 25.317 64.9652 25.317 44.7933Z" fill="white"/>
        <path d="M83.4753 41.2344C81.8075 24.5737 68.5599 11.326 51.8991 9.6582L49.8774 10.6199L44.7793 9.6582C44.3806 9.69819 43.9846 9.7468 43.59 9.79971L38.5515 12.0897L25.9044 26.309L23.751 35.6404V49.6888L32.0307 71.8882L41.2176 78.7771L43.59 79.7888C43.9846 79.8419 44.3806 79.8905 44.7793 79.9303L48.8644 78.8681L51.8977 79.9299C54.3134 79.6879 56.6575 79.2035 58.9051 78.4996L60.5031 76.4871V66.3011L79.5431 57.6191L81.7665 56.2085C82.6211 53.7048 83.2019 51.0744 83.4744 48.3533L80.8577 44.7944L83.4753 41.2344Z" fill="white"/>
        <path d="M43.59 79.7877C32.5442 72.0826 25.3172 59.2824 25.3172 44.7934C25.3172 30.3042 32.5442 17.5042 43.59 9.79907C27.4917 11.9631 14.8311 24.9714 13.2031 41.2335L14.4099 44.7934L13.2031 48.3533C14.8311 64.6152 27.4919 77.6235 43.59 79.7877Z" fill="white"/>
        <path d="M48.3392 9.47852C47.1376 9.47852 45.9501 9.53902 44.7793 9.65633V16.1096C44.7793 16.9869 45.4905 17.6982 46.3679 17.6982H50.3103C51.1876 17.6982 51.8989 16.9869 51.8989 16.1096V9.65633C50.7284 9.53902 49.5408 9.47852 48.3392 9.47852Z" fill="white"/>
        <path d="M48.3392 80.1064C47.1376 80.1064 45.9501 80.0459 44.7793 79.9286V73.4753C44.7793 72.598 45.4905 71.8867 46.3679 71.8867H50.3103C51.1876 71.8867 51.8989 72.598 51.8989 73.4753V79.9286C50.7284 80.0459 49.5408 80.1064 48.3392 80.1064Z" fill="white"/>
        <path d="M13.0254 44.7921C13.0254 45.9937 13.0859 47.1812 13.2032 48.352H19.6565C20.5338 48.352 21.2451 47.6408 21.2451 46.7634V42.821C21.2451 41.9437 20.5338 41.2324 19.6565 41.2324H13.2032C13.0861 42.4029 13.0254 43.5903 13.0254 44.7921Z" fill="white"/>
        <path d="M83.6533 44.7921C83.6533 45.9937 83.5926 47.1812 83.4754 48.352H77.0222C76.1448 48.352 75.4336 47.6408 75.4336 46.7634V42.821C75.4336 41.9437 76.1448 41.2324 77.0222 41.2324H83.4754C83.5926 42.4029 83.6533 43.5903 83.6533 44.7921Z" fill="white"/>
        <path d="M43.086 41.5176H31.1756C29.3668 41.5176 27.9004 42.9839 27.9004 44.7928C27.9004 46.6017 29.3668 48.068 31.1756 48.068H43.086L43.8225 46.2009V42.1673L43.086 41.5176Z" fill="white"/>
        <path d="M98.1376 63.5482L81.0785 55.8989C80.1017 55.4608 78.9844 55.4608 78.0076 55.8989L69.1464 59.8722L67.4077 63.8388C67.4077 63.8388 66.3822 68.2139 66.4505 68.7609C66.5188 69.3078 68.3544 81.8741 68.3544 81.8741C68.3544 81.8741 76.2262 92.1407 76.2947 92.3458C76.363 92.5509 84.7032 100.043 84.7032 100.043H87.1831C95.2549 94.0482 100.355 85.233 100.355 75.4036V66.9725C100.355 65.4938 99.4869 64.153 98.1376 63.5482Z" fill="white"/>
        <path d="M69.4819 70.2117V60.6516C69.4819 60.3154 69.5232 59.9861 69.5988 59.668L60.9479 63.547C59.5986 64.152 58.7305 65.4928 58.7305 66.9715V75.4026C58.7305 87.48 66.4296 98.0269 77.8806 103.69C78.9272 104.208 80.1579 104.208 81.2045 103.69C83.3357 102.636 85.3365 101.412 87.1825 100.042C76.445 93.2874 69.4819 82.4418 69.4819 70.2117Z" fill="white"/>
        <path d="M89.9161 83.1677C92.2828 77.458 89.5727 70.9108 83.863 68.5441C78.1533 66.1774 71.6061 68.8875 69.2394 74.5972C66.8727 80.3069 69.5827 86.8541 75.2925 89.2208C81.0022 91.5875 87.5494 88.8775 89.9161 83.1677Z" fill="white"/>
        <path d="M51.4346 39.4316H49.0281C49.0281 39.4316 46.0031 43.6369 46.0544 43.9446C46.1056 44.2522 47.5412 48.0941 47.6438 48.3521C47.7463 48.6101 50.2586 50.1484 50.2586 50.1484L51.4348 50.1529C53.2847 49.0824 54.5304 47.0834 54.5304 44.7924C54.5302 42.5012 53.2847 40.5022 51.4346 39.4316Z" fill="black"/>
        <path d="M48.3394 44.7925C48.3394 42.5013 49.5849 40.5025 51.435 39.432C50.5242 38.9049 49.4676 38.6016 48.3394 38.6016C44.9202 38.6016 42.1484 41.3733 42.1484 44.7925C42.1484 48.2117 44.9202 50.9835 48.3394 50.9835C49.4674 50.9835 50.524 50.6803 51.435 50.1531C49.5849 49.0825 48.3394 47.0835 48.3394 44.7925Z" fill="black"/>
        <path d="M49.8785 37.2178V23.3506C49.8785 22.5012 49.19 21.8125 48.3404 21.8125C47.4907 21.8125 46.8022 22.5012 46.8022 23.3506V37.2178C44.9923 37.5847 43.4115 38.5867 42.2995 39.9793H31.1767C28.5226 39.9793 26.3633 42.1386 26.3633 44.7929C26.3633 47.4471 28.5224 49.6062 31.1767 49.6062H42.2993C43.7167 51.3815 45.8972 52.522 48.3401 52.522C52.6018 52.522 56.0692 49.0548 56.0692 44.7929C56.0692 41.0574 53.4058 37.9329 49.8785 37.2178ZM40.8083 46.5299H31.1767C30.2189 46.5299 29.4396 45.7506 29.4396 44.7927C29.4396 43.8349 30.2189 43.0556 31.1767 43.0556H40.8083C40.6865 43.5826 40.6111 44.2069 40.6111 44.7929C40.6111 45.3892 40.6904 46.0217 40.8083 46.5299ZM48.3404 49.4457C45.7647 49.4457 43.6874 47.345 43.6874 44.7929C43.6874 42.2381 45.7661 40.1399 48.3404 40.1399C50.906 40.1399 52.9932 42.2272 52.9932 44.7929C52.9932 47.3585 50.906 49.4457 48.3404 49.4457Z" fill="black"/>
        <path d="M83.2068 75.675L78.943 79.9389L76.3698 77.3659C75.7693 76.7654 74.7953 76.7652 74.1946 77.3661C73.5939 77.9668 73.5939 78.9408 74.1948 79.5413L77.8556 83.2019C78.4561 83.8024 79.4299 83.8024 80.0308 83.2019L85.3823 77.8503C85.983 77.2494 85.983 76.2757 85.3823 75.675C84.7812 75.0745 83.8075 75.0745 83.2068 75.675Z" fill="black"/>
        <path d="M79.5794 13.553C71.2353 5.20866 60.1409 0.613281 48.3403 0.613281C36.5396 0.613281 25.4452 5.20866 17.1011 13.553C8.75651 21.8974 4.16113 32.9917 4.16113 44.7924C4.16113 55.9444 8.32808 66.5927 15.8945 74.7752C23.4179 82.9112 33.6206 87.8971 44.6235 88.8142C45.4672 88.8897 46.2137 88.2562 46.2841 87.4092C46.3548 86.5626 45.7256 85.8191 44.879 85.7486C23.7715 83.989 7.23743 65.9988 7.23743 44.7922C7.23743 22.1283 25.6759 3.68958 48.3403 3.68958C71.0046 3.68958 89.4431 22.1283 89.4431 44.7924C89.4431 49.003 88.8104 53.1417 87.561 57.1185L83.6506 55.365C84.6424 52.0496 85.1923 48.4961 85.1923 44.7922C85.1923 25.7296 70.6426 10.0009 52.0661 8.12745C52.0618 8.12704 52.0577 8.12601 52.0533 8.1256C51.9036 8.11063 51.7533 8.09935 51.6032 8.08622C51.4494 8.07269 51.296 8.05751 51.1417 8.04582C51.0679 8.04029 50.9939 8.0368 50.92 8.03167C50.0675 7.9724 49.2078 7.94 48.3405 7.94C47.4736 7.94 46.6143 7.9724 45.7621 8.03167C45.6877 8.0368 45.6132 8.04029 45.539 8.04582C45.3866 8.05731 45.2353 8.07228 45.0833 8.08561C44.9313 8.09894 44.7789 8.11022 44.6272 8.1254C44.6229 8.12581 44.6186 8.12683 44.6142 8.12724C26.048 9.99989 11.4883 25.7192 11.4883 44.792C11.4883 65.1185 28.0279 81.6438 48.3403 81.6438C51.425 81.6438 54.5589 81.2584 57.6342 80.459C57.8669 81.8007 58.1879 83.1553 58.653 84.5872C56.4135 85.1653 54.1155 85.5552 51.8011 85.7488C50.9545 85.8196 50.3257 86.5632 50.3965 87.4098C50.4635 88.2127 51.1358 88.8198 51.9274 88.8198C51.9705 88.8198 52.014 88.8179 52.0575 88.8144C54.6602 88.5968 57.2433 88.1457 59.7566 87.4756C63.174 95.2585 69.6112 101.316 77.2002 105.069C78.6678 105.795 80.4201 105.795 81.8877 105.069C93.7524 99.201 101.894 88.177 101.894 75.4026V66.9717C101.894 64.8905 100.667 62.9953 98.7682 62.1435L90.3834 58.3841C91.7995 54.0033 92.5192 49.4384 92.5192 44.7924C92.5194 32.9917 87.924 21.8974 79.5794 13.553ZM82.1158 44.7924C82.1158 45.4114 82.0965 46.0592 82.0518 46.8139H77.0228C76.9947 46.8139 76.9722 46.7914 76.9722 46.7635V42.8209C76.9722 42.793 76.9947 42.7705 77.0228 42.7705H82.0536C82.0965 43.4868 82.1158 44.1802 82.1158 44.7924ZM46.3183 11.0788C46.3575 11.0766 46.3965 11.0735 46.4358 11.0715C46.6661 11.0585 46.8965 11.0489 47.1268 11.0409C47.2123 11.0378 47.2976 11.0335 47.3833 11.0311C48.0213 11.0132 48.6592 11.0132 49.2972 11.0311C49.3825 11.0335 49.4672 11.0378 49.5523 11.0407C49.7832 11.0489 50.0142 11.0585 50.2451 11.0715C50.2841 11.0737 50.3228 11.0766 50.3618 11.0788V16.1096C50.3618 16.1375 50.3392 16.1601 50.3113 16.1601H46.3688C46.3409 16.1601 46.3183 16.1375 46.3183 16.1096V11.0788ZM14.5644 44.7924C14.5644 44.2118 14.5851 43.4651 14.6265 42.7707H19.6575C19.6854 42.7707 19.7079 42.7932 19.7079 42.8211V46.7637C19.7079 46.7916 19.6854 46.8141 19.6575 46.8141H14.6267C14.5836 46.0982 14.5644 45.3958 14.5644 44.7924ZM50.3618 78.5051C49.6056 78.5499 49.1282 78.562 48.5131 78.565C47.699 78.5691 47.0667 78.5499 46.3183 78.5056V73.4746C46.3183 73.4467 46.3409 73.4241 46.3688 73.4241H50.3113C50.3392 73.4241 50.3618 73.4467 50.3618 73.4746V78.5051ZM57.1938 66.9717V75.4026C57.1938 75.9692 57.2154 76.6899 57.2619 77.3766C56.0047 77.7201 54.7279 77.9853 53.4381 78.1805V73.4748C53.4381 71.7508 52.0353 70.348 50.3113 70.348H46.3688C44.6448 70.348 43.242 71.7508 43.242 73.4748V78.1834C28.6913 75.9711 17.1612 64.4409 14.9487 49.8902H19.6573C21.3812 49.8902 22.784 48.4874 22.784 46.7635V42.8209C22.784 41.097 21.3812 39.6942 19.6573 39.6942H14.9489C17.1614 25.1435 28.6915 13.6133 43.2422 11.401V16.1096C43.2422 17.8338 44.645 19.2364 46.369 19.2364H50.3116C52.0355 19.2364 53.4383 17.8338 53.4383 16.1096V11.401C67.989 13.6133 79.5192 25.1435 81.7316 39.6944H77.0228C75.2987 39.6944 73.8959 41.0972 73.8959 42.8211V46.7637C73.8959 48.4877 75.2987 49.8904 77.0228 49.8904H81.7292C81.5095 51.34 81.2 52.7729 80.7931 54.1813C79.6762 53.9097 78.456 54.0121 77.3793 54.4946L60.3202 62.1438C58.4209 62.9953 57.1938 64.8905 57.1938 66.9717ZM97.5095 64.9508C98.3045 65.3072 98.818 66.1005 98.818 66.9717V75.4026C98.818 86.4201 91.8081 96.731 80.5243 102.311C79.9107 102.615 79.1775 102.615 78.5641 102.311C67.5261 96.8526 60.2701 86.6516 60.2701 75.4026V66.9717C60.2701 66.1005 60.7839 65.3072 61.5788 64.9508L78.6381 57.3017C79.2031 57.048 79.8651 57.0391 80.4504 57.3017C84.6309 59.1761 95.2973 63.9588 97.5095 64.9508Z" fill="black"/>
        <path d="M66.8174 78.8675C66.8174 85.8851 72.5266 91.5945 79.5442 91.5945C85.0034 91.5945 89.8474 88.1206 91.598 82.9499C91.8706 82.1452 91.439 81.2721 90.6345 80.9998C89.8291 80.7268 88.9565 81.1585 88.6843 81.9633C87.3568 85.8839 83.6837 88.5182 79.5442 88.5182C74.2231 88.5182 69.8937 84.1891 69.8937 78.8675C69.8937 73.5463 74.2229 69.2169 79.5442 69.2169C83.6839 69.2169 87.357 71.8511 88.6843 75.7717C88.9567 76.5765 89.8303 77.008 90.6345 76.7352C91.439 76.4628 91.8706 75.5898 91.598 74.785C89.8474 69.6146 85.0034 66.1406 79.5442 66.1406C72.5264 66.1406 66.8174 71.8498 66.8174 78.8675Z" fill="black"/>
    </g>
    <defs>
        <clipPath id="clip0_33_2372">
            <rect width="105" height="105" fill="white" transform="translate(0.527344 0.613281)"/>
        </clipPath>
    </defs>
</svg>
