<svg style="width: 100%" width="152" height="144" viewBox="0 0 152 144" fill="none"
     xmlns="http://www.w3.org/2000/svg">
    <path d="M65.7286 86.3873C65.7286 87.3545 64.942 88.1412 63.9747 88.1412C63.0075 88.1412 62.2208 87.3545 62.2208 86.3873C62.2208 85.42 63.0075 84.6334 63.9747 84.6334C64.942 84.6334 65.7286 85.42 65.7286 86.3873ZM77.0532 51.9223C77.0532 44.7106 71.1864 38.8438 63.9747 38.8438C56.7631 38.8438 50.8962 44.7106 50.8962 51.9223C50.8962 52.8895 51.6829 53.6762 52.6501 53.6762C53.6174 53.6762 54.404 52.8895 54.404 51.9223C54.404 46.6449 58.6976 42.3513 63.975 42.3513C69.2521 42.3513 73.5457 46.6449 73.5457 51.9223C73.5457 56.7254 70.111 60.7108 65.379 61.3982C63.5786 61.6597 62.2214 63.2196 62.2214 65.0268V73.0817C62.2214 74.0489 63.0081 74.8356 63.9753 74.8356C64.9426 74.8356 65.7292 74.0486 65.7292 73.0817V66.8027C65.7292 65.7383 66.4392 64.8045 67.4651 64.5203C73.1102 62.9552 77.0532 57.7746 77.0532 51.9223ZM98.1206 70.4182C93.7968 70.4182 89.4194 73.2753 89.4194 78.7363C89.4194 78.7907 89.4212 78.8449 89.425 78.8991L91.8288 113.801C91.8756 117.208 94.5648 119.766 98.1206 119.766C101.676 119.766 104.365 117.208 104.412 113.801L106.816 78.8991C106.82 78.8449 106.822 78.7907 106.822 78.7363C106.822 73.2753 102.445 70.4182 98.1206 70.4182ZM98.1206 121.307C94.0304 121.307 90.7029 124.635 90.7029 128.725C90.7029 132.815 94.0304 136.143 98.1206 136.143C102.211 136.143 105.539 132.815 105.539 128.725C105.539 124.635 102.211 121.307 98.1206 121.307ZM150.596 140.302C149.321 142.551 147.012 143.894 144.418 143.894H51.8232C49.2294 143.894 46.92 142.551 45.6455 140.302C44.3709 138.052 44.4058 135.381 45.739 133.156L51.4137 123.686V116.251C45.797 114.921 40.4776 112.716 35.5543 109.677L29.6675 115.564C29.2234 116.008 28.6209 116.258 27.9927 116.258C27.3644 116.258 26.7619 116.008 26.3178 115.564L11.9035 101.149C10.9785 100.224 10.9785 98.7247 11.9035 97.7998L17.7899 91.9134C14.7519 86.9918 12.5468 81.6718 11.2163 76.0536H2.89589C1.58786 76.0536 0.527344 74.9931 0.527344 73.6851V53.3002C0.527344 51.9921 1.58786 50.9316 2.89589 50.9316H11.216C12.5459 45.3152 14.7507 39.9961 17.7902 35.0721L11.9032 29.1848C11.4591 28.7407 11.2095 28.1382 11.2095 27.51C11.2095 26.8817 11.4591 26.2792 11.9032 25.8351L26.3178 11.4207C27.2427 10.4958 28.7423 10.4955 29.6673 11.4207L35.5543 17.3075C40.4755 14.2698 45.7956 12.0647 51.4137 10.7342V2.41347C51.4137 1.10544 52.4743 0.0449219 53.7823 0.0449219H74.1675C75.4755 0.0449219 76.536 1.10544 76.536 2.41347V10.7345C82.1521 12.0644 87.4713 14.2692 92.3949 17.3084L98.2822 11.421C98.7263 10.9769 99.3288 10.7274 99.9571 10.7274C100.585 10.7274 101.188 10.9769 101.632 11.421L116.046 25.8357C116.971 26.7606 116.971 28.2602 116.046 29.1851L110.159 35.0721C113.197 39.9934 115.402 45.3122 116.733 50.931H125.054C126.362 50.931 127.422 51.9915 127.422 53.2996V73.6844C127.422 74.9925 126.362 76.053 125.054 76.053H116.732C116.691 76.2292 116.643 76.4033 116.6 76.5788L150.503 133.155C151.835 135.381 151.87 138.052 150.596 140.302ZM54.2453 112.021C55.3532 112.241 56.1508 113.214 56.1508 114.343V115.781L64.3587 102.083C64.2305 102.084 64.1023 102.09 63.9744 102.09C42.6922 102.09 25.3775 84.7752 25.3775 63.4926C25.3775 42.21 42.6919 24.896 63.9744 24.896C80.8648 24.896 95.8462 35.9855 100.832 52.0114C101.802 52.5067 102.631 53.2688 103.216 54.2464L113.637 71.6366C113.989 71.4326 114.396 71.3165 114.825 71.3165H122.685V55.6687H114.825C113.696 55.6687 112.724 54.8711 112.503 53.7635C111.236 47.4143 108.768 41.4583 105.165 36.0616C104.538 35.1222 104.662 33.8707 105.461 33.0719L111.022 27.5109L99.9571 16.4456L94.3954 22.0067C93.5972 22.8055 92.3454 22.9292 91.406 22.3021C86.0057 18.6987 80.05 16.2298 73.7041 14.965C72.5962 14.7441 71.7986 13.7718 71.7986 12.642V4.78201H56.1505V12.642C56.1505 13.7715 55.3529 14.7438 54.245 14.9647C47.8959 16.231 41.9399 18.6993 36.5425 22.3015C35.6034 22.9289 34.3519 22.8052 33.5528 22.0064L27.9924 16.4456L16.9274 27.5103L22.4885 33.0713C23.2873 33.8698 23.4107 35.1213 22.784 36.0607C19.1802 41.4613 16.7116 47.417 15.4465 53.7632C15.2256 54.8711 14.2534 55.6687 13.1236 55.6687H5.26443V71.3165H13.1236C14.2531 71.3165 15.2256 72.1141 15.4465 73.222C16.7125 79.5715 19.1811 85.5275 22.7837 90.9245C23.4107 91.8639 23.2873 93.1154 22.4885 93.9142L16.928 99.4746L27.9927 110.54L33.5534 104.979C34.3519 104.18 35.604 104.057 36.5428 104.683C41.9428 108.287 47.8988 110.756 54.2453 112.021ZM70.4657 73.082V68.5065C77.2158 65.86 81.7903 59.2813 81.7903 51.9223C81.7903 42.0987 73.7983 34.1067 63.9747 34.1067C54.1512 34.1067 46.1591 42.0987 46.1591 51.9223C46.1591 55.5014 49.071 58.4133 52.6501 58.4133C56.2293 58.4133 59.1411 55.5014 59.1411 51.9223C59.1411 49.2571 61.3095 47.0884 63.975 47.0884C66.6402 47.0884 68.8086 49.2568 68.8086 51.9223C68.8086 54.3506 67.0796 56.3642 64.6977 56.7103C60.5853 57.3077 57.484 60.8831 57.484 65.0268V73.0817C57.484 76.6608 60.3959 79.5727 63.975 79.5727C67.5542 79.5727 70.4657 76.6608 70.4657 73.082ZM63.975 79.8963C60.3959 79.8963 57.484 82.8081 57.484 86.3873C57.484 89.9664 60.3959 92.8783 63.975 92.8783C67.5542 92.8783 70.466 89.9664 70.466 86.3873C70.466 82.8081 67.5539 79.8963 63.975 79.8963ZM146.439 135.591L99.1529 56.681C98.8388 56.1566 98.3263 56.1001 98.1206 56.1001C97.9148 56.1001 97.4023 56.1566 97.0882 56.681L49.8022 135.591C49.1613 136.66 49.5639 137.608 49.7667 137.966C49.9698 138.324 50.5762 139.157 51.8229 139.157H144.418C145.665 139.157 146.271 138.324 146.474 137.966C146.677 137.608 147.08 136.66 146.439 135.591Z"
          fill="black"/>
</svg>