<svg style="width: 100%;" xmlns="http://www.w3.org/2000/svg" width="151" height="139"
     viewBox="0 0 151 139" fill="none">
    <path d="M143.129 25.6197C137.358 22.0618 129.754 21.5339 122.603 24.0465V3.77677C122.603 2.47736 121.549 1.42383 120.25 1.42383H96.4275C95.611 1.42383 94.853 1.84706 94.4245 2.54206C93.996 3.23706 93.9586 4.10442 94.3254 4.83383C97.6019 11.35 97.6316 18.9462 94.4013 24.1859C92.3489 27.515 89.2904 29.3486 85.7892 29.3486C82.288 29.3486 79.2295 27.515 77.1771 24.1859C73.9468 18.9462 73.9768 11.3497 77.253 4.83383C77.6198 4.10442 77.5821 3.23706 77.1539 2.54206C76.7254 1.84706 75.9674 1.42383 75.151 1.42383H51.3283C50.0289 1.42383 48.9753 2.47736 48.9753 3.77677V9.43942C43.9024 3.65706 36.463 0 28.1847 0C12.9344 0 0.527344 12.4071 0.527344 27.6574C0.527344 42.9077 12.9344 55.3145 28.1844 55.3145C36.4627 55.3145 43.9024 51.6574 48.975 45.8751V52.9189C40.1544 58.7074 35.6565 63.1613 32.0165 66.7666L31.6089 67.1701C28.7809 69.9689 28.3159 74.2563 30.4783 77.5963C38.4618 89.9278 42.9203 103.93 44.0818 120.327H41.2324C39.435 120.327 37.9727 121.789 37.9727 123.587V135.685C37.9727 137.483 39.435 138.945 41.2324 138.945H123.944C125.741 138.945 127.203 137.483 127.203 135.685V123.587C127.203 121.789 125.741 120.327 123.944 120.327H121.48C120.877 103.53 115.801 93.1186 112.389 86.1298C111.055 83.396 109.988 81.2116 109.525 79.3927V75.536L114.683 80.6948C116.929 82.9407 119.879 84.0636 122.829 84.0636C125.779 84.0636 128.729 82.9407 130.975 80.6948C133.144 78.526 134.338 75.6333 134.338 72.5489C134.338 69.4645 133.144 66.5718 130.975 64.403L122.603 56.0304V52.4289C129.753 54.9412 137.358 54.413 143.128 50.8559C147.831 47.9568 150.528 43.3574 150.528 38.2374C150.528 33.1174 147.831 28.5183 143.129 25.6197ZM41.7309 21.1968L25.6483 37.4303C25.1885 37.8945 24.5827 38.1274 23.9765 38.1274C23.3841 38.1274 22.7915 37.905 22.3344 37.4595L14.6665 29.9847C13.7359 29.0777 13.7168 27.588 14.6238 26.6574C15.5312 25.7265 17.0209 25.7077 17.9512 26.6147L23.948 32.4603L38.388 17.8847C39.3027 16.9615 40.7927 16.9547 41.7153 17.8691C42.6386 18.7838 42.6456 20.2736 41.7309 21.1968ZM116.772 120.327H48.7995C47.6195 102.976 42.9103 88.1395 34.4286 75.0386C33.4906 73.5895 33.6921 71.7292 34.9189 70.5151L35.3283 70.1098C38.4409 67.0268 42.2094 63.296 48.975 58.5962V70.0689C48.975 72.8163 51.2103 75.0513 53.9577 75.0513H82.7095V83.2448C82.7095 84.5442 83.763 85.5977 85.0624 85.5977C86.3619 85.5977 87.4154 84.5442 87.4154 83.2448V55.0139C87.4154 50.2157 91.3189 46.3121 96.1169 46.3121C100.915 46.3121 104.819 50.2157 104.819 55.0139V79.6719C104.819 79.8483 104.838 80.0242 104.878 80.1963C105.425 82.5919 106.693 85.1878 108.16 88.1936C111.575 95.1878 116.188 104.649 116.772 120.327ZM140.659 46.8498C135.419 50.0798 127.823 50.0501 121.307 46.7739C120.577 46.4071 119.71 46.4451 119.015 46.873C118.32 47.3015 117.897 48.0595 117.897 48.8759V70.3457H109.525V55.0145C109.525 47.6215 103.51 41.6068 96.1172 41.6068C88.7242 41.6068 82.7098 47.6215 82.7098 55.0145V70.3457H53.958C53.8106 70.3457 53.6812 70.2166 53.6812 70.0692V38.3721C55.0721 35.075 55.8415 31.4545 55.8415 27.6574C55.8415 23.8603 55.0718 20.2397 53.6812 16.9427V6.12971H71.598C69.0851 13.2809 69.6133 20.8847 73.1712 26.6553C76.0701 31.3574 80.6689 34.0545 85.7889 34.0545C90.9089 34.0545 95.508 31.3577 98.4069 26.6556C101.965 20.8847 102.493 13.2809 99.9801 6.12971H117.897V27.5994C117.897 28.4159 118.32 29.1739 119.015 29.6024C119.71 30.0306 120.577 30.0683 121.307 29.7015C127.823 26.4247 135.419 26.395 140.659 29.6256C143.988 31.678 145.822 34.7362 145.822 38.2374C145.822 41.7389 143.988 44.7971 140.659 46.8498Z"
          fill="black"/>
</svg>