<svg width="106" height="106" viewBox="0 0 106 106" fill="none" xmlns="http://www.w3.org/2000/svg">
    <path d="M84.0991 28.7419C85.7859 30.9306 87.2533 33.2759 88.4819 35.751C88.7786 36.3486 89.057 36.955 89.3243 37.5662C89.3364 37.5938 89.551 38.1019 89.4051 37.753C89.4697 37.9074 89.5323 38.0626 89.5951 38.2179C89.7416 38.5808 89.8807 38.9465 90.0167 39.3134C90.5063 40.633 90.9197 41.9801 91.2712 43.3428C92.0371 46.3109 92.3473 48.5711 92.467 51.5709C92.5188 52.8685 92.503 54.1686 92.4342 55.465C92.404 56.0342 92.3593 56.6024 92.3058 57.1698C92.2793 57.4518 92.2483 57.7333 92.216 58.0147C92.1999 58.155 92.1824 58.2951 92.1648 58.4353C92.138 58.6412 92.1409 58.6218 92.1734 58.3776C92.1607 58.4705 92.1476 58.5635 92.1342 58.6564C91.8073 60.9487 91.2759 63.2106 90.5689 65.415C90.2207 66.5008 89.822 67.5701 89.3848 68.623C89.5631 68.1935 89.3843 68.6224 89.3526 68.6959C89.2989 68.8209 89.2437 68.9453 89.1886 69.0697C89.0786 69.3184 88.9648 69.5653 88.8499 69.8116C88.6015 70.3442 88.3391 70.8702 88.0681 71.3917C87.0315 73.3866 85.8226 75.2906 84.4769 77.0909C84.3964 77.1985 84.3148 77.3054 84.2332 77.4123C84.5115 77.0475 84.233 77.4118 84.1843 77.4739C84.0186 77.6855 83.8498 77.8947 83.68 78.1029C83.3124 78.5539 82.9331 78.9953 82.547 79.4306C81.8046 80.2671 81.0246 81.07 80.2174 81.8441C79.4098 82.6184 78.5675 83.3562 77.7005 84.0631C77.4922 84.2329 77.2814 84.3996 77.0698 84.5653C76.7088 84.8483 77.372 84.3345 77.0072 84.6129C76.9003 84.6944 76.7926 84.7749 76.6849 84.8554C76.2178 85.2045 75.7419 85.5414 75.2605 85.8706C73.4006 87.1425 71.4318 88.2529 69.3902 89.2052C69.1438 89.3202 68.8957 89.4314 68.647 89.5415C68.5225 89.5965 68.3975 89.6505 68.2725 89.7043C67.8455 89.8883 68.6286 89.5565 68.1989 89.7348C67.6522 89.9619 67.0996 90.1742 66.5436 90.3775C65.4673 90.7708 64.3729 91.1136 63.2678 91.4156C62.1506 91.7208 61.0194 91.9732 59.8807 92.1831C59.3288 92.2848 58.7745 92.3726 58.219 92.4517C57.743 92.5196 58.6148 92.401 58.1372 92.4624C57.9973 92.4804 57.857 92.497 57.7166 92.5137C57.3884 92.5525 57.0594 92.5857 56.7304 92.6167C54.3502 92.8411 51.9504 92.849 49.5674 92.6653C49.0018 92.6217 48.4374 92.5638 47.8741 92.497C47.7339 92.4804 47.594 92.4624 47.454 92.4443C47.9312 92.5059 47.4549 92.4434 47.3729 92.4317C47.0486 92.3856 46.725 92.3338 46.4019 92.2799C45.2574 92.0888 44.1223 91.8438 42.9982 91.5568C41.8862 91.2728 40.7879 90.9369 39.7038 90.5611C39.1868 90.3819 38.6743 90.1898 38.165 89.9902C37.911 89.8905 37.6585 89.7872 37.4065 89.6826C37.836 89.8609 37.4072 89.682 37.3337 89.6505C37.1671 89.5787 37.0013 89.505 36.8357 89.4309C34.7767 88.5116 32.7991 87.4132 30.9178 86.171C30.4685 85.8742 30.0265 85.5666 29.589 85.2527C29.3705 85.0959 29.1543 84.9358 28.9388 84.7748C28.8312 84.6943 28.7243 84.6128 28.6174 84.5313C28.9972 84.821 28.5195 84.4538 28.4502 84.3991C27.5716 83.7062 26.7244 82.9737 25.9044 82.2124C24.2645 80.6897 22.7557 79.0276 21.3817 77.2621C21.6636 77.6242 21.3831 77.2611 21.3355 77.1982C21.2542 77.0911 21.1741 76.9831 21.094 76.8752C20.9336 76.6593 20.7763 76.4409 20.6202 76.2218C20.2816 75.7467 19.9552 75.2627 19.6368 74.7738C19.0229 73.8307 18.4521 72.86 17.917 71.8703C17.3793 70.8755 16.8874 69.8562 16.4332 68.8208C16.3785 68.6961 16.325 68.5708 16.2716 68.4457C16.4542 68.8736 16.273 68.4451 16.2425 68.3711C16.1387 68.1187 16.0387 67.8647 15.9398 67.6102C15.7251 67.0571 15.5252 66.4984 15.3346 65.9367C14.5921 63.7478 14.0464 61.4939 13.6813 59.2122C13.6368 58.9346 13.5967 58.6562 13.558 58.3777C13.6243 58.8545 13.5594 58.3774 13.5492 58.2953C13.5316 58.1551 13.5154 58.0147 13.4993 57.8743C13.429 57.2628 13.3754 56.6495 13.3324 56.0354C13.2485 54.8394 13.2222 53.6397 13.2405 52.441C13.2589 51.25 13.3338 50.0601 13.4537 48.8752C13.4821 48.5937 13.5149 48.3128 13.5492 48.0319C13.5592 47.9499 13.6228 47.4725 13.558 47.9497C13.5769 47.8102 13.5972 47.671 13.6176 47.5317C13.7053 46.931 13.8094 46.3327 13.9235 45.7366C14.3562 43.4764 14.9899 41.2561 15.794 39.1005C15.8895 38.8445 15.9888 38.59 16.0894 38.3359C16.1396 38.2091 16.1911 38.0827 16.2425 37.9564C16.2727 37.8824 16.4529 37.4534 16.2716 37.8819C16.5011 37.3391 16.745 36.8025 16.9976 36.2703C17.4814 35.2508 18.0119 34.2539 18.5774 33.2777C19.1405 32.3055 19.7478 31.3592 20.3881 30.436C20.6947 29.9937 21.012 29.5591 21.3356 29.1292C21.3829 29.0663 21.6624 28.7023 21.3818 29.0654C21.4639 28.959 21.5472 28.8535 21.6304 28.748C21.8245 28.5019 22.0226 28.2589 22.2221 28.0172C23.647 26.2921 25.2186 24.6898 26.9012 23.2159C27.3053 22.8619 27.7179 22.5177 28.1353 22.1798C28.3442 22.0107 28.5554 21.8446 28.7676 21.6796C28.4054 21.9614 28.7686 21.681 28.8315 21.6333C28.9744 21.525 29.1185 21.4184 29.2627 21.312C30.1661 20.6458 31.0993 20.0208 32.0536 19.43C33.0115 18.8369 33.9962 18.2878 34.9992 17.7749C35.4825 17.5278 35.9718 17.2926 36.4645 17.0648C36.7114 16.9507 36.9599 16.8401 37.209 16.7309C37.3337 16.6763 37.4589 16.6228 37.5841 16.5693C37.1386 16.7595 37.702 16.5227 37.7849 16.4889C39.9093 15.6234 42.109 14.9472 44.3474 14.4476C44.8919 14.3261 45.4393 14.2184 45.9882 14.1191C46.2639 14.0691 46.5405 14.0235 46.8172 13.9792C46.956 13.957 47.0949 13.9362 47.2338 13.9154C47.3254 13.9017 47.9509 13.8169 47.4541 13.8825C48.6286 13.7273 49.8101 13.6284 50.9933 13.5738C52.3244 13.5122 53.6582 13.5213 54.9891 13.5856C55.6889 13.6196 56.3876 13.6754 57.0848 13.7444C57.4308 13.7786 57.7763 13.8194 58.1213 13.8624C58.689 13.9331 57.7656 13.8111 58.331 13.8911C58.5592 13.9234 58.7866 13.959 59.0141 13.9951C60.7024 14.2629 62.3714 14.646 64.0129 15.1213C64.8241 15.3562 65.6265 15.621 66.4216 15.9055C66.791 16.0376 67.1576 16.1772 67.5229 16.3199C67.7313 16.4012 67.9386 16.4855 68.1456 16.5702C68.3403 16.6514 68.3521 16.6558 68.1806 16.5834C68.2833 16.6272 68.3858 16.6713 68.4881 16.7159C71.5884 18.0589 74.5106 19.8019 77.1918 21.8552C77.9705 22.4516 79.1988 21.9765 79.6469 21.2115C80.1877 20.2881 79.778 19.3499 79.0032 18.7564C70.098 11.9365 58.5761 8.86167 47.4541 10.2935C38.0491 11.5044 29.2595 15.7566 22.495 22.4131C15.8652 28.937 11.4301 37.6459 10.1168 46.856C8.74673 56.4637 10.5669 66.3186 15.4106 74.7444C19.9928 82.7148 27.2037 89.1661 35.6473 92.8033C44.5916 96.6562 54.6683 97.4185 64.0885 94.9123C73.0147 92.5374 81.1117 87.1729 86.805 79.9058C92.7194 72.3564 96.0028 63.0516 96.0849 53.4528C96.1663 43.9368 93.0072 34.468 87.1978 26.9306C86.602 26.1575 85.6681 25.7448 84.7427 26.2869C83.9797 26.7338 83.5003 27.9651 84.0991 28.7419Z"
          fill="black"/>
    <path d="M57.6843 39.4659C52.5037 37.6435 46.6576 39.0088 42.7352 42.81C39.056 46.3757 37.6302 51.7637 38.8274 56.7098C40.0062 61.5799 43.8363 65.4789 48.5601 67.0115C53.4486 68.5977 58.8792 67.2659 62.6746 63.8838C66.9919 60.0364 68.5259 53.6122 66.5327 48.2057C66.1946 47.2888 65.3289 46.6763 64.3254 46.9523C63.4426 47.1951 62.7334 48.2411 63.072 49.1597C63.643 50.7083 63.8276 51.7922 63.8192 53.3077C63.8176 53.5936 63.8018 53.879 63.7813 54.1641C63.771 54.3052 63.7562 54.4459 63.7413 54.5866C63.6908 55.064 63.8022 54.1935 63.7309 54.6663C63.6415 55.2597 63.5003 55.8444 63.3277 56.4187C63.2489 56.6805 63.1575 56.9383 63.062 57.1943C63.0338 57.2699 62.8576 57.6993 63.0392 57.2698C62.9863 57.3946 62.9296 57.5176 62.8728 57.6407C62.628 58.1711 62.3385 58.6799 62.0233 59.1713C61.8784 59.3971 61.7229 59.6159 61.5641 59.832C61.2935 60.2005 61.802 59.5356 61.5163 59.8921C61.4326 59.9966 61.3457 60.0983 61.2587 60.2001C60.8822 60.6409 60.4693 61.0495 60.0368 61.4349C59.9368 61.5239 59.8341 61.6098 59.7315 61.6956C59.6701 61.747 59.3104 62.0275 59.675 61.7478C59.4622 61.911 59.2419 62.0641 59.0193 62.2136C58.5346 62.5392 58.0231 62.8232 57.4987 63.0788C57.3769 63.1382 57.2533 63.1936 57.1298 63.2491C56.7075 63.4384 57.488 63.1056 57.057 63.2769C56.8033 63.3778 56.5448 63.4664 56.2852 63.5506C55.7153 63.7356 55.13 63.8701 54.54 63.9724C54.4568 63.9868 53.9846 64.05 54.462 63.9888C54.3221 64.0067 54.1815 64.0199 54.041 64.0333C53.7571 64.0601 53.472 64.0728 53.1872 64.0806C52.569 64.0978 51.9503 64.0605 51.3366 63.9888C51.814 64.0446 51.3428 63.986 51.2588 63.9724C51.1213 63.9501 50.9846 63.9233 50.8479 63.8966C50.5765 63.8433 50.3078 63.7768 50.0405 63.706C49.7754 63.6355 49.5138 63.5524 49.254 63.4648C49.1247 63.4213 48.9968 63.3735 48.869 63.326C48.7842 63.2939 48.6997 63.2607 48.6156 63.2267C48.8349 63.3213 48.8527 63.3287 48.6692 63.2491C48.174 63.0333 47.6969 62.7782 47.2336 62.5013C47.003 62.3635 46.7792 62.2148 46.5579 62.0628C46.4474 61.9869 46.3394 61.9074 46.2313 61.8282C46.0735 61.7091 46.0883 61.721 46.2757 61.8642C46.2058 61.8087 46.1365 61.7526 46.0677 61.6956C45.6535 61.3566 45.2666 60.9855 44.8984 60.5976C44.7141 60.4035 44.5392 60.2009 44.3676 59.9957C44.3163 59.9343 44.0356 59.5747 44.3155 59.9392C44.2067 59.7974 44.1031 59.6517 44.0004 59.5056C43.6909 59.0652 43.4168 58.6011 43.1657 58.1254C43.0395 57.8861 42.9247 57.6409 42.814 57.3941C42.6246 56.9718 42.9573 57.7522 42.786 57.3213C42.7188 57.1524 42.6579 56.9809 42.5982 56.8093C42.4168 56.2889 42.2782 55.7545 42.1664 55.2151C42.1381 55.0787 42.1143 54.9414 42.0905 54.8042C42.076 54.7211 42.013 54.2489 42.0741 54.7263C42.032 54.3982 42.0082 54.0679 41.9917 53.7376C41.9631 53.1657 41.982 52.5922 42.0296 52.0218C42.0413 51.8812 42.0577 51.741 42.0741 51.6008C42.0183 52.0781 42.0768 51.607 42.0905 51.523C42.1423 51.2032 42.2116 50.8864 42.2878 50.5716C42.4168 50.0388 42.589 49.5172 42.786 49.0061C42.9527 48.5734 42.6291 49.3576 42.814 48.9333C42.868 48.8092 42.9262 48.6868 42.9842 48.5644C43.1192 48.28 43.2692 48.0028 43.4249 47.7294C43.6907 47.2626 43.9931 46.8174 44.3155 46.3881C44.0399 46.7551 44.3166 46.394 44.3676 46.3316C44.4524 46.2281 44.5403 46.1273 44.6282 46.0264C44.8334 45.7913 45.0508 45.567 45.2726 45.3475C45.4628 45.1593 45.6616 44.9802 45.8632 44.8043C45.9641 44.7163 46.0677 44.6315 46.1711 44.5467C46.5246 44.2574 45.8657 44.7735 46.2312 44.499C46.6968 44.1493 47.1913 43.8393 47.7001 43.5568C48.0152 43.3818 48.3403 43.2254 48.6692 43.078C48.8528 42.9982 48.8349 43.0056 48.6156 43.1002C48.6996 43.0662 48.7842 43.0332 48.869 43.001C49.0388 42.9356 49.2111 42.8765 49.3836 42.8185C49.7312 42.7015 50.0855 42.6054 50.4418 42.5192C50.6215 42.4757 50.8029 42.4392 50.9844 42.4036C51.0945 42.382 51.8342 42.2743 51.3366 42.3381C52.2267 42.2239 53.1278 42.2202 54.0212 42.2917C54.144 42.3025 54.2669 42.315 54.3893 42.3292C54.2167 42.304 54.2398 42.3079 54.4584 42.3408C54.6987 42.3776 54.9369 42.4265 55.1745 42.4772C55.7028 42.5897 56.2207 42.7473 56.7299 42.9264C57.6531 43.2512 58.6916 42.5664 58.9372 41.6731C59.2107 40.6804 58.606 39.7902 57.6843 39.4659Z"
          fill="black"/>
    <path d="M73.5247 39.3167C74.3065 40.499 74.9946 41.7358 75.5868 43.0236C75.6582 43.1789 75.7265 43.3355 75.7948 43.492C75.6481 43.1559 75.8692 43.6742 75.8778 43.6952C76.007 44.0133 76.1269 44.3351 76.2436 44.658C76.4981 45.3623 76.7157 46.0794 76.9096 46.8026C77.0906 47.4773 77.238 48.1607 77.365 48.8474C77.4291 49.1939 77.4828 49.5423 77.5332 49.891C77.4791 49.5152 77.556 50.0939 77.5586 50.1171C77.5863 50.3529 77.6084 50.5893 77.6297 50.8257C77.7515 52.176 77.7587 53.5361 77.6759 54.8888C77.6413 55.4555 77.584 56.0207 77.5135 56.584C77.5733 56.1071 77.5122 56.5828 77.5002 56.6649C77.4798 56.8038 77.4571 56.9424 77.4345 57.081C77.3819 57.403 77.321 57.7235 77.2567 58.0434C77.0295 59.1726 76.72 60.2844 76.3477 61.374C76.1709 61.8917 75.9741 62.4022 75.7656 62.9077C75.9428 62.4781 75.7644 62.9065 75.7323 62.98C75.6779 63.1047 75.6216 63.2286 75.5652 63.3523C75.434 63.6407 75.2954 63.9255 75.154 64.2089C74.6511 65.2164 74.0768 66.1873 73.4508 67.1229C73.1514 67.5702 72.8353 68.0062 72.5094 68.4346C72.787 68.0695 72.5083 68.4332 72.4592 68.4953C72.3758 68.6006 72.2907 68.7046 72.2057 68.8086C72.0073 69.0512 71.8029 69.2889 71.5963 69.5244C70.8583 70.3653 70.0617 71.1539 69.2248 71.8959C68.8227 72.2523 68.4073 72.5936 67.9845 72.9252C68.3455 72.6421 67.9835 72.9236 67.9205 72.9711C67.813 73.052 67.7043 73.1314 67.5956 73.2105C67.3417 73.3956 67.0834 73.5742 66.8233 73.7502C65.8906 74.3811 64.9139 74.9455 63.9092 75.4533C63.4242 75.6985 62.9297 75.925 62.4305 76.14C62.8577 75.956 62.4298 76.138 62.3557 76.1682C62.2292 76.2196 62.1018 76.269 61.9745 76.3185C61.6769 76.4342 61.3762 76.5421 61.0745 76.6469C59.9865 77.0249 58.8715 77.3229 57.7439 77.5558C57.195 77.6692 56.6419 77.7609 56.087 77.8395C56.5636 77.7721 56.0865 77.8372 56.0043 77.847C55.8637 77.8639 55.7229 77.8785 55.5821 77.8931C55.2519 77.9274 54.9208 77.953 54.5895 77.975C53.3941 78.0545 52.1934 78.045 50.9983 77.9655C50.7145 77.9466 50.4312 77.921 50.1482 77.8931C50.0073 77.8792 49.8666 77.8631 49.7259 77.847C49.6439 77.8376 49.1662 77.7745 49.6432 77.8395C49.0419 77.7576 48.4442 77.6505 47.85 77.5276C46.7227 77.2948 45.6133 76.9795 44.5263 76.6019C44.2678 76.5121 44.0113 76.4163 43.7557 76.3185C43.6281 76.2697 43.5014 76.2189 43.3747 76.1682C43.3004 76.1385 42.8715 75.9581 43.2997 76.14C42.7578 75.9099 42.2254 75.6577 41.7 75.3922C40.6953 74.8843 39.7275 74.3052 38.7954 73.6747C38.5724 73.5238 38.3529 73.368 38.1346 73.2105C38.0255 73.1318 37.9176 73.0515 37.8098 72.9711C37.7465 72.924 37.3833 72.6438 37.7457 72.9252C37.2859 72.5682 36.8405 72.1928 36.405 71.8068C35.5677 71.0646 34.7832 70.2641 34.0453 69.4236C33.8682 69.2216 33.6955 69.0158 33.5244 68.8086C33.4389 68.7051 33.3548 68.6002 33.2709 68.4953C33.2215 68.4337 32.9412 68.0709 33.2206 68.4346C32.8653 67.9721 32.5287 67.4956 32.2044 67.0109C31.5779 66.0748 31.0184 65.095 30.5155 64.0875C30.3942 63.8445 30.2786 63.5987 30.1649 63.3522C30.1078 63.2287 30.0528 63.1043 29.9977 62.9799C29.9653 62.9067 29.7849 62.4787 29.9644 62.9076C29.7356 62.3609 29.5295 61.8049 29.338 61.2441C28.9655 60.1533 28.6731 59.0361 28.4458 57.9065C28.3906 57.6322 28.3419 57.3568 28.2955 57.0808C28.2721 56.9423 28.251 56.8036 28.2298 56.6647C28.2173 56.5828 28.1542 56.107 28.2165 56.5838C28.1367 55.9735 28.0829 55.3601 28.0454 54.7459C27.9723 53.5502 27.988 52.3496 28.0738 51.155C28.0942 50.8716 28.1213 50.5888 28.1507 50.3061C28.1653 50.1654 28.1822 50.025 28.199 49.8845C28.2564 49.4064 28.1421 50.2786 28.2094 49.8027C28.2944 49.2023 28.4046 48.6057 28.5304 48.0126C28.7692 46.8873 29.09 45.7802 29.4729 44.6959C29.5641 44.4379 29.6611 44.1821 29.7601 43.9271C29.8096 43.7999 29.8609 43.6734 29.9123 43.547C30.0874 43.1159 29.7592 43.9004 29.9431 43.4734C30.1758 42.9329 30.4306 42.402 30.6989 41.8782C31.2117 40.8764 31.7955 39.9118 32.4307 38.9831C32.5826 38.7609 32.7396 38.5422 32.8981 38.3247C32.9774 38.216 33.0583 38.1085 33.1391 38.0011C33.415 37.6344 32.9041 38.2997 33.1872 37.9387C33.5464 37.4808 33.924 37.0373 34.3123 36.6038C35.0586 35.7703 35.8631 34.9897 36.7074 34.2561C36.9102 34.08 37.1169 33.9083 37.3249 33.7383C37.4289 33.6532 37.5342 33.5698 37.6395 33.4863C37.999 33.2013 37.3366 33.7159 37.7019 33.4382C38.1662 33.0852 38.6445 32.7509 39.1309 32.429C40.0703 31.8072 41.0533 31.2524 42.0636 30.7545C42.3072 30.6345 42.5537 30.52 42.801 30.4074C42.9248 30.3511 43.0495 30.2966 43.1742 30.2422C43.6002 30.0561 42.8177 30.3888 43.2478 30.2114C43.796 29.9853 44.3533 29.782 44.9153 29.5933C46.0087 29.2261 47.1282 28.9395 48.2597 28.7179C48.5344 28.6641 48.8105 28.6169 49.0867 28.5718C49.2254 28.5491 49.3644 28.5287 49.5034 28.5083C49.9789 28.4385 49.1074 28.5577 49.5852 28.4979C50.1965 28.4212 50.8108 28.3706 51.4258 28.3363C52.806 28.2593 54.1914 28.2996 55.5668 28.4333C55.8033 28.4563 56.0391 28.4847 56.2748 28.5141C56.0911 28.4889 56.1079 28.4918 56.325 28.5226C56.5 28.5479 56.6745 28.5766 56.8489 28.6054C57.369 28.6913 57.8856 28.7977 58.3996 28.9145C59.4159 29.1452 60.4153 29.4457 61.3969 29.7946C61.6133 29.8715 61.828 29.9533 62.0424 30.0358C62.1493 30.0774 62.2558 30.1196 62.3621 30.1625C62.8865 30.3723 62.0487 30.024 62.5668 30.2469C63.0384 30.4498 63.5017 30.671 63.9607 30.901C64.8737 31.3585 65.7555 31.8772 66.6096 32.4366C67.4289 32.973 68.5895 32.6041 69.0647 31.7929C69.578 30.9167 69.2377 29.8724 68.4211 29.3378C59.2841 23.3556 47.1594 23.2254 37.8871 28.9665C29.6531 34.0646 24.5401 43.2066 24.4116 52.8746C24.2825 62.5873 29.3395 71.774 37.4321 77.0717C45.6778 82.4698 56.3816 82.9838 65.2328 78.7904C69.5013 76.768 73.1388 73.603 75.9302 69.815C78.7899 65.9343 80.4799 61.3421 81.102 56.5836C81.967 49.9669 80.296 43.0597 76.623 37.5049C76.0846 36.6907 75.047 36.3462 74.1679 36.8612C73.36 37.3352 72.9846 38.4998 73.5247 39.3167Z"
          fill="black"/>
    <path d="M52.0993 56.4841L58.6789 49.9045C63.2545 45.3289 67.83 40.7533 72.4056 36.1777C76.3574 32.2259 80.3092 28.2741 84.261 24.3223C85.0827 23.5005 85.9044 22.6788 86.7261 21.857C87.4174 21.1657 87.4174 20.0106 86.7261 19.3193C86.0348 18.628 84.8798 18.628 84.1885 19.3193C81.9952 21.5125 79.8021 23.7057 77.6088 25.8989C73.0333 30.4745 68.4577 35.0501 63.8822 39.6257C59.9303 43.5776 55.9786 47.5293 52.0267 51.4812C51.205 52.3029 50.3833 53.1247 49.5615 53.9464C48.8701 54.6377 48.8701 55.7927 49.5615 56.484C50.2528 57.1754 51.408 57.1755 52.0993 56.4841Z"
          fill="black"/>
    <path d="M58.1621 53.4214C55.7183 53.4214 53.2745 53.4214 50.8306 53.4214L52.625 55.2158C52.625 52.772 52.625 50.3281 52.625 47.8843C52.625 46.9061 51.8088 46.0898 50.8306 46.0898C49.8523 46.0898 49.0361 46.9061 49.0361 47.8843V55.2158C49.0361 56.194 49.8523 57.0103 50.8306 57.0103H58.1621C59.1403 57.0103 59.9565 56.194 59.9565 55.2158C59.9565 54.2376 59.1403 53.4214 58.1621 53.4214Z"
          fill="black"/>
    <path d="M90.2568 19.1733C88.4965 19.1733 86.7364 19.1733 84.9761 19.1733C85.5742 19.7715 86.1724 20.3697 86.7705 20.9678C86.7705 19.2075 86.7705 17.4473 86.7705 15.687C86.7705 14.7088 85.9543 13.8926 84.9761 13.8926C83.9979 13.8926 83.1816 14.7088 83.1816 15.687V20.9678C83.1816 21.946 83.9979 22.7622 84.9761 22.7622H90.2568C91.2351 22.7622 92.0513 21.946 92.0513 20.9678C92.0513 19.9896 91.2351 19.1733 90.2568 19.1733Z"
          fill="black"/>
    <path d="M94.3584 15.0718C92.5981 15.0718 90.8379 15.0718 89.0776 15.0718C89.6757 15.6699 90.274 16.2681 90.8721 16.8662C90.8721 15.1059 90.8721 13.3457 90.8721 11.5854C90.8721 10.6072 90.0559 9.79102 89.0776 9.79102C88.0994 9.79102 87.2832 10.6072 87.2832 11.5854V16.8662C87.2832 17.8444 88.0994 18.6606 89.0776 18.6606H94.3584C95.3366 18.6606 96.1528 17.8444 96.1528 16.8662C96.1528 15.888 95.3366 15.0718 94.3584 15.0718Z"
          fill="black"/>
</svg>