<svg width="86" height="106" viewBox="0 0 86 106" fill="none" xmlns="http://www.w3.org/2000/svg">
    <g clip-path="url(#clip0_33_2441)">
        <path d="M62.7845 66.2275V72.5952V84.377C62.7845 86.52 62.8768 88.6938 62.7743 90.8369C62.7743 90.8677 62.7435 91.042 62.764 91.0625C62.7435 91.0317 62.8666 90.5703 62.7743 90.9497C62.7435 91.1035 62.6717 91.2676 62.6512 91.4214C62.6205 91.6367 62.6922 91.2471 62.7435 91.2368C62.7333 91.2368 62.6512 91.4316 62.6307 91.4624C62.6102 91.4932 62.4974 91.6572 62.4974 91.6675C62.4872 91.606 62.805 91.3291 62.5897 91.5239C62.3334 91.7495 62.723 91.4214 62.7435 91.4214C62.723 91.4214 62.5487 91.5444 62.5487 91.5342C62.5384 91.5547 62.9691 91.3394 62.7743 91.4316C62.6922 91.4727 62.4256 91.5034 62.764 91.4521C63.0819 91.4111 62.8666 91.4419 62.7845 91.4316C62.682 91.4316 62.5897 91.4316 62.4872 91.4316C61.9027 91.4316 61.308 91.4316 60.7235 91.4316C58.3036 91.4316 55.8734 91.4316 53.4535 91.4316C49.8851 91.4316 46.327 91.4316 42.7587 91.4316C38.7186 91.4316 34.6786 91.4316 30.6385 91.4316C26.7831 91.4316 22.9173 91.4316 19.0619 91.4316C16.0472 91.4316 13.0223 91.4316 10.0077 91.4316C8.4901 91.4316 6.97252 91.4316 5.45494 91.4316C5.38316 91.4316 5.31139 91.4316 5.23961 91.4316C4.9525 91.4521 5.31139 91.3188 5.40367 91.4727C5.39342 91.4521 5.23961 91.4419 5.2191 91.4316C4.75768 91.2778 5.45494 91.6162 5.16783 91.4111C5.17809 91.4214 4.93199 91.2778 4.94225 91.2676C4.9525 91.2471 5.32164 91.6265 5.03453 91.3291C4.98326 91.2778 4.93199 91.2368 4.89098 91.1855C4.62437 90.8984 4.80895 91.2061 4.90123 91.2163C4.87047 91.2163 4.56285 90.6626 4.72691 90.9497C4.89098 91.2368 4.58336 90.6934 4.64488 90.6318C4.65514 90.6216 4.66539 91.165 4.65514 90.7241C4.65514 90.6934 4.65514 90.6011 4.65514 90.5703C4.64488 90.3037 4.65514 90.0269 4.65514 89.7603C4.65514 87.9966 4.65514 86.2329 4.65514 84.4692C4.65514 81.4751 4.65514 78.4707 4.65514 75.4766C4.65514 71.7134 4.65514 67.9502 4.65514 64.187C4.65514 60.147 4.65514 56.0967 4.65514 52.0566C4.65514 48.1704 4.65514 44.2842 4.65514 40.3877C4.65514 37.1372 4.65514 33.8867 4.65514 30.6465C4.65514 28.5034 4.65514 26.3706 4.65514 24.2275C4.65514 23.7251 4.65514 23.2124 4.65514 22.71C4.65514 22.6177 4.65514 22.5356 4.65514 22.4434V22.4331C4.65514 22.3921 4.6859 22.1357 4.67564 22.1255C4.70641 22.1562 4.58336 22.5049 4.66539 22.2998C4.70641 22.2075 4.72691 22.105 4.74742 22.0127C4.79869 21.7769 4.52184 22.4023 4.74742 22.0229C4.78844 21.9614 4.8192 21.8999 4.86022 21.8281C4.91149 21.7461 5.11656 21.5615 4.91149 21.7461C4.66539 21.9717 5.13707 21.541 5.13707 21.541C5.15758 21.541 4.69615 21.8076 5.05504 21.6128C5.09606 21.5923 5.19859 21.541 5.22936 21.5103C5.37291 21.3359 4.88072 21.582 5.09605 21.5513C5.12682 21.5513 5.40367 21.4692 5.40367 21.4692C5.37291 21.5513 4.9525 21.4897 5.26012 21.5H5.41393H6.01891H8.24401H14.0887H17.1444C18.2211 21.5 19.2464 20.5566 19.1952 19.4492C19.1439 18.3418 18.2928 17.3984 17.1444 17.3984C14.0682 17.3984 11.0023 17.3984 7.92613 17.3984C7.21861 17.3984 6.51109 17.3984 5.81383 17.3984C5.17809 17.3984 4.54234 17.3984 3.93736 17.6138C1.82506 18.3828 0.543321 20.4028 0.533067 22.6177V26.668V34.9531V45.9351V58.1782V70.2266V80.6548V87.9043C0.533067 88.9297 0.440782 89.9961 0.574083 91.0215C0.8817 93.5029 2.82994 95.5127 5.39342 95.5229H6.94176H14.0272H24.722H37.0267H48.7777H57.9857H62.6C62.7435 95.5229 62.8871 95.5229 63.0306 95.5024C65.225 95.3179 66.5272 93.5029 66.8041 91.4419C66.9169 90.6216 66.8758 89.7808 66.8758 88.9502C66.8758 85.4741 66.8758 82.0083 66.8758 78.5322C66.8758 75.0049 66.8758 71.4775 66.8758 67.9399C66.8758 67.3555 66.8758 66.771 66.8758 66.1865C66.8758 65.1099 65.9325 64.0845 64.8251 64.1357C63.7279 64.228 62.7845 65.0791 62.7845 66.2275Z"
              fill="black"/>
        <path d="M66.8856 48.9988C66.8856 47.0198 66.8856 45.0408 66.8856 43.0618C66.8856 39.1551 66.8856 35.2483 66.8856 31.3416C66.8856 28.5423 66.8856 25.7532 66.8856 22.9539C66.8856 21.0467 66.455 18.9549 64.6708 17.909C63.4608 17.2014 61.851 17.4065 60.4975 17.4065C57.1854 17.4065 53.8837 17.4065 50.5717 17.4065C50.4691 17.4065 50.3768 17.4065 50.2743 17.4065C49.1976 17.4065 48.1723 18.3499 48.2235 19.4573C48.2748 20.5647 49.1259 21.5081 50.2743 21.5081H58.9901C60.2308 21.5081 61.4716 21.4978 62.7123 21.5081H62.7943C62.8661 21.5081 63.1019 21.5286 62.7636 21.4876C62.4354 21.4466 62.6918 21.4773 62.7738 21.5183C63.0199 21.6106 62.3637 21.3338 62.5995 21.4568C62.8148 21.5696 62.3226 21.1389 62.4662 21.344C62.497 21.385 62.5585 21.4363 62.5892 21.4671C62.8456 21.6927 62.4662 21.385 62.497 21.3338C62.497 21.344 62.5892 21.4773 62.5995 21.4978C62.8353 21.9285 62.5277 21.2005 62.6405 21.5491C62.6918 21.7337 62.7431 21.908 62.7841 22.0926C62.8764 22.4925 62.7841 22.0003 62.7738 21.99C62.7943 22.0208 62.7943 22.2874 62.7943 22.2976V22.4514V22.5027V22.7488V30.3777V41.9851C62.7943 44.282 62.7431 46.5789 62.7943 48.8758V48.9886C62.7943 50.0652 63.7377 51.0906 64.8451 51.0393C65.9423 50.9983 66.8856 50.1472 66.8856 48.9988Z"
              fill="black"/>
        <path d="M53.6586 41.5143C52.3358 41.5143 51.0131 41.5143 49.6903 41.5143C46.5116 41.5143 43.3432 41.5143 40.1644 41.5143C36.3192 41.5143 32.4843 41.5143 28.6391 41.5143C25.3168 41.5143 21.9945 41.5143 18.6723 41.5143C17.0624 41.5143 15.4423 41.4733 13.8324 41.5143C13.8119 41.5143 13.7914 41.5143 13.7606 41.5143C12.684 41.5143 11.6586 42.4577 11.7099 43.5651C11.7611 44.6725 12.6122 45.6159 13.7606 45.6159H17.7289H27.2548H38.7802H48.747C50.3568 45.6159 51.9769 45.6569 53.5868 45.6159H53.6586C54.7352 45.6159 55.7606 44.6725 55.7094 43.5651C55.6581 42.4577 54.807 41.5143 53.6586 41.5143Z"
              fill="black"/>
        <path d="M37.2523 57.7148C34.6171 57.7148 31.9818 57.7148 29.3363 57.7148C25.1117 57.7148 20.8871 57.7148 16.6625 57.7148C15.6986 57.7148 14.7348 57.7148 13.7606 57.7148C12.684 57.7148 11.6586 58.6582 11.7099 59.7656C11.7611 60.873 12.6122 61.8164 13.7606 61.8164H21.6767H34.3505H37.2523C38.329 61.8164 39.3544 60.873 39.3031 59.7656C39.2518 58.6582 38.4008 57.7148 37.2523 57.7148Z"
              fill="black"/>
        <path d="M34.0736 73.918C31.787 73.918 29.4901 73.918 27.2035 73.918C23.5736 73.918 19.9335 73.918 16.3036 73.918C15.4628 73.918 14.622 73.918 13.7811 73.918C12.7045 73.918 11.6791 74.8613 11.7304 75.9688C11.7816 77.0762 12.6327 78.0195 13.7811 78.0195H20.6513H31.5512H34.0736C35.1503 78.0195 36.1757 77.0762 36.1244 75.9688C36.0731 74.8613 35.2221 73.918 34.0736 73.918Z"
              fill="black"/>
        <path d="M47.6496 12.1062C45.9987 12.1062 44.3581 12.1062 42.7072 12.1062C39.2106 12.1062 35.714 12.1062 32.2174 12.1062C29.0387 12.1062 25.86 12.1062 22.6813 12.1062C21.8918 12.1062 21.092 12.1062 20.3024 12.1062C18.0671 12.1062 15.9753 13.4494 15.401 15.695C15.2165 16.4128 15.237 17.1408 15.237 17.8791V20.4836C15.237 21.0578 15.2267 21.6423 15.237 22.2165C15.2677 23.8982 16.1086 25.4362 17.5339 26.3386C18.5592 26.9846 19.6974 27.0564 20.8561 27.0564H23.9631H34.1247H44.1325H47.0446C48.5212 27.0564 49.9054 26.759 51.0231 25.6926C52.0075 24.7492 52.4792 23.447 52.4894 22.1037C52.4894 21.4065 52.4894 20.6989 52.4894 20.0017C52.4894 18.2585 52.7458 16.2487 51.9049 14.6491C51.0539 13.07 49.3927 12.1472 47.6496 12.1062C46.5729 12.0754 45.5475 13.07 45.5988 14.1569C45.6501 15.2951 46.5011 16.177 47.6496 16.2077C47.7214 16.2077 47.7931 16.218 47.8649 16.218C48.0905 16.218 47.6803 16.2077 47.6598 16.1872C47.6701 16.1975 48.2546 16.4538 47.9367 16.2487C47.6701 16.0847 48.029 16.3308 48.111 16.3615C48.3366 16.4436 47.9264 16.2693 47.9674 16.2385C47.9777 16.2282 48.152 16.4026 48.1623 16.4128C48.2033 16.4538 48.2443 16.5153 48.2956 16.5564C48.4699 16.7102 48.152 16.4231 48.1828 16.4026C48.1725 16.4128 48.5314 16.946 48.3366 16.6281C48.1828 16.382 48.3468 16.7512 48.3776 16.8332C48.4699 17.0075 48.3468 16.6794 48.3571 16.6281C48.3366 16.6999 48.3674 16.8332 48.3674 16.9152C48.3776 17.3767 48.3674 17.8278 48.3674 18.2893C48.3674 19.6223 48.4084 20.9553 48.3674 22.2883C48.3674 22.3498 48.3366 22.4421 48.3571 22.5036C48.3468 22.4524 48.4596 22.1242 48.3776 22.2985C48.3366 22.3806 48.1725 22.7497 48.3366 22.5036C48.5006 22.237 48.2546 22.5959 48.2238 22.6779C48.1418 22.9035 48.3161 22.4831 48.3468 22.5344C48.3571 22.5549 48.1315 22.76 48.1213 22.7805C48.111 22.7907 47.9777 22.9138 47.9674 22.9138C47.9264 22.883 48.3366 22.7087 48.111 22.7907C48.0392 22.8215 47.6803 23.0676 47.9367 22.9035C48.1828 22.7497 47.8136 22.9138 47.7316 22.9445C47.5573 23.0368 47.8854 22.9138 47.9367 22.924C47.8752 22.9035 47.7316 22.9343 47.6496 22.9343C47.5368 22.9343 47.424 22.9343 47.3112 22.9343C46.5216 22.9343 45.7218 22.9343 44.9323 22.9343C41.8869 22.9343 38.8415 22.9343 35.7961 22.9343C32.4123 22.9343 29.0387 22.9343 25.6549 22.9343C23.8195 22.9343 21.9738 22.9445 20.1383 22.9343C20.0871 22.9343 20.0358 22.9343 19.9845 22.9343C19.923 22.9343 19.8307 22.9035 19.7692 22.924C19.8205 22.9138 20.1486 23.0266 19.9743 22.9445C19.8923 22.9035 19.5231 22.7395 19.7692 22.9035C20.0358 23.0676 19.6769 22.8215 19.5949 22.7907C19.3693 22.7087 19.7897 22.883 19.7384 22.9138C19.7179 22.924 19.5231 22.7087 19.4923 22.6882C19.4821 22.6779 19.359 22.5446 19.359 22.5344C19.3898 22.4934 19.5641 22.9035 19.4821 22.6779C19.4513 22.6062 19.2052 22.2473 19.3693 22.5036C19.5231 22.7497 19.3591 22.3806 19.3283 22.2985C19.236 22.1242 19.359 22.4524 19.3488 22.5036C19.3693 22.4421 19.3385 22.2985 19.3385 22.2165C19.3385 22.073 19.3385 21.9397 19.3385 21.7961C19.3385 20.2888 19.3385 18.7917 19.3385 17.2844C19.3385 17.1408 19.3385 16.9973 19.3385 16.8435C19.3385 16.7819 19.3693 16.6897 19.3488 16.6281C19.3693 16.6999 19.236 16.9768 19.3283 16.8332C19.3591 16.7922 19.3693 16.6794 19.3796 16.6384C19.4718 16.2487 19.359 16.7717 19.318 16.7512C19.3078 16.7512 19.5026 16.4026 19.5231 16.4026C19.5539 16.4128 19.236 16.6999 19.4103 16.5564C19.4718 16.5051 19.5334 16.4231 19.5949 16.3615C19.6051 16.3513 19.7384 16.2282 19.7487 16.2282C19.8102 16.2692 19.3693 16.4128 19.6051 16.3513C19.6564 16.341 19.7384 16.2795 19.7795 16.2487C20.1178 16.0232 19.6667 16.3308 19.6564 16.2898C19.6564 16.2487 20.0256 16.2077 20.0461 16.177C20.0358 16.1872 19.6154 16.1975 19.841 16.2077C19.9128 16.2077 19.9845 16.1975 20.0563 16.1975H20.1486H22.0251H30.6076H40.923H47.342H47.6598C48.7365 16.1975 49.7619 15.2541 49.7106 14.1467C49.6491 13.0495 48.798 12.1062 47.6496 12.1062Z"
              fill="black"/>
        <path d="M80.975 47.1856C79.6932 48.4673 78.4115 49.7491 77.1298 51.0308C74.5765 53.584 72.0233 56.1373 69.4701 58.6905C67.5834 60.5772 65.7069 62.4537 63.8202 64.3404C62.641 65.5196 61.4618 66.6988 60.2723 67.8882C58.1498 70.0108 55.9657 72.1026 53.8842 74.2764C53.8431 74.3174 53.8021 74.3585 53.7611 74.3995C54.243 74.1944 54.725 73.9996 55.2069 73.7945C52.3768 74.1124 49.5365 74.4302 46.7064 74.7584C46.3065 74.7994 45.9066 74.8506 45.4965 74.8917L47.5472 76.9424C47.8651 74.1124 48.183 71.272 48.5111 68.4419C48.5521 68.042 48.6034 67.6421 48.6444 67.232C48.4393 67.7139 48.2445 68.1959 48.0394 68.6778C49.9262 66.7911 51.8026 64.9146 53.6893 63.0279C56.8783 59.8389 60.0673 56.65 63.2562 53.461C64.661 52.0562 66.0555 50.6617 67.4603 49.2569C70.0546 46.6626 72.6591 44.0889 75.243 41.4742C75.2738 41.4434 75.3661 41.3614 75.3661 41.3614C75.3661 41.4024 74.9764 41.6382 75.3148 41.4434C75.2533 41.4742 74.8944 41.5972 75.2225 41.5152C74.7714 41.628 74.9457 41.5357 75.0892 41.5562C74.556 41.5049 74.8431 41.5049 74.9559 41.5459C74.5048 41.3511 74.7509 41.4434 74.8534 41.5049C75.1918 41.6895 74.7714 41.4947 74.7816 41.4537C74.7714 41.4947 75.0995 41.7715 75.1303 41.8023L77.1093 43.7813L79.5804 46.2525C79.8778 46.5499 80.1752 46.8472 80.4623 47.1343C80.5751 47.2471 80.7802 47.5547 80.934 47.606C80.934 47.606 80.9442 47.6265 80.9545 47.6265C80.9545 47.6265 80.6776 47.2164 80.9032 47.5547C81.098 47.8418 80.8929 47.5137 80.8622 47.4522C80.9955 47.7496 80.8622 47.4112 80.8622 47.3189C80.8827 47.6573 80.8827 47.2676 80.9032 47.1959C80.8007 47.6265 81.098 46.9395 80.9442 47.1753C80.8724 47.2984 80.6776 47.5137 80.975 47.1856C80.247 47.9751 80.1342 49.3184 80.975 50.0875C81.7645 50.8155 83.0975 50.9283 83.8768 50.0875C85.056 48.8057 85.3739 46.8882 84.3895 45.3707C84.1434 44.981 83.8358 44.6836 83.5077 44.3658C82.6464 43.5044 81.7953 42.6534 80.934 41.792C80.0316 40.8897 79.1293 39.9874 78.2269 39.085C78.0526 38.9107 77.8783 38.7261 77.704 38.5621C76.453 37.3829 74.6381 37.1368 73.1307 37.9776C72.454 38.357 71.89 39.044 71.3466 39.5875C70.4545 40.4795 69.5624 41.3716 68.6703 42.2637C66.9784 43.9556 65.2865 45.6475 63.5946 47.3394C61.2772 49.6568 58.9496 51.9844 56.6322 54.3018C53.0844 57.8497 49.5262 61.4078 45.9784 64.9556C45.7118 65.2222 45.4247 65.4888 45.1683 65.7657C44.4916 66.4937 44.5018 67.7242 44.389 68.688C44.1019 71.2515 43.8148 73.8047 43.5175 76.3682C43.497 76.5528 43.4764 76.7476 43.4559 76.9322C43.3431 77.9473 44.4916 79.0958 45.5067 78.983C48.7367 78.6138 51.9667 78.2857 55.1967 77.8858C56.14 77.773 56.5809 77.3731 57.1654 76.7886L58.8676 75.0865L63.6459 70.3082L67.9935 65.9605L76.9554 56.9986C79.2216 54.7325 81.5389 52.4971 83.764 50.19C83.8051 50.149 83.8358 50.1182 83.8768 50.0772C84.6356 49.3184 84.6971 47.9239 83.8768 47.1753C83.0565 46.4268 81.785 46.3755 80.975 47.1856Z"
              fill="black"/>
    </g>
    <defs>
        <clipPath id="clip0_33_2441">
            <rect width="85" height="105" fill="white" transform="translate(0.0273438 0.847656)"/>
        </clipPath>
    </defs>
</svg>