<svg width="78" height="92" viewBox="0 0 78 92" fill="none" xmlns="http://www.w3.org/2000/svg">
    <g clip-path="url(#clip0_33_2467)">
        <path d="M30.197 46.3468C34.2131 48.3 38.7548 48.9332 43.1601 48.154C47.5654 47.3749 51.604 45.224 54.687 42.0151C57.3646 38.9562 59.0274 35.1572 59.4502 31.1324C59.873 27.1077 59.0354 23.0517 57.0508 19.5134C55.1913 16.2283 52.5575 13.4359 49.3731 11.3736C46.1888 9.31138 42.5482 8.0403 38.7608 7.66844C37.2934 7.49594 35.8106 7.49594 34.3433 7.66844C34.0641 7.70478 33.7957 7.79861 33.5554 7.94387C33.3151 8.08912 33.1083 8.28258 32.9483 8.51178C30.072 9.10137 27.4008 10.4226 25.1983 12.3451C21.6861 15.4215 19.2678 19.5341 18.3008 24.0751C17.4113 28.5734 18.1069 33.2374 20.2715 37.29C22.4362 41.3425 25.9392 44.539 30.197 46.3468ZM26.9033 15.6801C29.9374 13.0821 33.7813 11.5936 37.792 11.4634C40.4584 11.6322 43.0624 12.3341 45.4468 13.5267C47.8312 14.7192 49.9464 16.3777 51.6645 18.4018C53.8875 20.9298 55.2728 24.0717 55.6331 27.4034C55.9935 30.735 55.3116 34.0958 53.6795 37.0318C51.7678 40.088 48.8881 42.4331 45.4889 43.7019C42.0898 44.9707 38.3619 45.092 34.8858 44.0468C31.1288 43.1845 27.7807 41.0822 25.393 38.0861C23.0052 35.0899 21.7202 31.3786 21.7495 27.5634C21.9327 23.1104 23.7674 18.88 26.9033 15.6801Z"
              fill="black"/>
        <path d="M56.6247 50.7925C56.0273 50.8689 55.4774 51.1545 55.0747 51.5975C52.8425 52.1104 50.7686 53.1493 49.0297 54.6259C44.1578 53.4943 39.1337 53.1448 34.1497 53.5909C28.5535 53.3201 22.9971 54.651 18.1459 57.4242C13.8187 60.4652 10.1987 64.3861 7.52844 68.9242C4.35427 73.0514 2.24002 77.879 1.36719 82.9925C1.36719 85.4459 5.24219 85.4459 5.24219 82.9925C5.50994 80.9901 6.23911 79.0753 7.37344 77.3959C8.53594 75.3642 9.65969 73.2559 10.8609 71.2242C13.2464 66.9539 16.619 63.3022 20.7034 60.5675C25.044 58.2368 29.9551 57.1483 34.8859 57.4242C38.6649 57.2089 42.4562 57.3759 46.2009 57.9225C44.9101 59.8612 43.9907 62.0182 43.4884 64.2859C42.7445 68.0152 43.311 71.8841 45.094 75.2514C46.877 78.6187 49.7695 81.2823 53.2922 82.8009C56.623 84.4487 60.4027 84.9882 64.0685 84.3389C67.7343 83.6896 71.09 81.8863 73.6359 79.1975C75.8873 76.6593 77.2835 73.4904 77.6308 70.1311C77.978 66.7718 77.2589 63.389 75.5734 60.4525C73.7157 57.1859 70.9306 54.5298 67.5627 52.8129C64.1948 51.0959 60.392 50.3935 56.6247 50.7925ZM72.1247 74.6742C70.6198 77.092 68.3452 78.9464 65.6586 79.9456C62.9719 80.9449 60.0258 81.0323 57.2834 80.1942C54.3405 79.4983 51.7244 77.8327 49.8653 75.471C48.0061 73.1094 47.0145 70.1923 47.0534 67.1992C47.1682 63.7564 48.5456 60.4726 50.9284 57.9609C53.3153 55.9055 56.3316 54.7039 59.4922 54.5492C61.6012 54.6932 63.6593 55.2562 65.5434 56.2047C67.4276 57.1531 69.0992 58.4674 70.4584 60.0692C72.2087 62.045 73.3063 64.503 73.6042 67.1135C73.902 69.724 73.3857 72.3622 72.1247 74.6742Z"
              fill="black"/>
        <path d="M62.0112 73.4467C61.862 73.289 61.6756 73.1705 61.4687 73.1017C61.2661 73.0442 61.0513 73.0442 60.8487 73.1017H60.4612C60.1882 73.1888 59.9372 73.3326 59.7249 73.5234L59.4924 73.8301C59.3396 74.0854 59.2593 74.3767 59.2599 74.6734V75.2484C59.2024 75.4619 59.2024 75.6866 59.2599 75.9001C59.3105 76.0931 59.4185 76.2667 59.5699 76.3984C59.7257 76.548 59.9102 76.6653 60.1124 76.7434C60.315 76.8009 60.5299 76.8009 60.7324 76.7434H61.1587C61.4355 76.6651 61.6885 76.5203 61.8949 76.3217L62.1274 76.0151C62.2803 75.7598 62.3606 75.4684 62.3599 75.1717V74.5967C62.4039 74.3946 62.4039 74.1855 62.3599 73.9834C62.2904 73.7787 62.1706 73.5943 62.0112 73.4467Z"
              fill="black"/>
        <path d="M64.3747 58.6896C63.6197 58.3063 62.7822 58.109 61.9335 58.1146C60.4774 57.985 59.0102 58.1681 57.6322 58.6513C56.5983 58.9266 55.6737 59.5069 54.9814 60.3149C54.2892 61.123 53.8622 62.1205 53.7572 63.1746C53.752 63.4277 53.7985 63.6793 53.894 63.9142C53.9895 64.1491 54.132 64.3625 54.313 64.5415C54.4939 64.7205 54.7096 64.8615 54.9471 64.956C55.1845 65.0505 55.4389 65.0965 55.6947 65.0913C56.1864 65.0832 56.6573 64.8942 57.0156 64.561C57.3739 64.2278 57.5937 63.7745 57.6322 63.2896C57.6471 63.2266 57.6471 63.161 57.6322 63.0979C57.6322 63.0979 57.6322 62.9063 57.6322 62.8679C57.3997 63.1363 57.6322 63.1746 57.6322 62.8679C57.8647 62.5996 57.6322 62.8679 57.8647 62.6763L58.2135 62.4846L58.9885 62.2546H59.4535C59.9945 62.1981 60.54 62.1981 61.081 62.2546H61.7785L62.166 62.5996C62.166 62.5996 62.166 62.8679 62.166 62.9829L61.7785 63.3279H61.546L61.0422 63.6729C59.9795 64.4069 59.1576 65.4332 58.6785 66.6246C58.3996 67.5826 58.2946 68.582 58.3685 69.5763C58.3685 70.0846 58.5726 70.5721 58.936 70.9316C59.2993 71.291 59.7921 71.4929 60.306 71.4929C60.8198 71.4929 61.3127 71.291 61.676 70.9316C62.0394 70.5721 62.2435 70.0846 62.2435 69.5763C62.2435 69.1163 62.2435 68.6563 62.2435 68.1963C62.2267 68.1205 62.2267 68.042 62.2435 67.9663L62.476 67.6596L62.9022 67.1996H63.096L63.8322 66.6629C64.7848 66.0298 65.4945 65.0983 65.8472 64.0179C66.1058 62.9367 65.9828 61.8005 65.4985 60.7979C65.2872 60.0212 64.9032 59.3009 64.3747 58.6896Z"
              fill="black"/>
    </g>
    <defs>
        <clipPath id="clip0_33_2467">
            <rect width="77" height="92" fill="white" transform="translate(0.894531)"/>
        </clipPath>
    </defs>
</svg>