<svg width="106" height="106" viewBox="0 0 106 106" fill="none" xmlns="http://www.w3.org/2000/svg">
    <path d="M94.9369 55.5018C94.8753 56.4965 94.7933 57.5014 94.6703 58.496C94.66 58.6088 94.6395 58.7318 94.6292 58.8446C94.5882 59.1522 94.701 58.3217 94.6395 58.7933C94.6087 59.0292 94.5677 59.2548 94.537 59.4906C94.4549 60.0033 94.3626 60.5058 94.2703 61.0184C93.9115 62.8847 93.4193 64.7304 92.8246 66.535C92.5272 67.4271 92.1991 68.309 91.8504 69.1806C91.8094 69.2831 91.7684 69.3959 91.7171 69.4984C91.5428 69.9291 91.8607 69.1703 91.7376 69.4472C91.6556 69.6317 91.5736 69.8266 91.4915 70.0111C91.2865 70.4725 91.0814 70.9237 90.8558 71.3749C90.0457 73.0463 89.1229 74.6664 88.1078 76.225C87.5951 77.0248 87.0516 77.7938 86.4774 78.5629C86.3441 78.7372 86.221 78.932 86.0672 79.1063C86.4671 78.6552 85.9647 79.2294 85.8827 79.3319C85.575 79.7216 85.2572 80.101 84.9393 80.4804C83.7396 81.8851 82.4578 83.2079 81.0941 84.4589C80.4071 85.0844 79.7098 85.6791 78.992 86.2636C78.8177 86.4071 78.6331 86.5404 78.4588 86.684C78.223 86.8685 78.869 86.3764 78.4998 86.6532C78.4076 86.725 78.3153 86.7865 78.2332 86.8583C77.8539 87.1454 77.4745 87.4223 77.0848 87.6991C75.5467 88.7758 73.9471 89.7601 72.286 90.642C71.4657 91.0829 70.6248 91.4931 69.7738 91.8724C69.5687 91.9647 69.3534 92.057 69.1483 92.1493C69.1073 92.1698 68.6869 92.3339 69.015 92.2108C69.3431 92.0878 68.9124 92.2518 68.8817 92.2621C68.4203 92.4569 67.9486 92.6415 67.4769 92.8158C65.703 93.4721 63.8778 94.0155 62.0321 94.4462C61.0785 94.6718 60.1043 94.8563 59.1405 95.0101C58.9046 95.0512 58.6791 95.0819 58.4432 95.1127C58.3509 95.1229 58.2586 95.1332 58.1664 95.1537C58.6996 95.0614 58.3509 95.1332 58.2176 95.1434C57.7254 95.205 57.223 95.2562 56.7308 95.3075C54.7108 95.4921 52.6703 95.5433 50.64 95.4613C49.6043 95.4203 48.5789 95.3383 47.5536 95.2255C47.3075 95.1947 47.0614 95.164 46.805 95.1332C46.2923 95.0717 47.2664 95.205 46.7538 95.1229C46.6512 95.1127 46.5589 95.0922 46.4564 95.0819C45.9129 94.9999 45.3797 94.9076 44.8465 94.8153C42.8675 94.4462 40.9193 93.9437 39.0223 93.308C38.0584 92.9901 37.1048 92.6312 36.1615 92.2416C36.0692 92.2006 35.9872 92.1596 35.8949 92.1288C36.4178 92.3236 35.9564 92.1493 35.8539 92.1083C35.6283 92.016 35.4129 91.9135 35.1976 91.8109C34.7567 91.6161 34.326 91.411 33.8954 91.1957C32.0907 90.3036 30.3578 89.2987 28.6864 88.1708C28.307 87.9144 27.9378 87.6581 27.5687 87.3915C27.3739 87.2479 27.179 87.1146 26.9945 86.9711C26.9022 86.8993 26.7997 86.8275 26.7074 86.7558C26.5023 86.6019 26.41 86.5507 26.6663 86.725C25.8563 86.1713 25.0975 85.4638 24.3695 84.8075C22.9134 83.5155 21.5496 82.121 20.2782 80.6444C19.9705 80.2855 19.6629 79.9164 19.3656 79.5473C19.2118 79.3627 19.0682 79.1781 18.9247 78.9935C18.6273 78.6244 19.1195 79.2601 18.9349 79.014C18.8324 78.8807 18.7298 78.7474 18.6375 78.6141C18.0531 77.8348 17.4891 77.035 16.9662 76.2147C15.8792 74.5536 14.9154 72.8104 14.0643 71.016C13.8592 70.5853 13.6644 70.1444 13.4696 69.7035C13.4286 69.6215 13.3978 69.5189 13.3568 69.4369C13.5824 69.8778 13.4183 69.5805 13.367 69.4574C13.2645 69.2113 13.162 68.9652 13.0697 68.7191C12.68 67.7245 11.6751 66.9247 10.5472 67.2836C9.58334 67.5912 8.69125 68.7396 9.11166 69.806C12.1571 77.6093 17.2122 84.5512 23.8568 89.7089C30.6961 95.0101 38.7762 98.3016 47.369 99.2963C55.6747 100.25 64.1444 98.8451 71.763 95.4306C79.0125 92.1801 85.2777 86.9916 90.015 80.6444C94.8446 74.1742 97.7874 66.4838 98.7718 58.496C98.8949 57.5014 98.9769 56.5067 99.0384 55.5018C99.0999 54.4252 98.054 53.3998 96.9876 53.4511C95.8289 53.5023 95.0086 54.3432 94.9369 55.5018Z"
          fill="black"/>
    <path d="M95.9313 36.0713C92.8346 28.2886 87.7794 21.398 81.1452 16.2608C74.2853 10.9492 66.1642 7.65775 57.5407 6.69388C49.2555 5.76077 40.8166 7.18607 33.2184 10.6006C25.9997 13.8511 19.755 19.0293 15.028 25.356C10.1984 31.8262 7.25552 39.5064 6.27114 47.4942C6.14809 48.4888 6.06606 49.4834 6.00454 50.4883C5.94302 51.565 6.98892 52.5904 8.05532 52.5391C9.21401 52.4878 10.0446 51.6367 10.1061 50.4883C10.1676 49.4937 10.2497 48.4888 10.3727 47.4942C10.383 47.4224 10.383 47.2891 10.4035 47.2173C10.2291 47.6992 10.383 47.3814 10.4035 47.1968C10.4342 46.961 10.4752 46.7354 10.506 46.4995C10.588 46.0176 10.6701 45.5254 10.7624 45.0435C11.1315 43.1568 11.6134 41.2803 12.2287 39.4551C12.5158 38.5835 12.8336 37.7222 13.1823 36.8711C13.2438 36.7173 13.4489 36.0406 13.2951 36.6045C13.3566 36.3892 13.4796 36.1841 13.5719 35.979C13.777 35.5176 13.9821 35.0664 14.2077 34.6153C15.0177 32.9439 15.9406 31.3238 16.9557 29.7652C17.4684 28.9756 18.0119 28.1963 18.5861 27.4375C18.7091 27.2735 18.8322 27.1197 18.9552 26.9556C19.1295 26.7198 18.6374 27.3555 18.9245 26.9966C18.9962 26.9043 19.068 26.8223 19.1295 26.73C19.4269 26.3609 19.7243 25.9917 20.0319 25.6328C21.2316 24.2281 22.5133 22.895 23.8668 21.6441C24.5641 21.0083 25.2819 20.3828 26.0202 19.7881C26.1945 19.6446 26.3688 19.5113 26.5534 19.3677C26.8302 19.1421 26.4918 19.4087 26.4611 19.4395C26.5534 19.3472 26.6764 19.2754 26.779 19.1934C27.1583 18.9063 27.5377 18.6294 27.9274 18.3526C29.4655 17.2657 31.0651 16.2813 32.7262 15.3994C33.526 14.9688 34.3463 14.5689 35.1769 14.1997C35.382 14.1075 35.5973 14.0152 35.8024 13.9229C35.9254 13.8716 36.0485 13.7998 36.1818 13.7588C36.1408 13.7691 35.7409 13.9434 36.069 13.8101C36.5407 13.6255 37.0021 13.4307 37.4738 13.2564C39.2477 12.5899 41.0626 12.0464 42.9083 11.6158C43.862 11.3902 44.8258 11.2056 45.8 11.0415C46.005 11.0108 46.2204 10.9698 46.4254 10.939C46.5382 10.9185 46.6613 10.9082 46.7741 10.8877C47.2458 10.8159 46.4049 10.9287 46.7228 10.898C47.215 10.8365 47.7072 10.7749 48.2096 10.7339C50.2091 10.5391 52.2189 10.4878 54.2184 10.5596C55.2848 10.6006 56.341 10.6724 57.3971 10.7954C57.6432 10.8262 57.8996 10.8467 58.1457 10.8877C58.2482 10.898 58.3405 10.9082 58.443 10.9287C57.8688 10.8365 58.3815 10.9185 58.4943 10.939C59.007 11.0108 59.5299 11.1031 60.0426 11.1953C62.0524 11.5645 64.0314 12.0669 65.9694 12.7027C66.8922 13.0103 67.8048 13.3384 68.7072 13.7076C68.8405 13.7588 68.984 13.8101 69.1071 13.8716C68.6867 13.6563 68.9123 13.7896 69.0148 13.8306C69.2404 13.9229 69.4557 14.0254 69.6813 14.1177C70.1632 14.333 70.6452 14.5586 71.1168 14.7945C72.8805 15.666 74.5929 16.6504 76.2233 17.7373C76.6232 18.0039 77.0128 18.2705 77.4025 18.5576C77.5973 18.7012 77.7921 18.8345 77.9767 18.9781C78.0485 19.0396 78.1305 19.0908 78.2023 19.1524C78.2946 19.2242 78.8278 19.6035 78.3561 19.2652C79.1251 19.8189 79.8429 20.4649 80.5607 21.0904C82.027 22.3824 83.401 23.7769 84.6828 25.2432C85.0006 25.6021 85.298 25.9712 85.6056 26.3404C85.7594 26.5249 85.903 26.7095 86.0568 26.8941C86.1183 26.9761 86.4362 27.3555 86.0875 26.9351C86.1798 27.0479 86.2619 27.1607 86.3439 27.2735C86.9284 28.0528 87.4923 28.8526 88.0358 29.6729C89.1227 31.334 90.1071 33.0772 90.9684 34.8716C91.1735 35.3023 91.3786 35.7432 91.5734 36.1841C91.6144 36.2764 91.6554 36.3584 91.6862 36.4507C91.881 36.8916 91.5631 36.1431 91.6759 36.4302C91.7785 36.6763 91.881 36.9224 91.9733 37.1685C92.3732 38.1631 93.3576 38.9629 94.4958 38.604C95.4596 38.2862 96.3517 37.1377 95.9313 36.0713Z"
          fill="black"/>
    <path d="M21.3242 73.0455C18.5864 71.3125 15.8383 69.5796 13.1005 67.8467C12.7109 67.6006 12.3212 67.3545 11.9316 67.1084C10.7421 66.3599 9.33734 67.1392 8.91693 68.3389C7.80951 71.4766 6.71234 74.604 5.60492 77.7417C5.45111 78.1929 5.28705 78.6441 5.13324 79.0953C4.77435 80.1104 5.53314 81.3819 6.56878 81.6177C7.71722 81.8741 8.71185 81.2691 9.09124 80.1822C10.1987 77.0445 11.2958 73.917 12.4033 70.7793C12.5571 70.3282 12.7211 69.877 12.8749 69.4258C11.8701 69.836 10.8652 70.2461 9.86029 70.6563C12.5981 72.3892 15.3461 74.1221 18.0839 75.855C18.4736 76.1011 18.8632 76.3472 19.2529 76.5933C20.1655 77.1675 21.5497 76.8086 22.0624 75.855C22.5956 74.8399 22.2983 73.6504 21.3242 73.0455Z"
          fill="black"/>
    <path d="M83.8211 32.554C86.5384 34.4612 89.266 36.3582 91.9832 38.2654C92.3729 38.5423 92.7625 38.8089 93.1522 39.0857C93.6751 39.4549 94.4134 39.4241 94.9774 39.1883C95.6029 38.9217 95.9207 38.4807 96.1668 37.8553C97.3973 34.7586 98.638 31.6516 99.8685 28.555C100.043 28.114 100.217 27.6731 100.391 27.2322C100.791 26.2376 99.9608 24.9353 98.9559 24.7098C97.7767 24.4432 96.8641 25.0686 96.4334 26.1453C95.203 29.242 93.9622 32.3489 92.7318 35.4456C92.5575 35.8865 92.3832 36.3274 92.2088 36.7683C93.2137 36.3582 94.2186 35.948 95.2235 35.5379C92.5062 33.6307 89.7787 31.7337 87.0614 29.8265C86.6717 29.5496 86.2821 29.283 85.8924 29.0061C85.0106 28.3909 83.575 28.8216 83.0829 29.7444C82.5291 30.8006 82.8778 31.8977 83.8211 32.554Z"
          fill="black"/>
    <path d="M37.3 62.9978C37.6077 65.8689 38.7048 68.5144 40.7864 70.5652C42.4783 72.2263 44.5803 73.3645 46.7952 74.154C48.3743 74.718 50.0046 75.0564 51.6658 75.2614C53.4602 75.487 55.3367 75.2614 57.1003 74.9128C59.5613 74.4206 61.9607 73.3235 63.7654 71.5598C65.1189 70.2473 66.0828 68.5656 66.6365 66.7712C67.4568 64.0847 67.3645 61.0085 65.9392 58.5476C63.6833 54.6716 59.0281 52.6106 54.8752 51.4621C53.573 51.1032 52.2297 50.8879 50.948 50.4572C50.5994 50.3445 50.1687 50.2419 49.8611 50.0471C50.3225 50.3239 49.8713 50.0471 49.7175 49.9753C49.5329 49.8933 49.3586 49.801 49.1741 49.7087C48.5691 49.3908 47.9744 49.0422 47.4206 48.6423C47.2976 48.55 47.1746 48.4475 47.0515 48.3654C47.072 48.3757 47.4514 48.6833 47.1951 48.4782C47.1335 48.427 47.0823 48.386 47.0207 48.3347C46.7849 48.1399 46.5593 47.9348 46.3337 47.7297C45.9441 47.3606 45.5749 46.9607 45.2263 46.5403C45.1135 46.4069 44.8674 46.0378 45.2673 46.6018C45.2058 46.5095 45.1238 46.4172 45.0622 46.3249C44.9289 46.1506 44.8059 45.966 44.6931 45.7815C44.4675 45.4431 44.2624 45.0842 44.0779 44.7253C44.0061 44.592 43.9446 44.4485 43.8728 44.3152C43.842 44.2434 43.8113 44.1819 43.7805 44.1101C43.6472 43.823 44.0061 44.6843 43.883 44.3459C43.8113 44.1511 43.7292 43.9563 43.6677 43.7512C43.4729 43.1462 43.3704 42.5105 43.2678 41.8747C43.2063 41.5261 43.2883 42.008 43.2883 42.049C43.2883 41.9773 43.2678 41.885 43.2576 41.8029C43.2371 41.6389 43.2268 41.4851 43.2165 41.321C43.196 40.9826 43.1858 40.634 43.1858 40.2956C43.1858 40.029 43.2063 39.7624 43.2268 39.4958C43.2371 39.4138 43.2986 38.8908 43.2473 39.3112C43.196 39.7214 43.2678 39.1882 43.2883 39.0959C43.3806 38.5935 43.5344 38.1013 43.7087 37.6194C43.8625 37.2092 43.4831 38.091 43.678 37.7014C43.7292 37.5988 43.7805 37.4963 43.8318 37.3938C43.9446 37.1784 44.0574 36.9734 44.1907 36.7683C44.3137 36.5837 44.4573 36.4094 44.5701 36.2248C44.5803 36.2146 44.2112 36.6657 44.3957 36.4504C44.4265 36.4094 44.4675 36.3684 44.4983 36.3274C44.5803 36.2351 44.6521 36.1428 44.7341 36.0505C45.0315 35.7326 45.3596 35.4455 45.698 35.1584C45.9338 34.9636 45.2263 35.4968 45.5955 35.2404C45.6672 35.1892 45.739 35.1379 45.821 35.0866C46.0056 34.9636 46.1902 34.8405 46.3747 34.7277C46.7336 34.5124 47.1028 34.3176 47.4822 34.1433C47.5745 34.1023 47.6667 34.0612 47.759 34.0202C48.1179 33.8562 47.2361 34.2253 47.6052 34.0818C47.8 34.01 47.9846 33.9279 48.1794 33.8664C48.5383 33.7434 48.9075 33.6203 49.2766 33.528C49.9123 33.3537 50.5481 33.2204 51.1941 33.1179C51.2659 33.1076 51.3274 33.0974 51.3992 33.0871C51.7786 33.0256 51.1223 33.0974 51.1018 33.1281C51.1326 33.0871 51.4197 33.0871 51.4812 33.0871C51.676 33.0666 51.8708 33.0461 52.0759 33.0359C52.3528 33.0153 52.6091 33.0153 52.8757 33.0256C53.2961 33.0461 53.7063 33.0769 54.1164 33.1281C54.2087 33.1384 54.3113 33.1589 54.4138 33.1692C54.3625 33.1692 53.9319 33.0974 54.301 33.1589C54.4856 33.1897 54.6702 33.2204 54.8547 33.2512C55.5623 33.3845 56.2595 33.5691 56.9465 33.8049C57.0696 33.8459 57.2029 33.8972 57.3259 33.9485C57.7873 34.1228 56.9158 33.7536 57.3464 33.9587C57.613 34.0818 57.8899 34.2151 58.1462 34.3586C58.3718 34.4919 58.5974 34.6252 58.823 34.7688L59.1306 34.9841C59.3767 35.1482 58.6999 34.6252 59.1101 34.9738C59.469 35.2712 59.8074 35.5993 60.1047 35.9582C60.1765 36.0402 60.238 36.1325 60.3098 36.2043C60.3201 36.2146 59.9714 35.7429 60.1355 35.9787C60.1663 36.0197 60.197 36.0608 60.2278 36.1018C60.3508 36.2761 60.4636 36.4504 60.5764 36.6247C60.7712 36.9528 60.9148 37.2912 61.0891 37.6296C61.1096 37.6706 60.8635 37.0656 60.9558 37.3117C60.9661 37.3528 60.9866 37.3938 60.9968 37.4245C61.0173 37.4963 61.0481 37.5578 61.0686 37.6296C61.1199 37.7834 61.1711 37.9372 61.2224 38.1013C61.3044 38.3679 61.366 38.6447 61.4172 38.9113C61.4377 39.0241 61.448 39.1369 61.4685 39.2497C61.3557 38.6242 61.407 38.737 61.4377 39.0446C61.4582 39.2292 61.4685 39.4035 61.4582 39.5881C61.4275 40.6648 62.4221 41.6902 63.509 41.6389C64.6472 41.5876 65.5188 40.7365 65.5598 39.5881C65.6418 36.9426 64.2473 34.1228 62.3401 32.3694C60.1868 30.3801 57.4182 29.4572 54.5574 29.0778C53.4089 28.924 52.3733 28.8728 51.2351 29.0163C47.8308 29.4367 44.2829 30.5647 41.8733 33.1384C40.1916 34.9328 39.3201 37.1887 39.1252 39.6291C39.0124 41.0749 39.197 42.5617 39.5046 43.9768C39.5867 44.3664 39.6789 44.7356 39.8122 45.1047C41.4426 49.6369 45.3083 52.8772 49.7996 54.405C51.1018 54.8459 52.4553 55.0612 53.7678 55.4304C54.5984 55.656 55.4187 55.9226 56.2185 56.2302C56.4441 56.3122 56.6697 56.4045 56.8953 56.4968C57.3362 56.6711 56.5876 56.3635 56.8337 56.466C56.967 56.5276 57.0901 56.5788 57.2234 56.6403C57.7156 56.8659 58.1872 57.1018 58.6589 57.3581C59.1204 57.6145 59.5715 57.8913 60.0124 58.1887C60.1252 58.2605 60.2278 58.3425 60.3406 58.4143C60.3918 58.4553 60.4431 58.4963 60.5046 58.5271C60.761 58.7116 60.3303 58.3938 60.3303 58.3835C60.4739 58.5988 60.8123 58.7834 61.0071 58.9577C61.3967 59.3064 61.7043 59.737 62.0735 60.0959C61.6428 59.6858 61.9197 59.8908 62.0427 60.0652C62.1145 60.1677 62.1863 60.2805 62.258 60.383C62.4016 60.6086 62.5349 60.8547 62.658 61.1008C62.6887 61.1623 62.7092 61.2238 62.74 61.2751C62.8528 61.4904 62.5657 60.8239 62.6477 61.0495C62.6887 61.1726 62.74 61.2956 62.781 61.4187C62.8733 61.6853 62.9451 61.9519 62.9963 62.2287C63.0373 62.4235 63.0373 62.8542 63.0066 62.1877C63.0168 62.321 63.0373 62.4646 63.0476 62.5979C63.0579 62.7414 63.0579 62.885 63.0579 63.0285C63.0681 63.2336 63.0681 63.4387 63.0579 63.6438C63.0476 63.8488 63.0373 64.0539 63.0168 64.259C62.9861 64.5666 62.9348 64.7614 63.0373 64.1154C63.0168 64.259 62.9963 64.3923 62.9656 64.5359C62.8425 65.1819 62.6579 65.7971 62.4324 66.4123C62.2888 66.802 62.6169 66.0124 62.5144 66.2277C62.4836 66.2995 62.4529 66.3713 62.4119 66.4431C62.3298 66.6174 62.2375 66.802 62.1453 66.9763C61.9504 67.3352 61.7248 67.6735 61.489 68.0017C61.2634 68.3298 61.8376 67.5915 61.571 67.8889C61.4993 67.9709 61.4377 68.0529 61.366 68.135C61.2122 68.3093 61.0583 68.4734 60.8943 68.6374C60.7302 68.8015 60.5662 68.945 60.3918 69.0988C60.2996 69.1706 60.197 69.2424 60.115 69.3244C60.115 69.3244 60.5662 68.9963 60.3201 69.1706C60.2585 69.2116 60.197 69.2629 60.1355 69.3039C59.7048 69.6115 59.2434 69.8781 58.7615 70.114C58.6384 70.1755 58.5154 70.2268 58.3821 70.2883C58.0847 70.4318 58.864 70.0935 58.3821 70.2883C58.1052 70.4011 57.8181 70.4934 57.531 70.5857C56.885 70.7907 56.2185 70.9445 55.552 71.0573C55.4597 71.0676 55.3777 71.0881 55.2854 71.0984C55.2649 71.0984 55.2444 71.1086 55.2239 71.1086C55.0393 71.1394 55.0496 71.1394 55.2239 71.1086C55.2649 71.0984 55.3162 71.0984 55.3572 71.0881C55.2854 71.0984 55.2239 71.1086 55.1521 71.1086C55.0598 71.1189 54.9675 71.1291 54.8752 71.1394C54.4548 71.1804 54.0447 71.2111 53.6243 71.2317C53.1013 71.2522 52.5989 71.2727 52.0759 71.2214C51.9734 71.2111 51.8811 71.2009 51.7786 71.1906C51.2864 71.1394 52.3528 71.2727 51.9119 71.2111C51.594 71.1599 51.2659 71.1086 50.948 71.0471C50.1482 70.8933 49.3689 70.6985 48.5896 70.4524C48.1384 70.3088 47.6872 70.155 47.2463 69.9704C47.0823 69.9089 46.7029 69.7038 47.3181 70.0012C47.2053 69.9499 47.0925 69.8987 46.9797 69.8576C46.7439 69.7448 46.508 69.632 46.2722 69.509C45.8108 69.2629 45.3596 68.9963 44.9187 68.7092C44.8162 68.6374 44.7034 68.5656 44.6008 68.4836C44.529 68.4323 44.1907 68.176 44.4983 68.4118C44.8162 68.6579 44.4163 68.3503 44.365 68.299C44.2522 68.2068 44.1394 68.1042 44.0266 68.0119C43.6164 67.6428 43.2473 67.2429 42.8884 66.8122C42.5911 66.4636 43.1653 67.2019 42.8987 66.8225C42.8166 66.7097 42.7449 66.5969 42.6628 66.4841C42.4988 66.238 42.345 65.9817 42.2117 65.7151C42.1399 65.592 42.0784 65.4587 42.0168 65.3357C41.9348 65.1613 41.8425 64.7409 42.0066 65.3254C41.9246 65.0383 41.7913 64.7614 41.7092 64.4743C41.6272 64.1975 41.5554 63.9104 41.4939 63.6233C41.4631 63.4694 41.4324 63.3054 41.4016 63.1413C41.3196 62.6696 41.4529 63.613 41.3811 63.008C41.2683 61.9416 40.5198 60.906 39.3303 60.9572C38.3357 60.988 37.177 61.8493 37.3 62.9978Z"
          fill="black"/>
    <path d="M50.4764 24.0526C50.4662 25.9804 50.4559 27.9081 50.4457 29.8461C50.4251 34.4398 50.3944 39.0438 50.3739 43.6376C50.3431 49.2362 50.3124 54.8246 50.2816 60.4232C50.2611 65.2323 50.2303 70.0311 50.2098 74.8402C50.1996 77.1884 50.1278 79.5365 50.1688 81.8847V81.9769C50.1585 83.0536 51.1122 84.079 52.2196 84.0277C53.3373 83.9765 54.2601 83.1254 54.2704 81.9769C54.2806 80.0492 54.2909 78.1215 54.3011 76.1835C54.3216 71.5897 54.3524 66.9857 54.3729 62.392C54.4037 56.7933 54.4344 51.205 54.4652 45.6063C54.4857 40.7973 54.5165 35.9984 54.537 31.1893C54.5472 28.8412 54.619 26.4931 54.578 24.1449C54.578 24.1142 54.578 24.0834 54.578 24.0526C54.5882 22.976 53.6346 21.9506 52.5272 22.0018C51.4095 22.0531 50.4867 22.9042 50.4764 24.0526Z"
          fill="black"/>
</svg>