<svg width="83" height="83" viewBox="0 0 83 83" fill="none" xmlns="http://www.w3.org/2000/svg">
    <path d="M5.43848 40.9903C5.43848 40.0778 5.46924 39.1754 5.53076 38.2628C5.56152 37.8424 5.59228 37.4117 5.64355 36.9913C5.66406 36.8068 5.68457 36.6119 5.70508 36.4274C5.71533 36.3146 5.73584 36.1915 5.74609 36.0787C5.77685 35.8019 5.64355 36.776 5.72559 36.2018C5.97168 34.4791 6.33057 32.777 6.8125 31.1056C7.03808 30.316 7.29443 29.5265 7.57129 28.7472C7.70459 28.3575 7.84814 27.9781 8.00195 27.5987C8.08398 27.3834 8.17627 27.1783 8.2583 26.963C8.31982 26.8092 8.46338 26.5426 8.15576 27.1988C8.21728 27.0758 8.26855 26.9528 8.31982 26.8195C8.99658 25.2916 9.76562 23.8048 10.627 22.3795C11.0679 21.6515 11.5395 20.9337 12.0215 20.2364C12.2573 19.9083 12.4932 19.5802 12.729 19.2521C12.852 19.088 13.252 18.6061 12.7393 19.2418C12.8828 19.0675 13.0161 18.8932 13.1597 18.7189C14.2158 17.4166 15.3437 16.1759 16.564 15.0172C17.1587 14.443 17.7739 13.8893 18.4097 13.3561C18.7173 13.0997 19.0352 12.8434 19.3428 12.5973C19.4145 12.546 19.4863 12.4845 19.5581 12.4332C18.9839 12.9049 19.271 12.6588 19.4146 12.546C19.6094 12.4025 19.8042 12.2486 20.0093 12.1051C21.3525 11.131 22.7573 10.2389 24.2236 9.43908C24.9619 9.03918 25.7002 8.65978 26.459 8.31115C26.6436 8.22912 26.8281 8.13683 27.0127 8.0548C27.1255 8.00353 27.7817 7.72668 27.3306 7.91125C26.8794 8.09582 27.5459 7.82921 27.6587 7.77794C27.874 7.69591 28.0791 7.61388 28.2944 7.53185C29.9043 6.91662 31.5552 6.41417 33.2266 6.02453C34.0674 5.8297 34.9082 5.66564 35.7593 5.52209C35.9644 5.49132 36.1797 5.46056 36.3848 5.4298C36.4976 5.40929 36.6206 5.39904 36.7334 5.37853C36.7129 5.37853 36.0464 5.47082 36.4668 5.41955C36.9077 5.36828 37.3589 5.31701 37.7998 5.27599C39.625 5.11193 41.4604 5.07091 43.2959 5.17345C44.229 5.22472 45.1519 5.2965 46.0747 5.41955C46.2593 5.44005 46.6489 5.52209 45.9106 5.39904C46.0132 5.41955 46.1055 5.4298 46.208 5.44005C46.4028 5.47082 46.5977 5.50158 46.7925 5.53234C47.2847 5.61437 47.7666 5.6964 48.2485 5.79894C50.0225 6.15783 51.7656 6.63976 53.4678 7.24474C53.8779 7.3883 54.2881 7.54211 54.688 7.70617C54.8931 7.7882 55.0879 7.87023 55.293 7.95226C55.6211 8.08556 54.6777 7.68566 55.1494 7.89074C55.2827 7.95226 55.416 8.00353 55.5493 8.06505C56.3594 8.42394 57.1592 8.81359 57.9487 9.22375C59.5278 10.0646 61.0557 11.0079 62.5015 12.0538C62.6553 12.1666 62.8091 12.2794 62.9629 12.3922C63.0552 12.464 63.6396 12.9049 63.2705 12.628C62.9014 12.3512 63.4756 12.7921 63.5679 12.8741C63.7524 13.0279 63.937 13.1715 64.1216 13.3253C64.8188 13.8995 65.4854 14.5045 66.1313 15.13C67.3926 16.3502 68.582 17.6525 69.6689 19.0265C69.7305 19.0983 69.7817 19.1803 69.8433 19.2521C69.3818 18.6984 69.6382 18.9855 69.751 19.129C69.8843 19.3033 70.0073 19.4674 70.1304 19.6417C70.4072 20.0211 70.6841 20.4108 70.9507 20.8107C71.4326 21.5182 71.8838 22.2462 72.3247 22.9947C72.7861 23.7843 73.2168 24.5841 73.6167 25.4044C73.8115 25.7941 73.9961 26.1837 74.1704 26.5734C74.2524 26.7477 74.3242 26.922 74.4063 27.1066C74.6113 27.5782 74.2114 26.6349 74.3447 26.963C74.396 27.0963 74.4575 27.2296 74.5088 27.3629C75.3496 29.4547 76.0059 31.6285 76.4673 33.8434C76.5801 34.3868 76.6826 34.9405 76.7749 35.484C76.8159 35.7301 76.8467 35.9762 76.8877 36.2223C76.9595 36.694 76.8877 36.1608 76.8672 36.0992C76.9082 36.2736 76.9185 36.4786 76.939 36.6632C77.0723 37.8527 77.1543 39.0626 77.1748 40.2623C77.2056 42.0875 77.1235 43.923 76.8979 45.7379C76.8877 45.8199 76.8262 46.3019 76.8877 45.8199C76.9492 45.3893 76.8979 45.7174 76.8877 45.8302C76.8569 46.0353 76.8262 46.2506 76.7954 46.4557C76.7236 46.9171 76.6416 47.3785 76.5493 47.8297C76.3852 48.65 76.2007 49.4601 75.9853 50.2599C75.5444 51.921 74.9702 53.5309 74.3345 55.1305C74.2114 55.4484 74.6113 54.505 74.4063 54.9562C74.3652 55.0382 74.3345 55.1202 74.2934 55.2023C74.2114 55.3868 74.1294 55.5714 74.0474 55.756C73.8731 56.1456 73.6782 56.5353 73.4937 56.9147C73.1143 57.6837 72.7041 58.4322 72.2632 59.1705C71.8428 59.8883 71.4019 60.5856 70.9302 61.2828C70.7148 61.6007 70.4995 61.9083 70.2739 62.2159C70.1406 62.4005 70.0073 62.5748 69.874 62.7594C69.8228 62.8312 69.7612 62.9029 69.71 62.9747C69.4023 63.3849 70.0996 62.4825 69.7817 62.8824C68.7563 64.1847 67.6592 65.4254 66.48 66.5841C65.875 67.1788 65.2495 67.753 64.6035 68.317C64.2959 68.5836 63.9883 68.84 63.6807 69.0963C63.5371 69.2091 63.4038 69.3219 63.2603 69.4347C63.1987 69.486 62.8398 69.7628 63.1987 69.486C63.5679 69.1988 63.1577 69.5167 63.0859 69.568C61.7427 70.5831 60.3276 71.506 58.8613 72.3263C58.1538 72.7262 57.436 73.1056 56.6978 73.4542C56.3286 73.6285 55.9595 73.8028 55.5903 73.9669C55.416 74.0387 54.6265 74.3566 55.457 74.0284C55.2417 74.1105 55.0366 74.2028 54.8213 74.2848C53.2422 74.9103 51.6323 75.4332 49.9917 75.8434C49.1406 76.0587 48.2793 76.2433 47.4077 76.3971C47.0181 76.4689 46.6284 76.5304 46.2285 76.5919C46.1157 76.6124 45.9927 76.6227 45.8799 76.6432C45.9004 76.6432 46.5669 76.5509 46.1465 76.6022C45.9106 76.6329 45.6748 76.6637 45.4492 76.6842C43.624 76.879 41.7988 76.9405 39.9634 76.879C38.9995 76.8483 38.0356 76.7765 37.082 76.6739C36.8462 76.6534 36.6206 76.6227 36.3848 76.5919C36.0156 76.5509 37.0718 76.6945 36.5283 76.6124C36.4258 76.6022 36.3232 76.5817 36.2207 76.5714C35.7183 76.4996 35.2056 76.4073 34.7031 76.3151C32.8677 75.9664 31.0527 75.4742 29.2891 74.859C28.8687 74.7154 28.438 74.5514 28.0278 74.3873C27.8433 74.3155 27.6587 74.2438 27.4741 74.1617C27.4126 74.131 26.9409 73.9361 27.3613 74.1207C27.7817 74.295 27.269 74.0797 27.187 74.0387C26.3462 73.6695 25.5156 73.2696 24.7056 72.8492C23.0957 71.9982 21.5371 71.0343 20.0605 69.9679C19.8657 69.8243 19.6606 69.6808 19.4658 69.527C19.3838 69.4654 19.312 69.4039 19.23 69.3527C19.7837 69.7628 19.5171 69.5782 19.4043 69.486C19.0249 69.1783 18.6353 68.8707 18.2661 68.5528C17.5688 67.9684 16.9023 67.3531 16.2563 66.7174C15.6103 66.0817 14.9849 65.4254 14.3799 64.7486C14.0825 64.4205 13.7954 64.0821 13.5186 63.7438C13.375 63.5695 13.2417 63.4054 13.0981 63.2311C13.0264 63.1388 12.9443 63.0362 12.8726 62.944C12.5752 62.5748 13.2212 63.4054 12.9136 62.9952C11.8472 61.5699 10.873 60.1036 9.99121 58.5553C9.33496 57.3863 7.63281 56.8942 6.48437 57.6324C5.30518 58.3912 4.854 59.8883 5.56152 61.1393C9.4375 67.9991 15.3232 73.7516 22.3267 77.3815C29.4531 81.0831 37.6665 82.693 45.6543 81.7906C52.9961 80.9601 60.0508 78.2838 65.9365 73.7823C71.8735 69.2501 76.4263 63.3336 79.2871 56.4225C82.4248 48.8448 83.0605 40.3033 81.3584 32.3053C79.6768 24.3893 75.4932 17.0065 69.6484 11.4181C64.0908 6.10656 57.0156 2.34337 49.4585 0.846304C41.9014 -0.640512 33.9238 -0.0868014 26.7256 2.70226C19.9785 5.31701 13.9185 9.6134 9.39648 15.2838C4.80273 21.0465 1.71631 27.8961 0.721679 35.2174C0.455078 37.1451 0.291016 39.0729 0.291016 41.0211C0.291016 42.3644 1.47021 43.6461 2.85449 43.5846C4.25928 43.4923 5.42822 42.4259 5.43848 40.9903Z" fill="black"/>
    <path d="M59.0246 55.0886C57.2301 53.3044 55.4357 51.5099 53.6413 49.7258C50.7907 46.8854 47.9401 44.0451 45.0895 41.2048C44.4333 40.5485 43.7668 39.8923 43.1105 39.236C43.3566 39.841 43.613 40.446 43.859 41.051C43.859 38.9387 43.859 36.8366 43.859 34.7243C43.859 31.3815 43.859 28.0388 43.859 24.696C43.859 23.9167 43.859 23.1374 43.859 22.3683C43.859 21.0251 42.6799 19.7433 41.2956 19.8049C39.9113 19.8664 38.7321 20.9328 38.7321 22.3683V29.8332V40.0973C38.7321 40.3947 38.7218 40.7023 38.7321 40.9997C38.7629 41.779 39.0807 42.466 39.6242 42.9992C40.3317 43.6965 41.029 44.404 41.7365 45.1012C44.3923 47.7468 47.0378 50.382 49.6935 53.0275C51.5597 54.8937 53.4054 56.7804 55.3024 58.6159L55.3947 58.7082C56.3483 59.6515 58.0812 59.7336 59.0246 58.7082C59.9679 57.693 60.0397 56.0934 59.0246 55.0886Z" fill="black"/>
</svg>
