<svg xmlns="http://www.w3.org/2000/svg" width="106" height="106" viewBox="0 0 106 106" fill="none">
    <path d="M49.744 19.1405L53.2303 22.6269C56.0604 25.4569 58.9007 28.2973 61.7308 31.1274C65.3094 34.706 68.8983 38.2948 72.4769 41.8735L82.6283 52.0248C84.8636 54.2602 87.1092 56.5058 89.3446 58.7411C89.7445 59.141 90.1546 59.5409 90.5545 59.9511C90.5648 59.9613 90.575 59.9613 90.575 59.9716C90.6161 60.0229 90.6776 60.0844 90.7289 60.1357C90.9237 60.3202 90.5238 59.7255 90.7084 60.1254C90.7289 60.1664 90.7596 60.2074 90.7801 60.2485C90.8827 60.4535 90.8724 60.4125 90.7494 60.1357C90.8109 60.1562 90.8929 60.6689 90.8929 60.6689C90.8724 60.6791 90.8622 60.1664 90.8724 60.6073C90.8724 60.6381 90.8724 60.956 90.8622 60.956C90.8211 60.956 90.9955 60.433 90.8724 60.8227C90.8416 60.9355 90.8006 61.0483 90.7801 61.1508C90.7083 61.4071 91.0365 60.7509 90.7904 61.1098C90.7699 61.1508 90.7391 61.1918 90.7186 61.2328C90.5956 61.4174 90.6161 61.3969 90.7904 61.1713C90.7494 61.3149 90.411 61.5712 90.2982 61.684C88.1551 63.8271 86.0223 65.9599 83.8792 68.1029C80.3622 71.62 76.8553 75.1269 73.3382 78.644C70.2928 81.6894 67.2577 84.7245 64.2123 87.7699C63.474 88.5082 62.7459 89.2362 62.0077 89.9745C61.9461 90.036 61.8744 90.1078 61.8128 90.1693C61.8026 90.1796 61.7923 90.1899 61.7718 90.2104C61.7308 90.2411 61.6898 90.2924 61.659 90.3129C61.3617 90.6103 61.7308 90.2514 61.7308 90.2616C61.7308 90.2719 61.3924 90.4975 61.3617 90.477C61.4334 90.518 61.7718 90.3334 61.3924 90.4462C61.3617 90.4565 61.0541 90.5385 61.0541 90.5282C61.0438 90.4975 61.5975 90.5077 61.1874 90.4975C61.0951 90.4975 61.0028 90.4975 60.9105 90.4975C60.4696 90.518 61.2386 90.5898 60.9823 90.5077C60.8695 90.477 60.7567 90.4462 60.6439 90.4155C60.3875 90.3539 60.6541 90.3027 60.7464 90.4667C60.7464 90.4565 60.3773 90.2514 60.3773 90.2514C60.4696 90.2206 60.6849 90.5282 60.3978 90.2514C60.3568 90.2206 60.3568 90.2206 60.3465 90.2001C60.3465 90.2001 60.3465 90.2001 60.3363 90.1899C60.326 90.1796 60.3158 90.1693 60.2953 90.1488C58.9007 88.7851 57.537 87.3905 56.1629 86.0165C53.1996 83.0531 50.2362 80.0898 47.2728 77.1264C43.6737 73.5273 40.0848 69.9384 36.4857 66.3393C33.1737 63.0273 29.8617 59.7153 26.5497 56.4032C24.4784 54.332 22.3968 52.2504 20.3255 50.1791C19.9256 49.7792 19.495 49.3793 19.1156 48.9487C19.0643 48.8974 19.013 48.8051 18.9618 48.7641C19.2694 49.0204 19.1771 49.0614 19.0848 48.9076C18.9925 48.7538 18.9105 48.6103 18.8285 48.4565C18.6747 48.1899 18.972 48.9487 18.8592 48.4872C18.8182 48.3027 18.7772 48.1283 18.7362 47.9438C18.6747 47.6772 18.7874 48.518 18.7567 48.1078C18.7567 48.0258 18.7464 47.954 18.7362 47.872C18.7259 47.6567 18.7157 47.4516 18.7054 47.2362C18.6952 46.8261 18.6849 46.4159 18.6849 46.0058C18.6849 45.6161 18.6747 45.2162 18.6747 44.8266C18.6439 39.9457 18.6029 35.0546 18.6131 30.1737C18.6131 29.3842 18.6131 28.5844 18.6336 27.7948C18.6336 27.5898 18.6336 27.3949 18.6439 27.1899C18.6439 27.1488 18.6644 26.872 18.6747 26.872C18.7567 26.8925 18.5824 27.2821 18.6747 26.9643C18.7464 26.7284 18.8285 26.4721 18.89 26.2362C18.9618 25.9696 18.6541 26.6874 18.8592 26.3285C18.9002 26.267 18.931 26.1952 18.9618 26.1235C19.0335 25.9902 19.1156 25.8671 19.1976 25.7441C19.2386 25.6825 19.2899 25.6313 19.3207 25.5697C19.3309 25.5492 18.9515 25.9902 19.1258 25.8158C19.1874 25.7646 19.2386 25.6928 19.2899 25.6313C20.4486 24.4111 21.6791 23.2421 22.8685 22.0527C23.6683 21.2528 24.4681 20.453 25.2679 19.6532C25.5755 19.3456 25.9549 19.038 26.242 18.6996C26.242 18.6996 25.7601 19.0278 26.0062 18.8842C26.0575 18.8534 26.0985 18.8124 26.1498 18.7817C26.2933 18.6894 26.4369 18.5971 26.5907 18.5151C26.6419 18.4945 26.7752 18.4433 26.806 18.4125C26.6214 18.6381 26.4369 18.5356 26.724 18.4535C26.847 18.4125 27.3495 18.1869 27.4725 18.2485C27.4623 18.2382 26.9496 18.2895 27.3905 18.2587C27.5033 18.2485 27.6058 18.2485 27.7186 18.2382H28.0262C28.1595 18.2382 28.2928 18.2279 28.4261 18.2279C29.3182 18.2177 30.2103 18.2177 31.0921 18.2074C35.9012 18.1972 40.7 18.2382 45.5091 18.269C45.9603 18.269 46.4115 18.2792 46.8729 18.2792C47.2933 18.2895 47.7035 18.2895 48.1239 18.31C48.329 18.3202 48.9237 18.474 48.2572 18.2997C48.3905 18.3305 48.5238 18.3407 48.6571 18.3818C48.7391 18.4023 48.8109 18.433 48.8929 18.4535C49.221 18.5356 48.8006 18.5561 48.7289 18.3715C48.7494 18.433 49.0775 18.5561 49.139 18.5868C49.2005 18.6278 49.2928 18.7201 49.3646 18.7406C49.3338 18.7304 48.9749 18.4125 49.221 18.6381C49.4261 18.8432 49.5902 18.9867 49.744 19.1405C50.513 19.8891 51.8871 19.9609 52.6458 19.1405C53.3944 18.3305 53.4662 17.0487 52.6458 16.2387C51.9076 15.5209 51.0975 14.9262 50.1234 14.5981C49.2928 14.311 48.3802 14.2802 47.5189 14.2597C46.9037 14.2494 46.2782 14.2392 45.6629 14.2392C43.4994 14.2187 41.3358 14.2084 39.162 14.1982C36.4754 14.1879 33.7889 14.1674 31.1024 14.1777C28.703 14.1777 26.037 13.9316 23.9759 15.3979C23.453 15.767 23.0326 16.1772 22.5814 16.6283C21.8021 17.4076 21.0331 18.1767 20.2538 18.956C18.9925 20.2172 17.7005 21.4682 16.4496 22.7602C15.1986 24.0624 14.6039 25.7851 14.5628 27.5795C14.5526 28.2768 14.5423 28.974 14.5423 29.6713C14.5321 32.245 14.5423 34.8085 14.5526 37.3822C14.5628 39.7817 14.5833 42.1811 14.5936 44.5805C14.6039 46.6313 14.368 48.9179 15.4037 50.7533C15.8753 51.6044 16.6034 52.2812 17.2801 52.9579C18.0594 53.7372 18.8387 54.5165 19.6283 55.3061L28.0057 63.6835L38.8851 74.5629C42.3509 78.0287 45.8065 81.4843 49.2723 84.9501C51.5794 87.2572 53.8763 89.5541 56.1834 91.8612C56.6039 92.2817 57.014 92.7021 57.4344 93.1122C59.5467 95.1527 62.7459 95.0502 64.807 93.0097C66.8167 91.0102 68.8265 88.9902 70.826 86.9906L81.4901 76.3266L90.8211 66.9955L93.2001 64.6166C93.5282 64.2885 93.8153 63.9706 94.0921 63.581C95.5072 61.5917 95.138 58.8334 93.4872 57.121C92.2977 55.8803 91.0467 54.6806 89.8265 53.4604C86.9041 50.538 83.9818 47.6156 81.0594 44.6933C77.4193 41.0531 73.7791 37.413 70.139 33.7729C66.745 30.3788 63.3509 26.9848 59.9569 23.5907C57.8138 21.4477 55.6707 19.3046 53.5277 17.1615C53.2303 16.8642 52.933 16.5668 52.6458 16.2797C51.8871 15.5209 50.4925 15.4594 49.744 16.2797C48.9955 17.059 48.9339 18.3305 49.744 19.1405Z"
          fill="black"/>
    <path d="M32.4358 28.2661C32.5178 28.3584 32.5998 28.4507 32.6921 28.543C32.8869 28.7378 32.4973 28.2354 32.6408 28.4712C32.7536 28.6558 32.8767 28.8301 32.9792 29.0249C33.0202 29.1069 33.051 29.2197 33.1023 29.2813C32.8869 28.9941 32.9997 29.0147 33.051 29.189C33.0715 29.271 33.2766 29.8452 33.2253 29.8657C33.2048 29.876 33.1946 29.4043 33.2048 29.7324C33.2151 29.8452 33.2253 29.9683 33.2253 30.0811C33.2253 30.1631 33.2561 30.6758 33.1946 30.7065C33.174 30.7168 33.3073 30.1733 33.2048 30.5732C33.1843 30.6655 33.1638 30.7578 33.1433 30.8501C33.1228 30.9424 33.0818 31.0244 33.0613 31.1167C32.9382 31.5679 33.2663 30.7373 33.051 31.1577C32.9587 31.332 32.8767 31.4961 32.7741 31.6602C32.7536 31.6909 32.4768 32.0601 32.6819 31.814C32.8664 31.5884 32.6511 31.8345 32.6101 31.8857C32.5896 31.9063 32.1179 32.3369 32.1281 32.3472C32.1179 32.3267 32.5383 32.0703 32.1897 32.2959C32.0666 32.3779 31.9436 32.4497 31.8205 32.5215C31.7385 32.5728 31.6462 32.6138 31.5642 32.6548C31.2156 32.8291 31.6257 32.6035 31.6565 32.6138C31.5642 32.583 31.1438 32.7676 31.0515 32.7983C30.6618 32.8906 31.0617 32.8906 31.113 32.8086C31.1028 32.8291 30.8259 32.8291 30.8362 32.8291C30.6003 32.8394 30.3747 32.8291 30.1389 32.8189C29.9031 32.8086 30.0466 32.7061 30.2722 32.8394C30.2209 32.8086 30.0671 32.7983 29.9953 32.7778C29.903 32.7573 29.8108 32.7266 29.7185 32.7061C29.6672 32.6958 29.2468 32.6035 29.5647 32.665C29.8313 32.7163 29.5749 32.665 29.4826 32.624C29.3801 32.5728 29.2673 32.5112 29.1648 32.4497C29.0827 32.3984 29.0007 32.3472 28.9187 32.2959C28.5803 32.0806 29.1853 32.5728 28.8674 32.2549C28.7238 32.1113 28.5803 31.978 28.447 31.8345C28.1701 31.5371 28.4983 31.8652 28.488 31.9063C28.488 31.896 28.3445 31.7012 28.3239 31.6704C28.2112 31.4858 28.1189 31.3013 28.0163 31.1065C27.883 30.8501 28.1496 31.5781 28.0368 31.1372C28.0061 31.0244 27.9651 30.9116 27.9343 30.7988C27.924 30.7578 27.842 30.4605 27.8625 30.4605C27.8728 30.4502 27.9035 31.0039 27.883 30.5938C27.8728 30.4092 27.8625 30.2246 27.8625 30.0298C27.8625 29.9375 27.8728 29.8452 27.883 29.7529C27.9035 29.2915 27.801 30.1016 27.883 29.8145C27.9446 29.5889 28.0061 29.3633 28.0676 29.1377C28.1394 28.8608 27.8318 29.5786 28.0471 29.1685C28.0881 29.0864 28.1291 28.9941 28.1804 28.9121C28.2624 28.7686 28.3547 28.5122 28.488 28.4199C28.2214 28.5942 28.3239 28.6148 28.447 28.4917C28.5393 28.3994 28.6213 28.3071 28.7033 28.2251C28.7751 28.1533 28.8572 28.0918 28.9289 28.02C29.0417 27.9277 29.0007 27.9585 28.8059 28.1123C28.8674 28.0713 28.9289 28.0303 28.9905 27.9893C29.1955 27.856 29.4006 27.7534 29.6159 27.6406C29.862 27.5176 29.2571 27.7534 29.5237 27.6919C29.657 27.6611 29.7903 27.5996 29.9236 27.5689C30.0158 27.5483 30.1081 27.5278 30.2004 27.5073C30.3542 27.4766 30.2927 27.4868 30.0056 27.5278C30.0774 27.5176 30.1491 27.5176 30.2107 27.5073C30.4465 27.4868 30.6721 27.4868 30.9079 27.5073C30.9284 27.5073 30.9592 27.5073 30.9797 27.5176C31.1643 27.5381 31.1643 27.5381 30.99 27.5176C30.8054 27.4971 30.8156 27.4971 30.99 27.5278C31.0617 27.5381 31.1233 27.5586 31.195 27.5791C31.2873 27.5996 31.3796 27.6304 31.4616 27.6611C31.5334 27.6816 31.5949 27.7022 31.6667 27.7329C31.4206 27.6201 31.3694 27.5996 31.5027 27.6611C31.718 27.7739 31.9231 27.8765 32.1281 28.0098C32.1897 28.0508 32.4358 28.2456 32.2204 28.061C31.9538 27.8355 32.3948 28.2251 32.4358 28.2661C33.2048 29.0147 34.5788 29.0864 35.3376 28.2661C36.0759 27.4561 36.1579 26.1641 35.3376 25.3643C33.2151 23.3135 30.1799 22.8726 27.5241 24.0928C25.0837 25.2207 23.4944 28.061 23.7815 30.7271C24.0891 33.5674 26.0373 36.0693 28.8777 36.7461C31.7077 37.4229 34.5891 36.2539 36.2195 33.8648C38.0139 31.2295 37.5012 27.5996 35.3274 25.3643C34.5788 24.5952 33.1638 24.5542 32.4255 25.3643C31.677 26.1948 31.636 27.4458 32.4358 28.2661Z"
          fill="black"/>
    <path d="M30.6306 27.3536C28.8977 25.6207 27.175 23.8981 25.4421 22.1651C22.6838 19.4068 19.9255 16.6485 17.1672 13.8902C16.5315 13.2545 15.8957 12.6188 15.26 11.983C14.5012 11.2242 13.1067 11.1627 12.3581 11.983C11.6096 12.8033 11.5481 14.0748 12.3581 14.8849C14.091 16.6178 15.8137 18.3404 17.5466 20.0733C20.3049 22.8316 23.0632 25.5899 25.8215 28.3482C26.4573 28.984 27.093 29.6197 27.7287 30.2555C28.4875 31.0143 29.8821 31.0758 30.6306 30.2555C31.3791 29.4352 31.4407 28.1637 30.6306 27.3536Z"
          fill="black"/>
    <path d="M54.2047 53.8295C54.1021 53.932 53.9893 54.0346 53.8765 54.1371C53.815 54.1884 53.4151 54.5575 53.6304 54.3627C53.8355 54.1781 53.4869 54.4652 53.4254 54.5063C53.2818 54.5985 53.1485 54.6908 52.9947 54.7831C52.7281 54.9472 52.4513 55.0907 52.1744 55.224C52.1231 55.2548 52.0308 55.2753 51.9796 55.3163C51.9898 55.3061 52.359 55.1728 52.1436 55.2445C51.9898 55.2958 51.836 55.3573 51.6822 55.4086C51.3951 55.5009 51.0977 55.5829 50.8004 55.6444C50.6671 55.6752 50.5235 55.6957 50.3902 55.7265C50.1646 55.7777 50.585 55.706 50.585 55.706C50.4928 55.706 50.4005 55.7265 50.3082 55.7367C49.6929 55.788 49.0982 55.6855 48.4932 55.706C48.4932 55.706 48.9239 55.7777 48.6881 55.7265C48.6163 55.7162 48.5445 55.706 48.483 55.6855C48.3189 55.6547 48.1651 55.6239 48.0011 55.5829C47.7037 55.5111 47.4063 55.4188 47.1192 55.3163C47.0577 55.2958 46.9859 55.265 46.9244 55.2445C46.6988 55.1728 47.0885 55.3163 47.0885 55.3163C46.9449 55.3061 46.7706 55.1728 46.6373 55.101C46.3604 54.9574 46.0836 54.8036 45.8272 54.6293C45.7042 54.5473 45.5914 54.4652 45.4683 54.3832C45.212 54.1986 45.5401 54.3832 45.5299 54.4345C45.5299 54.4242 45.3761 54.3012 45.3555 54.2909C45.1095 54.0756 44.8736 53.85 44.648 53.6142C44.5455 53.5014 44.4532 53.3886 44.3507 53.2758C44.1148 53.0092 44.5455 53.5526 44.2686 53.1732C44.0841 52.9169 43.92 52.6503 43.7559 52.3837C43.6842 52.2606 43.6226 52.1273 43.5509 52.0043C43.5201 51.9428 43.3048 51.4403 43.4176 51.7274C43.5304 52.0043 43.3663 51.5839 43.3458 51.5121C43.2945 51.3583 43.2432 51.2045 43.192 51.0404C43.1099 50.7431 43.0382 50.4457 42.9869 50.1483C42.9766 50.0868 42.9766 49.9945 42.9561 49.9433C42.9561 49.9433 43.0074 50.3739 42.9869 50.1381C42.9766 49.974 42.9561 49.81 42.9459 49.6459C42.9254 49.3383 42.9254 49.0409 42.9459 48.7333C42.9561 48.5897 42.9664 48.4564 42.9766 48.3129C43.0279 47.831 42.9151 48.5795 42.9869 48.2309C43.0484 47.9335 43.1099 47.6361 43.192 47.3388C43.2637 47.0824 43.4791 46.7235 43.4893 46.4672C43.4893 46.4774 43.3253 46.8363 43.4176 46.6313C43.4586 46.5492 43.4996 46.4569 43.5406 46.3749C43.6021 46.2416 43.6739 46.1186 43.7354 45.9955C43.8892 45.7187 44.0533 45.4521 44.2379 45.1957C44.2789 45.1342 44.3199 45.0829 44.3712 45.0214C44.5352 44.7958 44.1353 45.2982 44.3199 45.0932C44.4224 44.9804 44.5147 44.8676 44.6173 44.7548C44.8326 44.519 45.0684 44.2831 45.3145 44.078C45.3453 44.0473 45.5401 43.8935 45.5401 43.8832C45.5401 43.8935 45.2222 44.1088 45.4171 43.9755C45.5401 43.8935 45.6529 43.8012 45.776 43.7191C46.0323 43.5448 46.3092 43.3808 46.586 43.2372C46.7296 43.1552 46.8834 43.0937 47.0372 43.0219C47.2423 42.9193 46.8834 43.0937 46.8731 43.0937C46.9244 43.0937 47.0167 43.0321 47.0679 43.0219C47.3551 42.9193 47.6422 42.8271 47.9395 42.745C48.1241 42.6938 48.3087 42.663 48.4932 42.622C48.565 42.6117 48.6368 42.6015 48.6983 42.581C48.9752 42.5297 48.2882 42.622 48.565 42.6015C48.9137 42.5707 49.2623 42.5399 49.6109 42.5502C49.939 42.5502 50.2672 42.622 50.585 42.6117C50.585 42.6117 50.1544 42.5399 50.3902 42.5912C50.4825 42.6117 50.5748 42.622 50.6671 42.6425C50.8516 42.6835 51.0362 42.7245 51.2105 42.7655C51.5284 42.8476 51.836 42.9604 52.1539 43.0732C52.3795 43.1449 51.9898 43.0014 51.9898 43.0014C52.0924 43.0116 52.2257 43.1039 52.3179 43.1552C52.4718 43.227 52.6153 43.309 52.7589 43.391C53.0562 43.5551 53.3331 43.7499 53.6099 43.9447C53.8663 44.1293 53.5382 43.9447 53.5484 43.8935C53.5484 43.914 53.7535 44.0678 53.774 44.0883C53.9278 44.2216 54.0714 44.3549 54.2149 44.4984C54.984 45.247 56.358 45.3188 57.1168 44.4984C57.8653 43.6884 57.9371 42.4066 57.1168 41.5966C54.8302 39.3407 51.5694 38.141 48.3599 38.5409C44.9762 38.9716 41.9307 40.8788 40.2388 43.873C38.6803 46.6313 38.3829 50.1176 39.5929 53.0605C40.8848 56.2289 43.5714 58.7104 46.9244 59.5409C50.5748 60.4433 54.4405 59.3666 57.127 56.7314C57.8961 55.9828 57.9371 54.578 57.127 53.8295C56.276 53.0707 55.025 53.0297 54.2047 53.8295Z"
          fill="black"/>
    <path d="M57.1162 56.742C57.2187 56.6394 57.3315 56.5369 57.4443 56.4344C57.5058 56.3831 57.9057 56.0139 57.6904 56.2088C57.4853 56.3933 57.834 56.1062 57.8955 56.0652C58.039 55.9729 58.1723 55.8806 58.3261 55.7884C58.5928 55.6243 58.8696 55.4807 59.1465 55.3474C59.1977 55.3167 59.3003 55.2962 59.3413 55.2552C59.331 55.2654 58.9619 55.3987 59.1772 55.3269C59.331 55.2757 59.4848 55.2141 59.6387 55.1629C59.9258 55.0706 60.2231 54.9885 60.5205 54.927C60.6538 54.8963 60.7973 54.8758 60.9306 54.845C61.1562 54.7937 60.7358 54.8655 60.7358 54.8655C60.8281 54.8655 60.9204 54.845 61.0127 54.8347C61.6279 54.7835 62.2226 54.886 62.8276 54.8655C62.8276 54.8655 62.3969 54.7937 62.6328 54.845C62.7046 54.8553 62.7763 54.8655 62.8379 54.886C63.0019 54.9168 63.1557 54.9475 63.3198 54.9886C63.6172 55.0603 63.9145 55.1526 64.2016 55.2552C64.2632 55.2757 64.3349 55.3064 64.3965 55.3269C64.622 55.3987 64.2324 55.2552 64.2324 55.2552C64.376 55.2654 64.5503 55.3987 64.6836 55.4705C64.9604 55.614 65.2373 55.7678 65.4936 55.9422C65.6167 56.0242 65.7295 56.1062 65.8525 56.1883C66.1089 56.3728 65.7807 56.1883 65.791 56.137C65.791 56.1472 65.9448 56.2703 65.9653 56.2805C66.2114 56.4959 66.4472 56.7215 66.6728 56.9573C66.7754 57.0701 66.8677 57.1829 66.9702 57.2957C67.206 57.5623 66.7754 57.0188 67.0522 57.3982C67.2368 57.6546 67.4009 57.9212 67.5649 58.1878C67.6367 58.3108 67.6982 58.4441 67.77 58.5672C67.8008 58.6287 68.0161 59.1311 67.9033 58.844C67.7905 58.5672 67.9546 58.9876 67.9751 59.0593C68.0263 59.2132 68.0776 59.367 68.1289 59.531C68.2109 59.8284 68.2827 60.1258 68.334 60.4231C68.3442 60.4846 68.3442 60.5769 68.3647 60.6282C68.3647 60.6282 68.3135 60.1975 68.334 60.4334C68.3442 60.5974 68.3647 60.7615 68.375 60.9256C68.3955 61.2332 68.3955 61.5305 68.375 61.8382C68.3647 61.9817 68.3545 62.115 68.3442 62.2586C68.2929 62.7405 68.4057 61.992 68.334 62.3406C68.2724 62.638 68.2109 62.9353 68.1289 63.2327C68.0571 63.489 67.8418 63.8479 67.8315 64.1043C67.8315 64.094 67.9956 63.7351 67.9033 63.9402C67.8623 64.0222 67.8213 64.1145 67.7803 64.1966C67.7187 64.3299 67.647 64.4529 67.5854 64.576C67.4316 64.8528 67.2676 65.1194 67.083 65.3758C67.042 65.4373 67.001 65.4886 66.9497 65.5501C66.7856 65.7757 67.1855 65.2732 67.001 65.4783C66.8984 65.5911 66.8061 65.7039 66.7036 65.8167C66.4883 66.0525 66.2524 66.2884 66.0063 66.4934C65.9756 66.5242 65.7807 66.678 65.7807 66.6883C65.7807 66.678 66.0986 66.4627 65.9038 66.596C65.7807 66.678 65.6679 66.7703 65.5449 66.8523C65.2886 67.0266 65.0117 67.1907 64.7348 67.3343C64.5913 67.4163 64.4375 67.4778 64.2837 67.5496C64.0786 67.6521 64.4375 67.4778 64.4477 67.4778C64.3965 67.4778 64.3042 67.5393 64.2529 67.5496C63.9658 67.6521 63.6787 67.7444 63.3813 67.8264C63.1968 67.8777 63.0122 67.9085 62.8276 67.9495C62.7558 67.9597 62.6841 67.97 62.6225 67.9905C62.3457 68.0418 63.0327 67.9495 62.7558 67.97C62.4072 68.0008 62.0586 68.0315 61.7099 68.0213C61.3818 68.0213 61.0537 67.9495 60.7358 67.9597C60.7358 67.9597 61.1665 68.0315 60.9306 67.9802C60.8384 67.9597 60.7461 67.9495 60.6538 67.929C60.4692 67.888 60.2846 67.847 60.1103 67.8059C59.7925 67.7239 59.4848 67.6111 59.167 67.4983C58.9414 67.4265 59.331 67.5701 59.331 67.5701C59.2285 67.5598 59.0952 67.4676 59.0029 67.4163C58.8491 67.3445 58.7055 67.2625 58.562 67.1804C58.2646 67.0164 57.9878 66.8216 57.7109 66.6267C57.4546 66.4422 57.7929 66.6267 57.7724 66.678C57.7724 66.6575 57.5674 66.5037 57.5469 66.4832C57.393 66.3499 57.2495 66.2166 57.1059 66.073C56.3369 65.3245 54.9629 65.2527 54.2041 66.073C53.4555 66.8831 53.3838 68.1648 54.2041 68.9749C56.4907 71.2307 59.7514 72.4304 62.9609 72.0305C66.3447 71.5999 69.3901 69.6926 71.082 66.6985C72.6406 63.9402 72.938 60.4539 71.728 57.511C70.436 54.3426 67.7495 51.8611 64.3965 51.0305C60.7461 50.1282 56.8803 51.2049 54.1938 53.8401C53.4248 54.5886 53.3838 55.9934 54.1938 56.742C55.0449 57.5008 56.2959 57.552 57.1162 56.742Z"
          fill="black"/>
    <path d="M39.9617 42.5196L42.884 45.442L49.8874 52.4454L58.3674 60.9254L65.699 68.2569C66.8782 69.4361 68.0369 70.6564 69.2571 71.815L69.3083 71.8663C70.0671 72.6251 71.4617 72.6866 72.2102 71.8663C72.9587 71.046 73.0202 69.7745 72.2102 68.9645C71.2361 67.9903 70.2619 67.0162 69.2878 66.0421C66.9499 63.7042 64.612 61.3663 62.2844 59.0387C59.4543 56.2086 56.6345 53.3888 53.8044 50.5587C51.364 48.1183 48.9236 45.6778 46.4729 43.2272C45.2937 42.048 44.135 40.8277 42.9148 39.669C42.8943 39.6485 42.884 39.6383 42.8635 39.6178C42.1047 38.859 40.7102 38.7975 39.9617 39.6178C39.2131 40.4381 39.1516 41.7096 39.9617 42.5196Z"
          fill="black"/>
</svg>