<svg viewBox="0 0 106 105" fill="none" xmlns="http://www.w3.org/2000/svg">
    <path d="M94.8793 81.9258H87.6296C86.6345 81.9258 85.8281 82.6142 85.8281 83.4639C85.8281 84.3135 86.6345 85.002 87.6296 85.002H89.4392V94.6427C89.4392 95.4923 90.2455 96.1808 91.2406 96.1808C92.2357 96.1808 93.0421 95.4923 93.0421 94.6427V85.002H94.8791C95.8742 85.002 96.6805 84.3135 96.6805 83.4639C96.6805 82.6142 95.8744 81.9258 94.8793 81.9258Z" fill="black"/>
    <path d="M58.9733 85.1074C59.9684 85.1074 60.7748 84.419 60.7748 83.5693C60.7748 82.7197 59.9684 82.0312 58.9733 82.0312H53.4919C52.497 82.0312 51.6904 82.7197 51.6904 83.5693V94.6436C51.6904 95.4932 52.497 96.1817 53.4919 96.1817H58.9733C59.9684 96.1817 60.7748 95.4932 60.7748 94.6436C60.7748 93.7939 59.9684 93.1055 58.9733 93.1055H55.2933V90.6417H58.5708C59.5659 90.6417 60.3722 89.9532 60.3722 89.1036C60.3722 88.2539 59.5659 87.5655 58.5708 87.5655H55.2933V85.1074H58.9733Z" fill="black"/>
    <path d="M35.4051 93.0929C34.4513 93.0978 33.4427 93.1015 32.6234 93.1027V83.4639C32.6234 82.6142 31.8168 81.9258 30.822 81.9258C29.8271 81.9258 29.0205 82.6142 29.0205 83.4639V94.631C29.0205 95.3699 29.6359 96.0042 30.4859 96.142C30.6279 96.165 30.7218 96.1804 32.199 96.1804C32.9059 96.1804 33.9298 96.1769 35.4269 96.1691C36.4218 96.164 37.2233 95.4712 37.2173 94.6216C37.2113 93.7719 36.4067 93.0796 35.4051 93.0929Z" fill="black"/>
    <path d="M44.3376 81.9785C43.3427 81.9785 42.5361 82.667 42.5361 83.5166V94.6954C42.5361 95.5451 43.3427 96.2335 44.3376 96.2335C45.3325 96.2335 46.139 95.5451 46.139 94.6954V83.5166C46.139 82.667 45.3325 81.9785 44.3376 81.9785Z" fill="black"/>
    <path d="M23.0509 91.8979C22.2983 91.3426 21.1605 91.4133 20.5099 92.056C20.3823 92.1822 20.2598 92.2894 20.1337 92.3852C19.5078 92.8626 18.7012 93.1046 17.7363 93.1046C15.1125 93.1046 12.9777 91.286 12.9777 89.0502C12.9777 86.8179 15.1125 85.002 17.7363 85.002C18.6878 85.002 19.6079 85.2413 20.3977 85.6941C21.2235 86.1674 22.3428 85.98 22.8976 85.2747C23.4522 84.5694 23.2324 83.6138 22.4064 83.1403C21.0207 82.3458 19.4059 81.9258 17.7366 81.9258C13.1261 81.9258 9.375 85.1217 9.375 89.0502C9.375 92.982 13.1261 96.1808 17.7366 96.1808C19.5873 96.1808 21.246 95.6617 22.5323 94.681C22.7749 94.4965 23.0052 94.2957 23.2365 94.0672C23.8867 93.4245 23.8036 92.4533 23.0509 91.8979Z" fill="black"/>
    <path d="M78.3531 81.6055C77.358 81.6055 76.5517 82.2939 76.5517 83.1436V90.3379L70.0249 82.2857C69.5767 81.7326 68.7588 81.4921 68.0068 81.6926C67.2548 81.8932 66.7422 82.4879 66.7422 83.1608V95.0664C66.7422 95.916 67.5485 96.6045 68.5436 96.6045C69.5388 96.6045 70.3451 95.916 70.3451 95.0664V88.0862L76.5 95.6794C77.0215 96.3365 77.9018 96.618 78.7425 96.3982C79.6002 96.1732 80.1545 95.4932 80.1545 94.6653V83.1434C80.1545 82.2941 79.348 81.6055 78.3531 81.6055Z" fill="black"/>
    <path d="M62.6589 36.1306C63.654 36.1306 64.4603 35.4421 64.4603 34.5925V32.8311C64.4603 31.9814 63.654 31.293 62.6589 31.293C61.6637 31.293 60.8574 31.9814 60.8574 32.8311V34.5925C60.8574 35.4421 61.6637 36.1306 62.6589 36.1306Z" fill="black"/>
    <path d="M43.3884 31.293C42.3935 31.293 41.5869 31.9814 41.5869 32.8311V34.5925C41.5869 35.4421 42.3935 36.1306 43.3884 36.1306C44.3832 36.1306 45.1898 35.4421 45.1898 34.5925V32.8311C45.1898 31.9816 44.3832 31.293 43.3884 31.293Z" fill="black"/>
    <path d="M49.2547 44.947C50.3291 45.4855 51.6766 45.7548 53.0238 45.7548C54.3713 45.7548 55.7186 45.4855 56.7929 44.947C57.6509 44.5167 57.9379 43.5744 57.4343 42.8416C56.9301 42.1091 55.8264 41.8638 54.9684 42.2941C53.951 42.8043 52.0969 42.8043 51.0792 42.2941C50.2217 41.8642 49.1176 42.1091 48.6137 42.8416C48.1097 43.5744 48.3968 44.5169 49.2547 44.947Z" fill="black"/>
    <path d="M97.712 73.2122H96.3092C94.9341 68.7391 90.4677 61.3897 83.916 60.0796L65.7507 56.4619V50.6003C70.1642 47.8623 73.8109 44.036 75.8499 40.0523C79.159 39.9459 81.9493 38.6674 83.6345 36.4397C85.3115 34.2217 85.5195 31.415 84.1634 29.2894C83.4099 28.1084 82.2721 27.2257 80.8339 26.6792C82.9367 24.9998 84.6753 22.6545 85.7897 19.8915C86.114 19.0884 85.6139 18.2129 84.6733 17.9365C83.7335 17.6594 82.7076 18.0864 82.3836 18.8897C80.984 22.359 78.3803 25.0537 75.5366 26.0127C75.1562 25.9915 74.756 25.97 74.3369 25.9474C66.4156 25.5213 51.6709 24.728 43.1404 19.2486C42.7182 18.977 42.1768 18.8778 41.6618 18.9772C41.1461 19.0763 40.7073 19.3638 40.462 19.7635C37.3904 24.7666 34.5201 25.7754 32.0428 25.9794V20.315C32.0428 12.1354 35.0238 8.72907 42.3324 8.55742C42.9096 8.54388 43.444 8.29512 43.7697 7.88825C46.7299 4.19253 50.8095 4.58587 57.7667 5.59937C63.9903 6.50561 71.6527 7.62144 79.0555 3.53403C82.3487 6.58067 83.2636 10.0403 83.4284 12.5023C83.4851 13.3507 84.3433 14.0045 85.3295 13.9502C86.323 13.9018 87.0822 13.175 87.0253 12.327C86.7119 7.64297 84.4483 3.5209 80.48 0.405761C79.8416 -0.095245 78.8751 -0.137081 78.1812 0.306914C71.6256 4.49728 64.8882 3.51557 58.3727 2.56708C52.1589 1.66166 45.7424 0.726709 41.339 5.51836C29.8006 6.18159 28.4399 14.2403 28.4399 20.315V26.0477C25.4531 26.1905 23.1422 27.3282 21.8913 29.2892C20.5354 31.4148 20.7429 34.2215 22.4204 36.4392C24.1054 38.6674 26.8957 39.9457 30.2051 40.0521C32.2441 44.0356 35.8907 47.8617 40.304 50.5999V56.4617L22.138 60.0796C15.5958 61.3862 11.1218 68.7383 9.74041 73.212H8.34273C4.03344 73.212 0.527344 76.1994 0.527344 79.8718V98.3345C0.527104 102.01 4.0332 105 8.34249 105H97.712C102.021 105 105.527 102.01 105.527 98.3345V79.8718C105.527 76.1996 102.021 73.2122 97.712 73.2122ZM77.6148 33.4586V29.1313C79.225 29.2467 80.3885 29.8035 80.9993 30.7606C81.7334 31.9113 81.5797 33.4855 80.6076 34.7709C80.0977 35.445 79.0449 36.4364 77.1298 36.8232C77.4457 35.6872 77.6148 34.5585 77.6148 33.4586ZM25.4471 34.7709C24.475 33.4855 24.3211 31.9115 25.0553 30.7606C25.6659 29.8035 26.8296 29.2465 28.4399 29.1313V33.4586C28.4399 34.5589 28.6092 35.6878 28.9251 36.8242C27.0088 36.438 25.957 35.4454 25.4471 34.7709ZM69.1177 60.2911L62.7375 67.2262L56.3957 64.3176L64.3465 59.341L69.1177 60.2911ZM53.0272 62.6118L43.9066 56.903V52.5096C44.8184 52.9132 45.7496 53.2686 46.6955 53.5678C49.0114 54.2991 51.0235 54.6399 53.0272 54.6399C55.0235 54.6399 57.0348 54.2995 59.3597 53.5676C60.3051 53.2686 61.2363 52.9132 62.1476 52.5098V56.903L53.0272 62.6118ZM33.2411 38.3061C33.2048 38.06 33.1025 37.834 32.949 37.6404C32.3666 36.2208 32.0425 34.8064 32.0425 33.4588V29.0538C35.4173 28.8208 39.1093 27.6806 42.6571 22.6998C52.0849 27.8134 66.1725 28.5909 74.0119 29.0125V33.459C74.0119 34.807 73.6879 36.2221 73.1049 37.6418C72.9517 37.8352 72.8496 38.0608 72.8133 38.3067C70.3828 43.5079 64.5485 48.6465 58.1107 50.6823C56.2002 51.2838 54.5846 51.564 53.0272 51.564C51.4633 51.564 49.8485 51.284 47.9462 50.6832C41.5064 48.6463 35.6716 43.5073 33.2411 38.3061ZM41.7079 59.341L49.659 64.3178L43.3172 67.2264L36.937 60.2913L41.7079 59.341ZM101.924 98.3345C101.924 100.314 100.035 101.924 97.712 101.924H8.34249C6.01983 101.924 4.12999 100.314 4.12999 98.3345V79.8718C4.12999 77.8958 6.01983 76.2882 8.34249 76.2882H49.0475C50.0423 76.2882 50.8489 75.5998 50.8489 74.7501C50.8489 73.9005 50.0423 73.212 49.0475 73.212H13.4913C14.8976 69.4382 18.5512 63.955 22.9573 63.075L33.0648 61.0622L41.4192 70.1428C41.7708 70.5251 42.2985 70.731 42.8368 70.731C43.1262 70.731 43.4186 70.6713 43.6883 70.5477L53.0272 66.265L62.3664 70.5481C62.6361 70.6717 62.9284 70.7314 63.2179 70.7314C63.7559 70.7314 64.2839 70.5253 64.6355 70.1432L72.9899 61.0626L83.096 63.0752C87.5102 63.9577 91.159 69.4402 92.5593 73.2124H57.3824C56.3873 73.2124 55.5809 73.9009 55.5809 74.7505C55.5809 75.6002 56.3873 76.2886 57.3824 76.2886H97.712C100.035 76.2886 101.924 77.8962 101.924 79.8722V98.3345Z" fill="black"/>
</svg>
