<svg viewBox="0 0 106 104" fill="none" xmlns="http://www.w3.org/2000/svg">
    <path d="M102.744 80.2686C102.974 81.1443 102.449 82.0426 101.571 82.2702L94.3813 84.1508C94.2439 84.1856 94.1045 84.2041 93.9671 84.2041C93.641 84.2041 93.3211 84.1077 93.0463 83.9211C92.6546 83.6565 92.3962 83.2341 92.3388 82.7644L91.4262 75.3898C91.3154 74.4916 91.9532 73.6713 92.8535 73.5605C93.7518 73.4498 94.5721 74.0876 94.6828 74.9879L95.0622 78.0497C99.5042 70.8473 101.836 62.6258 101.836 54.0576C101.836 41.677 96.9735 30.0758 88.1449 21.3907C87.4989 20.755 87.4907 19.7173 88.1265 19.0713C88.7622 18.4253 89.7999 18.4171 90.4459 19.0528C99.9062 28.3572 105.117 40.7911 105.117 54.0576C105.117 63.2779 102.595 72.125 97.7938 79.8687L100.741 79.0976C101.619 78.868 102.515 79.393 102.744 80.2686ZM66.0334 98.7872C62.7624 99.5173 59.3889 99.8885 56.0051 99.8885C39.0656 99.8885 23.6581 90.5902 15.697 75.8841L18.5414 77.0879C19.3761 77.4406 20.3379 77.051 20.6927 76.2163C21.0454 75.3816 20.6558 74.4198 19.8211 74.065L12.9756 71.1693C12.5408 70.9847 12.0466 70.9971 11.62 71.2042C11.1935 71.4113 10.8776 71.7907 10.7525 72.246L8.78584 79.4114C8.5459 80.285 9.06064 81.1874 9.93428 81.4273C10.0799 81.4663 10.2255 81.4868 10.369 81.4868C11.0889 81.4868 11.7492 81.009 11.9502 80.2809L12.7562 77.3463C21.271 93.1619 37.8126 103.17 56.0051 103.17C59.6288 103.17 63.2423 102.772 66.7491 101.991C67.633 101.794 68.1908 100.916 67.9919 100.032C67.795 99.1461 66.9173 98.5903 66.0334 98.7872ZM9.80918 42.9731C9.95478 43.0141 10.1024 43.0326 10.246 43.0326C10.9658 43.0326 11.6262 42.5548 11.8271 41.8288C17.2904 22.0449 35.4583 8.22674 56.0051 8.22674C56.4173 8.22674 56.8315 8.23289 57.2437 8.2452L54.791 10.0971C54.0671 10.6426 53.9235 11.6721 54.4711 12.3939C54.7931 12.8205 55.2853 13.0461 55.7815 13.0461C56.1261 13.0461 56.4727 12.9374 56.768 12.7138L62.6988 8.23699C63.0762 7.95193 63.312 7.51717 63.3469 7.04549C63.3817 6.57381 63.2095 6.11033 62.8772 5.77401L57.656 0.487091C57.0182 -0.156854 55.9805 -0.163006 55.3365 0.472736C54.6926 1.10848 54.6864 2.14822 55.3222 2.79217L57.4693 4.966C56.9792 4.95164 56.4911 4.94344 56.003 4.94344C45.0396 4.94344 34.6688 8.47694 26.0124 15.1625C17.6288 21.6368 11.4662 30.7976 8.66279 40.9531C8.42285 41.8288 8.93555 42.7332 9.80918 42.9731ZM67.3295 11.5613C67.3295 5.86219 71.9663 1.22537 77.6654 1.22537C83.3646 1.22537 88.0014 5.86219 88.0014 11.5613C88.0014 17.2604 83.3646 21.8972 77.6654 21.8972C71.9663 21.8972 67.3295 17.2604 67.3295 11.5613ZM70.6107 11.5613C70.6107 15.4516 73.7751 18.616 77.6654 18.616C81.5558 18.616 84.7201 15.4516 84.7201 11.5613C84.7201 7.67098 81.5558 4.50662 77.6654 4.50662C73.7751 4.50662 70.6107 7.67098 70.6107 11.5613ZM17.5242 65.0149H2.98828C1.63066 65.0149 0.527344 63.9116 0.527344 62.554V48.0181C0.527344 46.6604 1.63066 45.5571 2.98828 45.5571H17.5242C18.8818 45.5571 19.9852 46.6604 19.9852 48.0181V62.554C19.9852 63.9116 18.8818 65.0149 17.5242 65.0149ZM16.7039 48.8384H3.80859V61.7337H16.7039V48.8384ZM92.6628 94.3329C93.1468 95.1409 93.1591 96.1519 92.6956 96.9702C92.2321 97.7885 91.3585 98.2971 90.4151 98.2971H71.2526C70.3113 98.2971 69.4377 97.7885 68.9742 96.9702C68.5107 96.1519 68.523 95.1409 69.007 94.3329L78.7934 78.0025C79.2261 77.2786 79.991 76.8459 80.8359 76.8459C81.6809 76.8459 82.4437 77.2786 82.8765 78.0025L92.6628 94.3329ZM89.2462 95.0158L80.8339 80.9803L72.4236 95.0158H89.2462ZM82.1484 51.5844C82.1484 66.6248 69.9135 78.8597 54.873 78.8597C39.8326 78.8597 27.5977 66.6248 27.5977 51.5844C27.5977 36.5439 39.8326 24.309 54.873 24.309C69.9135 24.309 82.1484 36.5439 82.1484 51.5844ZM78.8672 51.5844C78.8672 38.3548 68.1026 27.5902 54.873 27.5902C41.6435 27.5902 30.8789 38.3548 30.8789 51.5844C30.8789 64.8139 41.6435 75.5785 54.873 75.5785C68.1026 75.5785 78.8672 64.8139 78.8672 51.5844ZM74.4067 51.5844C74.4067 62.3551 65.6438 71.118 54.873 71.118C44.1023 71.118 35.3394 62.3551 35.3394 51.5844C35.3394 40.8137 44.1023 32.0507 54.873 32.0507C65.6438 32.0507 74.4067 40.8137 74.4067 51.5844ZM71.1255 51.5844C71.1255 42.6224 63.835 35.3319 54.873 35.3319C45.9111 35.3319 38.6206 42.6224 38.6206 51.5844C38.6206 60.5463 45.9111 67.8368 54.873 67.8368C63.835 67.8368 71.1255 60.5463 71.1255 51.5844ZM55.2894 49.9437H54.4567C53.3063 49.9437 52.3711 49.0086 52.3711 47.8581C52.3711 46.7076 53.3063 45.7724 54.4567 45.7724H55.6298C56.2942 45.7724 56.9259 46.0985 57.3217 46.644C57.8528 47.3782 58.8782 47.5423 59.6124 47.0132C60.3466 46.482 60.5106 45.4566 59.9795 44.7224C59.1448 43.5679 57.8897 42.7988 56.5137 42.5671V40.9511C56.5137 40.0446 55.7795 39.3104 54.873 39.3104C53.9666 39.3104 53.2324 40.0446 53.2324 40.9511V42.6348C50.8617 43.1905 49.0898 45.3213 49.0898 47.8601C49.0898 50.8194 51.4975 53.227 54.4567 53.227H55.2894C56.4398 53.227 57.375 54.1622 57.375 55.3127C57.375 56.4632 56.4398 57.3983 55.2894 57.3983H54.1163C53.4519 57.3983 52.8202 57.0723 52.4244 56.5267C51.8933 55.7926 50.8679 55.6285 50.1337 56.1576C49.3995 56.6888 49.2355 57.7141 49.7666 58.4483C50.6013 59.6029 51.8563 60.372 53.2324 60.6037V62.2197C53.2324 63.1262 53.9666 63.8603 54.873 63.8603C55.7795 63.8603 56.5137 63.1262 56.5137 62.2197V60.536C58.8844 59.9803 60.6563 57.8495 60.6563 55.3106C60.6563 52.3514 58.2486 49.9437 55.2894 49.9437Z" fill="black"/>
</svg>
