<svg viewBox="0 0 106 105" fill="none" xmlns="http://www.w3.org/2000/svg">
    <g clip-path="url(#clip0_33_2347)">
        <path d="M101.96 77.3964C98.9626 74.9873 94.7562 73.8225 91.3292 73.2596C94.1508 70.7802 95.9793 66.8371 95.9793 62.4042C95.9793 54.9147 90.766 48.8216 84.3579 48.8216C77.9499 48.8216 72.7366 54.9147 72.7366 62.4042C72.7366 66.8392 74.5667 70.7839 77.3906 73.263C76.7541 73.3687 76.1265 73.4876 75.5121 73.6228C74.6297 73.817 74.0716 74.6898 74.2658 75.5722C74.4601 76.4549 75.3331 77.0127 76.2153 76.8185C84.7872 74.9324 95.4162 76.3353 99.9092 79.947C101.419 81.1602 102.152 82.5008 102.152 84.0454V92.847H78.9158C78.0122 92.847 77.2797 93.5795 77.2797 94.4833C77.2797 95.3871 78.0122 96.1196 78.9158 96.1196H103.789C104.692 96.1196 105.425 95.3871 105.425 94.4833V84.0456C105.425 81.5178 104.227 79.2187 101.96 77.3964ZM76.009 62.404C76.009 56.719 79.7544 52.0941 84.3579 52.0941C88.9615 52.0941 92.7069 56.719 92.7069 62.404C92.7069 68.037 89.0249 72.6261 84.4757 72.7044C84.4 72.7042 84.3243 72.7044 84.2484 72.7046C79.6955 72.6318 76.009 68.0405 76.009 62.404ZM6.14341 79.9541C10.6412 76.3384 21.2735 74.9318 29.8449 76.8183C30.7274 77.0137 31.6004 76.4547 31.7944 75.572C31.9886 74.6896 31.4308 73.8167 30.5481 73.6225C29.9323 73.487 29.3029 73.3678 28.6647 73.262C31.488 70.7828 33.3179 66.8386 33.3179 62.404C33.3179 54.9145 28.1046 48.8214 21.6965 48.8214C15.2854 48.8214 10.0694 54.9145 10.0694 62.404C10.0694 66.8394 11.9006 70.7843 14.7263 73.2633C11.2985 73.8276 7.09087 74.9939 4.09324 77.4036C1.82754 79.2249 0.629883 81.5215 0.629883 84.0452V94.4829C0.629883 95.3865 1.36242 96.1192 2.266 96.1192H27.1391C28.0427 96.1192 28.7752 95.3867 28.7752 94.4829C28.7752 93.5791 28.0427 92.8466 27.1391 92.8466H3.90211V84.045C3.90211 82.5045 4.63526 81.1663 6.14341 79.9541ZM13.3419 62.404C13.3419 56.719 17.0899 52.0941 21.6967 52.0941C26.3005 52.0941 30.0457 56.719 30.0457 62.404C30.0457 68.0514 26.3452 72.6499 21.78 72.7054C21.7224 72.7054 21.6647 72.705 21.6069 72.7052C17.0417 72.6456 13.3419 68.0487 13.3419 62.404ZM68.3994 73.4866C66.0884 72.4598 63.3356 71.6952 60.3248 71.2244C63.5454 68.5428 65.6524 64.1416 65.6524 59.1721C65.6524 51.0174 59.9887 44.3827 53.0273 44.3827C46.0627 44.3827 40.3964 51.0172 40.3964 59.1721C40.3964 64.1436 42.506 68.5465 45.7303 71.2276C42.7244 71.6989 39.9751 72.4632 37.6654 73.4882C31.334 76.2982 30.0049 80.2088 30.0049 82.9948V94.4827C30.0049 95.3863 30.7374 96.119 31.641 96.119H74.4131C75.3167 96.119 76.0492 95.3865 76.0492 94.4827V82.995C76.0494 80.2076 74.7224 76.2953 68.3994 73.4866ZM43.6688 59.1721C43.6688 52.8217 47.867 47.6553 53.0273 47.6553C58.1844 47.6553 62.3801 52.8217 62.3801 59.1721C62.3801 65.4471 58.2788 70.5622 53.2023 70.6778C53.1481 70.6776 53.0946 70.676 53.0405 70.676C52.9798 70.676 52.9197 70.6776 52.8592 70.6778C47.7763 70.5667 43.6688 65.45 43.6688 59.1721ZM72.7772 92.8468H33.2775V82.995C33.2775 79.7064 36.3857 77.6365 38.9932 76.4795C42.5737 74.8903 47.6145 73.9724 52.8485 73.9505C52.9084 73.9515 52.9675 73.9558 53.0273 73.9558C53.0897 73.9558 53.151 73.9513 53.2131 73.9503C58.4502 73.9699 63.4927 74.8875 67.0709 76.477C69.6741 77.6333 72.7772 79.7029 72.7772 82.995V92.8468ZM36.7942 22.8124L44.5482 29.2354L42.0546 38.9943C41.8887 39.6438 42.1358 40.3289 42.6781 40.7229C42.9642 40.9308 43.3015 41.0354 43.6399 41.0354C43.9432 41.0352 44.2471 40.9511 44.5148 40.7817L53.0271 35.3943L61.5338 40.7813C62.1002 41.1402 62.8282 41.1168 63.3707 40.7229C63.9131 40.3287 64.1602 39.6438 63.9943 38.9941L61.5008 29.2352L69.255 22.8122C69.7714 22.3844 69.9744 21.6849 69.7675 21.0473C69.5605 20.4095 68.9855 19.9624 68.3161 19.9194L58.2624 19.2723L54.5482 9.91339C54.3009 9.29016 53.6984 8.88082 53.0278 8.88062C53.0276 8.88062 53.0275 8.88062 53.0273 8.88062C52.3569 8.88062 51.7544 9.28954 51.5069 9.91257L47.7872 19.2723L37.7328 19.9194C37.0637 19.9626 36.4886 20.4095 36.2815 21.0473C36.0748 21.6849 36.2778 22.3846 36.7942 22.8124ZM49.0304 22.4716C49.6614 22.4309 50.2124 22.0304 50.4458 21.4429L53.0261 14.9499L55.6025 21.4421C55.8359 22.0298 56.3871 22.4307 57.0184 22.4716L63.9945 22.9205L58.6151 27.3764C58.1278 27.7802 57.917 28.4287 58.0737 29.0414L59.8037 35.8127L53.9026 32.0758C53.3682 31.7372 52.6867 31.737 52.1523 32.0754L46.2444 35.8146L47.975 29.0414C48.1317 28.4287 47.9209 27.7802 47.4336 27.3764L42.0542 22.9205L49.0304 22.4716ZM21.6969 42.5149C28.8632 42.5149 34.6932 36.6845 34.6932 29.5182C34.6932 22.3489 28.863 16.5161 21.6969 16.5161C14.5276 16.5161 8.69479 22.3489 8.69479 29.5182C8.69458 36.6845 14.5274 42.5149 21.6969 42.5149ZM21.6969 19.7887C27.0587 19.7887 31.4209 24.1534 31.4209 29.5184C31.4209 34.8802 27.0587 39.2426 21.6969 39.2426C16.3319 39.2426 11.967 34.8804 11.967 29.5184C11.967 24.1534 16.3317 19.7887 21.6969 19.7887ZM14.6185 27.3426V26.2228C14.6185 25.3193 15.351 24.5865 16.2546 24.5865C17.1582 24.5865 17.8907 25.3191 17.8907 26.2228V27.3426C17.8907 28.2461 17.1582 28.9789 16.2546 28.9789C15.3508 28.9789 14.6185 28.2463 14.6185 27.3426ZM25.4275 27.3426V26.2228C25.4275 25.3193 26.1601 24.5865 27.0636 24.5865C27.9672 24.5865 28.6997 25.3191 28.6997 26.2228V27.3426C28.6997 28.2461 27.9672 28.9789 27.0636 28.9789C26.1599 28.9789 25.4275 28.2463 25.4275 27.3426ZM18.6925 33.0337C19.6039 33.6458 20.5401 33.9791 21.4761 34.0248C22.4077 33.9791 23.3452 33.645 24.2631 33.0316C25.0145 32.5298 26.0304 32.7316 26.5325 33.483C27.0345 34.2344 26.8323 35.2504 26.0811 35.7524C24.6316 36.721 23.1021 37.2409 21.5355 37.2975C21.5159 37.2983 21.4962 37.2987 21.4765 37.2987C21.4568 37.2987 21.4371 37.2983 21.4176 37.2975C19.8434 37.2409 18.3129 36.7202 16.8684 35.7504C16.1182 35.2465 15.9185 34.2301 16.4223 33.4799C16.9258 32.7298 17.9424 32.5302 18.6925 33.0337ZM83.2011 41.0609C83.5079 41.3677 83.924 41.5401 84.3579 41.5401C84.7919 41.5401 85.208 41.3677 85.5148 41.0609L94.9301 31.6455C96.4943 30.0849 97.3558 28.0017 97.3558 25.7791C97.3558 23.5566 96.4945 21.4732 94.9328 19.9148C93.3722 18.3507 91.2886 17.4892 89.0663 17.4892C87.3564 17.4892 85.7287 17.9992 84.3579 18.9469C82.9874 17.9992 81.3595 17.4892 79.6496 17.4892C77.4279 17.4892 75.345 18.3503 73.7843 19.9136C72.221 21.4741 71.3599 23.5572 71.3599 25.7791C71.3599 28.0015 72.2214 30.0847 73.7843 31.6441L83.2011 41.0609ZM76.097 22.2289C76.0978 22.2279 76.0986 22.2271 76.0997 22.2263C77.042 21.2819 78.3028 20.7616 79.6498 20.7616C80.9967 20.7616 82.2575 21.2819 83.1999 22.2263C83.5069 22.5339 83.9236 22.7068 84.3582 22.7068C84.7927 22.7068 85.2094 22.5339 85.5164 22.2263C86.4588 21.2819 87.7196 20.7616 89.0665 20.7616C90.4135 20.7616 91.6741 21.2819 92.6191 22.2289C93.5635 23.1713 94.0838 24.4321 94.0836 25.7791C94.0836 27.1258 93.5635 28.3866 92.6177 29.3302L84.3579 37.5899L76.097 29.3288C75.1526 28.3864 74.6325 27.1258 74.6325 25.7791C74.6323 24.4321 75.1526 23.1713 76.097 22.2289Z" fill="black"/>
    </g>
    <defs>
        <clipPath id="clip0_33_2347">
            <rect width="105" height="105" fill="white" transform="translate(0.527344)"/>
        </clipPath>
    </defs>
</svg>
