<svg viewBox="0 0 106 100" fill="none" xmlns="http://www.w3.org/2000/svg">
    <path d="M62.166 27.9629C62.166 33.01 58.0745 37.1016 53.0273 37.1016C47.9802 37.1016 43.8887 33.01 43.8887 27.9629C43.8887 22.9157 47.9802 18.8242 53.0273 18.8242C58.0745 18.8242 62.166 22.9157 62.166 27.9629Z" fill="white" stroke="black"/>
    <path d="M45.0996 29.1274H44.4839L44.6103 29.73C45.3177 33.1019 48.0039 35.7509 51.3945 36.4054L51.9893 36.5202V35.9144V29.6274V29.1274H51.4893H45.0996ZM54.0654 35.9146V36.5204L54.6602 36.4056C58.0508 35.7509 60.737 33.1019 61.4444 29.7302L61.5708 29.1276H60.9551H54.5654H54.0654V29.6276V35.9146ZM61.0024 27.0512H61.5984L61.4948 26.4643C60.8772 22.965 58.1408 20.1908 54.6602 19.5189L54.0654 19.4041V20.0098V26.5512V27.0512H54.5654H61.0024ZM51.9893 20.0098V19.4041L51.3945 19.5189C47.9139 20.1908 45.1775 22.965 44.5599 26.4643L44.4563 27.0512H45.0523H51.4893H51.9893V26.5512V20.0098ZM63.7041 27.9621C63.7041 33.849 58.9142 38.6391 53.0273 38.6391C47.1405 38.6391 42.3506 33.849 42.3506 27.9621C42.3506 22.0752 47.1405 17.2852 53.0273 17.2852C58.9142 17.2852 63.7041 22.0752 63.7041 27.9621Z" fill="#3D619D" stroke="black"/>
    <path d="M96.7506 44.356C97.7065 45.0901 98.891 45.408 100.086 45.2509L96.7506 44.356ZM96.7506 44.356L96.4912 44.1568M96.7506 44.356L96.4912 44.1568M96.4912 44.1568V43.7729H95.9912L95.6867 44.1695L95.9912 44.4033V89.91V90.41H96.4912H100.913C103.457 90.41 105.527 92.48 105.527 95.0244C105.527 97.5686 103.457 99.6387 100.913 99.6387H5.1416C2.5974 99.6387 0.527344 97.5686 0.527344 95.0244C0.527344 92.48 2.5974 90.41 5.1416 90.41L96.4912 44.1568ZM95.4912 90.41V90.91H95.9912H100.913C103.181 90.91 105.027 92.7561 105.027 95.0244C105.027 97.2925 103.181 99.1387 100.913 99.1387H5.1416C2.87354 99.1387 1.02734 97.2925 1.02734 95.0244C1.02734 92.7561 2.87356 90.91 5.1416 90.91H10.0635H10.5635V90.41V43.7754V42.7611L9.75897 43.3788L8.99936 43.962L8.99934 43.9621C8.29122 44.5059 7.44892 44.7921 6.55828 44.7921C5.2991 44.7921 4.14041 44.2212 3.37443 43.2234L3.37437 43.2233C2.72114 42.3728 2.43881 41.3212 2.57859 40.2581L2.57861 40.258C2.71823 39.1944 3.26223 38.2514 4.11285 37.5984L4.11291 37.5984L13.6492 30.2757L13.8447 30.1256V29.8791V11.3201V10.9113L13.444 10.8301C12.9705 10.7341 12.6143 10.3148 12.6143 9.81302V3.66047C12.6143 3.08697 13.0788 2.62238 13.6523 2.62238H32.5195C33.093 2.62238 33.5576 3.08697 33.5576 3.66047V9.81302C33.5576 10.3145 33.2015 10.734 32.7277 10.8301L32.3271 10.9114V11.3201V14.9191V15.9334L33.1317 15.3156L50.584 1.9144C52.0224 0.810048 54.0323 0.809602 55.4704 1.91415L55.4705 1.91419L79.1456 20.0922C79.1456 20.0922 79.1457 20.0923 79.1457 20.0923C79.6005 20.4419 79.686 21.0935 79.3371 21.548C78.9878 22.0028 78.3363 22.0883 77.8813 21.7394C77.8813 21.7393 77.8812 21.7393 77.8812 21.7393L54.206 3.5609C53.5114 3.02736 52.5428 3.0282 51.8486 3.56069L51.8484 3.56085L5.37705 39.2451L5.37701 39.2451C4.96779 39.5594 4.7039 40.0166 4.63682 40.5284C4.56978 41.0399 4.70642 41.5498 5.02085 41.959C5.38975 42.4394 5.9524 42.716 6.55828 42.716C6.98644 42.716 7.39504 42.5765 7.735 42.3154C7.73503 42.3154 7.73505 42.3153 7.73508 42.3153L52.395 8.02207C52.7681 7.7357 53.2869 7.73573 53.6594 8.02181L53.6594 8.02183L98.3195 42.3127L98.3196 42.3128C98.7298 42.6276 99.2386 42.7623 99.7486 42.6972L99.7502 42.697C100.263 42.6299 100.719 42.3656 101.034 41.9566L101.034 41.9565C101.684 41.1095 101.524 39.8927 100.677 39.2422L100.677 39.2422L83.0859 25.7356C82.631 25.3861 82.5455 24.7343 82.8945 24.2798C83.2442 23.8251 83.8954 23.7397 84.3502 24.0885C84.3503 24.0885 84.3503 24.0885 84.3504 24.0886L101.942 37.5953C103.696 38.9423 104.027 41.4665 102.681 43.2207C102.027 44.0714 101.084 44.6156 100.021 44.7552L100.021 44.7552C98.9574 44.895 97.9059 44.6128 97.0552 43.9594L97.0551 43.9594L96.2957 43.3763L95.4912 42.7587V43.7729V90.41ZM29.751 15.1324H30.251V14.6324V11.3511V10.8511H29.751H16.4209H15.9209V11.3511V14.6324V15.1324H16.4209H29.751ZM16.4209 17.2085H15.9209V17.7085V21.8101V22.3101H16.4209H23.8529H24.0228L24.1574 22.2067L29.4989 18.1051L30.6665 17.2085H29.1944H16.4209ZM15.1904 4.69855H14.6904V5.19855V8.27473V8.77473H15.1904H30.9814H31.4814V8.27473V5.19855V4.69855H30.9814H15.1904ZM16.4209 24.3865H15.9209V24.8865V27.5172V28.5316L16.7254 27.9138L20.1513 25.283L21.3188 24.3865H19.8467H16.4209ZM12.6396 90.4102V90.9102H13.1396H19.9782C20.5517 90.9102 21.0163 91.3747 21.0163 91.9482C21.0163 92.5217 20.5517 92.9863 19.9782 92.9863H5.1416C4.01726 92.9863 3.10352 93.9001 3.10352 95.0244C3.10352 96.1488 4.01726 97.0625 5.1416 97.0625H100.913C102.038 97.0625 102.951 96.1485 102.951 95.0242C102.951 93.8999 102.037 92.9861 100.913 92.9861H26.667C26.0935 92.9861 25.6289 92.5215 25.6289 91.948C25.6289 91.3745 26.0935 90.91 26.667 90.91H92.915H93.415V90.41V41.4108V41.1644L93.2195 41.0143L53.3318 10.3879L53.0273 10.1541L52.7228 10.3879L12.8351 41.0167L12.6396 41.1668V41.4133V90.4102Z" fill="#3D619D" stroke="black"/>
    <rect x="44.9922" y="60.168" width="17.7114" height="31.0723" rx="1.5" stroke="black" stroke-width="3"/>
</svg>
