<svg viewBox="0 0 106 85" fill="none" xmlns="http://www.w3.org/2000/svg">
    <path d="M92.5088 0C91.1245 0 89.7609 0.216563 88.456 0.643535C87.6488 0.907676 87.2085 1.77618 87.4727 2.58337C87.7368 3.39056 88.6055 3.83045 89.4125 3.56672C90.4082 3.24085 91.4498 3.07576 92.5086 3.07576C97.9911 3.07576 102.452 7.53621 102.452 13.0188C102.452 18.5013 97.9911 22.9618 92.5086 22.9618C87.026 22.9618 82.5656 18.5013 82.5656 13.0188C82.5656 10.8829 83.2323 8.84769 84.4937 7.13323C84.997 6.44909 84.8505 5.48646 84.1664 4.98319C83.4821 4.47973 82.5194 4.62636 82.0164 5.3105C80.3636 7.55692 79.49 10.2223 79.49 13.0188C79.49 13.5555 79.5265 14.0833 79.5899 14.6032H5.2587H4.66828C4.40578 14.6032 4.1562 14.6729 3.93554 14.7929C1.96884 15.3667 0.527344 17.1847 0.527344 19.3344V79.4294C0.527344 81.8824 2.40401 83.9048 4.79687 84.1378C4.90822 84.1571 22.6298 84.1606 22.6298 84.1606C23.4791 84.1606 24.1677 83.4721 24.1677 82.6227C24.1677 81.7733 23.4793 81.0848 22.6298 81.0848H9.16995L43.079 51.5899L45.2569 53.4844C46.3119 54.4019 47.6346 54.8607 48.9576 54.8607C50.2805 54.8607 51.6035 54.4019 52.6582 53.4844L54.8361 51.5899L88.7452 81.085H29.8063C28.9571 81.085 28.2685 81.7735 28.2685 82.6229C28.2685 83.4723 28.9569 84.1608 29.8063 84.1608C29.8063 84.1608 92.7399 84.1587 92.7817 84.1575C92.8064 84.1587 92.831 84.1608 92.8556 84.1608C92.9372 84.1608 93.0184 84.1522 93.099 84.1395C95.5009 83.9155 97.3876 81.8891 97.3876 79.4296V25.0852C102.155 23.1505 105.527 18.4722 105.527 13.0186C105.527 5.84001 99.6873 0 92.5088 0ZM4.62788 80.9595C4.027 80.711 3.60311 80.1189 3.60311 79.4294V19.3344C3.60311 18.7429 3.91585 18.2243 4.38363 17.9314L40.7358 49.5518L4.62788 80.9595ZM94.3118 79.4294C94.3118 80.1189 93.8877 80.711 93.287 80.9595L57.1791 49.5518L68.5821 39.633C69.2228 39.0756 69.2905 38.1043 68.733 37.4635C68.1754 36.8226 67.204 36.7551 66.5635 37.3125L50.6396 51.1639C49.6807 51.998 48.2343 51.9982 47.2753 51.1639L8.77948 17.6788H80.3561C81.0656 19.5226 82.1831 21.1653 83.5969 22.4965L71.9042 32.6671C71.2635 33.2245 71.1958 34.1958 71.7532 34.8366C72.3104 35.4773 73.2817 35.545 73.9228 34.9876L86.1358 24.3641C88.0204 25.4278 90.1943 26.0369 92.5088 26.0369C93.1207 26.0369 93.7222 25.9914 94.3118 25.9092V79.4294Z" fill="black"/>
</svg>
