<svg width="76" height="76" viewBox="0 0 76 76" fill="none" xmlns="http://www.w3.org/2000/svg">
<rect width="76" height="76" rx="38" fill="#CEE2F1"/>
<path d="M36.1044 39.3242C36.9196 39.9134 37.9221 40.2608 39.006 40.2608H48.278V44.7566L54.1554 40.2608H56.691C59.4243 40.2608 61.6401 38.0518 61.6401 35.3268V17.6957C61.6401 14.9707 59.4243 12.7617 56.691 12.7617H39.006C36.2727 12.7617 34.0569 14.9707 34.0569 17.6957V39.3242H36.1044Z" fill="#F7F3F1"/>
<path d="M44.0349 33.0286L44.545 33.4415C45.3538 34.0961 46.3628 34.4534 47.4033 34.4534H54.6449C55.3314 34.4534 55.8841 33.8807 55.8514 33.187C55.8209 32.5373 55.8529 26.6206 55.8529 25.9535C55.8529 25.2865 55.3121 24.7456 54.6449 24.7456L49.7344 24.7307L50.3356 23.3068C50.9603 21.8272 50.8593 20.1409 50.0625 18.7464C49.8372 18.3521 49.3302 18.2227 48.9434 18.4607C48.7057 18.6069 48.5608 18.8661 48.5608 19.1452C48.5608 20.4221 48.0946 21.6551 47.2498 22.6125L44.1186 26.1556H42.9771V33.0285L44.0349 33.0286Z" fill="#FFD36C"/>
<path d="M43.5462 34.1182H40.24C40.0215 34.1182 39.8442 33.941 39.8442 33.7224V25.2942C39.8442 25.0756 40.0214 24.8984 40.24 24.8984H43.5462C43.7648 24.8984 43.942 25.0756 43.942 25.2942V33.7224C43.9419 33.9409 43.7647 34.1182 43.5462 34.1182Z" fill="#8EE6F3"/>
<path d="M36.1115 48.16V30.3655C36.1115 28.2167 34.3642 26.4746 32.2086 26.4746H18.2625C16.107 26.4746 14.3596 28.2167 14.3596 30.3655V44.2691C14.3596 46.4179 16.1069 48.16 18.2625 48.16H25.924V51.7386L30.5588 48.16H36.1115Z" fill="#4ED5EA"/>
<path d="M43.6612 45.3169H33.7643C32.2347 45.3169 30.9946 46.5531 30.9946 48.0781V57.9447C30.9946 59.4696 32.2347 60.7058 33.7643 60.7058H39.2012V63.2455L42.4904 60.7059H43.6612C45.1908 60.7059 46.4309 59.4697 46.4309 57.9448V48.0782C46.4308 46.5532 45.1907 45.3169 43.6612 45.3169Z" fill="#FA9084"/>
<path d="M38.7126 56.3641C41.0942 55.1016 42.328 54.0274 42.328 52.3631C42.328 50.0676 39.516 49.4937 38.7126 51.2154C37.7943 49.4364 35.0972 50.0677 35.0972 52.3631C35.0972 54.0274 36.331 55.1015 38.7126 56.3641Z" fill="#F7F3F1"/>
<path d="M56.6912 12H54.4555C53.4727 12 53.4727 13.5237 54.4555 13.5237H56.6912C59 13.5237 60.8785 15.3953 60.8785 17.6958V35.3268C60.8785 37.6274 59.0001 39.499 56.6912 39.499H54.1555C53.9882 39.499 53.8256 39.5541 53.6926 39.6558L49.0398 43.2148V40.2609C49.0398 39.8401 48.6988 39.499 48.2779 39.499H39.006C38.2467 39.499 37.517 39.2986 36.8734 38.9176V30.3656C36.8734 28.7638 36.0575 27.3485 34.8186 26.5112V17.6958C34.8186 15.3953 36.697 13.5237 39.006 13.5237H49.6813C50.664 13.5237 50.664 12 49.6813 12H39.006C35.8569 12 33.2949 14.5552 33.2949 17.6958V25.8416C32.9461 25.7583 32.5827 25.7129 32.2086 25.7129H18.2625C15.6905 25.7129 13.5979 27.8001 13.5979 30.3656V32.0107C13.5979 32.9933 15.1216 32.9933 15.1216 32.0107V30.3656C15.1216 28.6403 16.5305 27.2366 18.2625 27.2366H32.2087C33.9407 27.2366 35.3498 28.6403 35.3498 30.3656V39.2209C35.3407 39.2882 35.3411 39.3559 35.3498 39.4227V44.2691C35.3498 44.3649 35.344 44.4603 35.3354 44.5551H33.7643C32.0331 44.5551 30.5899 45.8046 30.2907 47.4468C30.2214 47.4729 30.1549 47.5094 30.0932 47.557L26.6858 50.1879V48.16C26.6858 47.7393 26.3448 47.3982 25.924 47.3982H18.2625C16.5305 47.3982 15.1216 45.9945 15.1216 44.2691V36.5816C15.1216 35.599 13.5979 35.599 13.5979 36.5816V44.2692C13.5979 46.8347 15.6905 48.9219 18.2625 48.9219H25.1622V51.7387C25.1622 52.3498 25.9043 52.7164 26.3897 52.3417L30.2329 49.3744V57.9449C30.2329 59.8876 31.8172 61.4679 33.7644 61.4679H38.4395V63.2456C38.4395 63.8565 39.1815 64.2235 39.6668 63.8487L42.7503 61.4679H43.6613C45.6085 61.4679 47.1928 59.8875 47.1928 57.9449V56.5923C47.1928 55.6097 45.6691 55.6097 45.6691 56.5923V57.9449C45.6691 59.0475 44.7685 59.9443 43.6613 59.9443H42.4904C42.3219 59.9443 42.1581 60.0001 42.0249 60.103L39.963 61.6949V60.706C39.963 60.2853 39.622 59.9442 39.2012 59.9442H33.7643C32.6572 59.9442 31.7564 59.0472 31.7564 57.9448V48.0782C31.7564 46.9757 32.6571 46.0789 33.7643 46.0789H43.6613C44.7683 46.0789 45.6691 46.9758 45.6691 48.0782V51.8182C45.6691 52.8009 47.1928 52.8009 47.1928 51.8182V48.0783C47.1928 46.1357 45.6085 44.5553 43.6613 44.5553H36.8647C36.8705 44.4602 36.8735 40.6123 36.8735 40.6123C37.5452 40.8824 38.2654 41.0228 39.0061 41.0228H47.5162V44.7568C47.5162 45.3663 48.2551 45.7333 48.7409 45.3619L54.4136 41.0228H56.6913C59.8403 41.0228 62.4022 38.4676 62.4022 35.3269V17.6958C62.4021 14.5552 59.8402 12 56.6912 12Z" fill="black"/>
<path d="M49.752 17.6287C48.7847 17.3818 47.799 18.1461 47.799 19.1456C47.799 20.2376 47.401 21.2901 46.6789 22.1085L44.5799 24.4837C44.444 24.2751 44.2092 24.1371 43.9417 24.1371H39.8441C39.4233 24.1371 39.0823 24.4782 39.0823 24.8989V34.1186C39.0823 34.5393 39.4233 34.8804 39.8441 34.8804H43.9417C44.2496 34.8804 44.5141 34.6974 44.6343 34.4348C45.4639 34.9416 46.4252 35.2157 47.4033 35.2157H54.6449C55.7515 35.2157 56.6644 34.2555 56.6124 33.1517C56.5894 32.663 56.6146 26.0998 56.6146 25.954C56.6146 24.8679 55.731 23.9842 54.6471 23.9842L50.8814 23.9729L51.0373 23.6037C51.7498 21.9162 51.6325 19.9594 50.7238 18.369C50.5117 17.9975 50.1665 17.7347 49.752 17.6287C50.1665 17.7347 49.3374 17.5229 49.752 17.6287C50.1665 17.7347 48.7848 17.3818 49.752 17.6287ZM43.1799 33.3567H40.6059V25.6607H43.1799V33.3567ZM54.6449 25.5078C54.8909 25.5078 55.091 25.7079 55.091 25.9539C55.091 26.0988 55.0895 26.4923 55.0875 27.0256C55.0762 29.9706 55.0687 32.7597 55.0904 33.2233C55.0983 33.3906 55.017 33.5021 54.9678 33.5537C54.8827 33.6429 54.768 33.6919 54.6449 33.6919H47.4033C46.5401 33.6919 45.6952 33.3928 45.0242 32.8497L44.7036 32.59V26.6446L47.8211 23.1169C48.7894 22.0195 49.3227 20.6091 49.3227 19.1455C49.3227 19.1024 49.3815 19.0912 49.401 19.1248C50.0757 20.3054 50.1626 21.758 49.6337 23.0108L49.0325 24.4348C48.9332 24.6698 48.9582 24.9386 49.0987 25.1513C49.2394 25.364 49.4771 25.4922 49.7319 25.493L54.6449 25.5078Z" fill="black"/>
<path d="M20.1212 38.4609C19.7004 38.4609 19.3594 38.8019 19.3594 39.2227C19.3594 39.6434 19.7004 39.9845 20.1212 39.9845H22.3669L21.9474 42.5218C21.8787 42.9368 22.1597 43.329 22.5747 43.3977C22.6169 43.4047 22.6586 43.4081 22.6998 43.4081C23.0659 43.4081 23.3888 43.1435 23.4506 42.7704L23.9111 39.9846H25.749L25.3295 42.5219C25.2608 42.9369 25.5418 43.3291 25.9568 43.3978C25.999 43.4048 26.0407 43.4082 26.0819 43.4082C26.448 43.4082 26.7709 43.1436 26.8327 42.7705L27.2933 39.9847H30.35C30.7708 39.9847 31.1118 39.6436 31.1118 39.2229C31.1118 38.8022 30.7708 38.4611 30.35 38.4611H27.5452L27.8524 36.6026H30.35C30.7708 36.6026 31.1118 36.2615 31.1118 35.8408C31.1118 35.42 30.7708 35.0789 30.35 35.0789H28.1043L28.5239 32.5417C28.5925 32.1266 28.3116 31.7344 27.8965 31.6658C27.481 31.5969 27.0893 31.878 27.0206 32.2931L26.5601 35.0788H24.7222L25.1418 32.5416C25.2104 32.1265 24.9295 31.7343 24.5144 31.6657C24.0984 31.5968 23.7073 31.8779 23.6385 32.293L23.178 35.0787H20.1212C19.7004 35.0787 19.3594 35.4198 19.3594 35.8406C19.3594 36.2613 19.7004 36.6024 20.1212 36.6024H22.9261L22.6188 38.4609H20.1212ZM24.4704 36.6024H26.3083L26.001 38.4609H24.1632L24.4704 36.6024Z" fill="black"/>
<path d="M38.7036 50.0098C38.0884 49.5033 37.27 49.3035 36.4491 49.5031C35.397 49.7585 34.3354 50.742 34.3354 52.3631C34.3354 53.3721 34.7037 54.2478 35.4611 55.0406C36.0798 55.6881 36.9727 56.3039 38.356 57.0373C38.4676 57.0965 38.5902 57.126 38.7128 57.126C38.8354 57.126 38.958 57.0965 39.0697 57.0373C41.4829 55.7579 43.0901 54.4735 43.0901 52.3631C43.0901 50.7332 41.9908 49.7598 40.9013 49.5181C40.0828 49.3365 39.2893 49.5293 38.7036 50.0098ZM41.5663 52.3631C41.5663 53.5014 40.8113 54.3431 38.7127 55.4984C36.6141 54.343 35.859 53.5013 35.859 52.3631C35.859 51.5161 36.3494 51.0952 36.8084 50.9837C36.8931 50.9632 36.9837 50.9516 37.0768 50.9516C37.4221 50.9516 37.8017 51.111 38.0357 51.5648C38.1691 51.823 38.4387 51.9831 38.7278 51.9771C39.0183 51.9713 39.2802 51.8009 39.403 51.5376C39.6496 51.0092 40.168 50.9162 40.5711 51.0057C41.0523 51.1123 41.5663 51.525 41.5663 52.3631Z" fill="black"/>
</svg>
