<svg width="76" height="76" viewBox="0 0 76 76" fill="none" xmlns="http://www.w3.org/2000/svg">
<rect width="76" height="76" rx="38" fill="#CEE2F1"/>
<path d="M37.7084 14C38.7654 15.248 41.0258 18.0982 42.3567 22.1965H33.0625C34.3942 18.1048 36.6529 15.2504 37.7084 14Z" fill="#F37053"/>
<path d="M38 63.1875C49.667 63.1875 59.125 53.9114 59.125 42.4688C59.125 31.0261 49.667 21.75 38 21.75C26.333 21.75 16.875 31.0261 16.875 42.4688C16.875 53.9114 26.333 63.1875 38 63.1875Z" fill="#DCDDDE"/>
<path d="M49.2789 43.1218C48.2844 42.6717 46.8389 42.1427 45.3123 41.9851V36.9492C47.5093 38.0201 48.9141 40.4852 49.2789 43.1218Z" fill="white"/>
<path d="M26.7207 43.1221C27.0855 40.4855 28.4903 38.0212 30.6873 36.9487V41.983C29.1606 42.1414 27.7144 42.6712 26.7207 43.1221Z" fill="white"/>
<path d="M32.3123 42.875V29.0625C32.3123 27.3075 32.5406 25.6817 32.9005 24.1875H43.1006C43.4598 25.6809 43.6873 27.3059 43.6873 29.0625V42.875H42.8748H33.1248H32.3123Z" fill="white"/>
<path d="M34.7498 46.125V44.5H41.2498V46.125H40.4373H35.5623H34.7498Z" fill="white"/>
<path d="M44.5 43.6875V29.0625C44.5 19.3125 38 12.8125 38 12.8125V43.6875H44.5Z" fill="#DCDDDE"/>
<path d="M38 31.5C39.3462 31.5 40.4375 30.4087 40.4375 29.0625C40.4375 27.7163 39.3462 26.625 38 26.625C36.6538 26.625 35.5625 27.7163 35.5625 29.0625C35.5625 30.4087 36.6538 31.5 38 31.5Z" fill="#53B7E8"/>
<path d="M56.1999 52.9338C55.3305 54.3881 54.2662 55.7531 53.0149 57.0044C52.048 57.9712 51.008 58.8244 49.9112 59.5638C42.7693 64.4144 33.3118 64.3981 26.1862 59.515C25.1137 58.7919 24.098 57.955 23.1474 57.0044C21.8555 55.7125 20.7587 54.2906 19.873 52.7875C20.6937 51.2438 22.3187 50.1875 24.1874 50.1875C26.4137 50.1875 28.2905 51.6906 28.8755 53.7381C29.5905 52.5844 30.858 51.8125 32.3124 51.8125C34.2787 51.8125 35.9199 53.21 36.2937 55.0625H36.3749V46.9375H39.6249V55.0625H39.7062C40.0799 53.21 41.7212 51.8125 43.6874 51.8125C45.1418 51.8125 46.4093 52.5844 47.1243 53.7381C47.7012 51.6906 49.578 50.1875 51.8124 50.1875C53.738 50.1875 55.4037 51.3088 56.1999 52.9338Z" fill="#FFD768"/>
<path d="M41.25 44.5H38V46.125H41.25V44.5Z" fill="#DCDDDE"/>
<path d="M53.1994 26.8631L52.625 26.2886L51.4761 27.4375L52.0506 28.0119C56.1472 32.1094 58.3125 36.9673 58.3125 42.0625C58.3125 45.3352 57.539 48.4861 56.0871 51.3161C55.0219 50.0965 53.4862 49.375 51.8125 49.375C49.7601 49.375 47.8938 50.493 46.8944 52.2139C46.0202 51.4387 44.89 51 43.6875 51C42.4549 51 41.3085 51.4664 40.4375 52.2439V47.75H42.875V44.5H45.3125V43.6241C47.581 43.9093 49.7349 45.176 49.7674 45.1963L51 45.9373V44.5C51 40.5342 48.9135 36.4652 45.3125 35.1774V29.0625C45.3125 19.0907 38.8499 12.8491 38.5744 12.5744L38 12L37.4256 12.5744C37.1501 12.8491 30.6875 19.0907 30.6875 29.0625V35.1774C27.0865 36.4652 25 40.5342 25 44.5L25.0008 45.9373L26.2326 45.1963C26.2659 45.176 28.4198 43.9077 30.6875 43.6233V44.5H33.125V47.75H35.5625V52.2439C34.6915 51.4664 33.5451 51 32.3125 51C31.1084 51 29.9774 51.4396 29.1031 52.2163C28.0989 50.4938 26.2334 49.375 24.1875 49.375C22.5259 49.375 20.9846 50.1038 19.9162 51.3226C18.4618 48.491 17.6875 45.3369 17.6875 42.0617C17.6875 36.9673 19.8528 32.1094 23.9494 28.0119L24.5239 27.4375L23.375 26.2886L22.8006 26.8631C18.3928 31.2717 16.0625 36.5278 16.0625 42.0617C16.0625 47.9223 18.3448 53.431 22.4877 57.5747C26.7647 61.8509 32.3824 64 38 64C43.6176 64 49.2352 61.8509 53.5122 57.5747C57.6552 53.431 59.9375 47.9222 59.9375 42.0625C59.9375 36.5278 57.6073 31.2717 53.1994 26.8631ZM49.2791 43.122C48.2846 42.6719 46.8392 42.1429 45.3125 41.9853V36.9494C47.5095 38.0203 48.9143 40.4854 49.2791 43.122ZM38.0008 14.366C39.0579 15.614 41.3183 18.4642 42.6491 22.5625H33.3549C34.6866 18.4708 36.9454 15.6164 38.0008 14.366ZM26.7209 43.122C27.0857 40.4854 28.4905 38.0211 30.6875 36.9486V41.9829C29.1608 42.1413 27.7146 42.6711 26.7209 43.122ZM32.3125 42.875V29.0625C32.3125 27.3075 32.5408 25.6817 32.9008 24.1875H43.1009C43.46 25.6809 43.6875 27.3059 43.6875 29.0625V42.875H42.875H33.125H32.3125ZM34.75 46.125V44.5H41.25V46.125H40.4375H35.5625H34.75ZM52.3634 56.4259C44.4431 64.3453 31.5569 64.3453 23.6374 56.4259C22.543 55.3314 21.594 54.1306 20.7888 52.8517C21.5388 51.7036 22.8054 51 24.1875 51C25.9896 51 27.5959 52.2179 28.0948 53.9616L28.5994 55.7279L29.5663 54.1663C30.1643 53.2011 31.1913 52.625 32.3125 52.625C33.8538 52.625 35.1936 53.7178 35.4967 55.2226L35.6291 55.875H37.1875V47.75H38.8125V55.875H40.3709L40.5025 55.2226C40.8064 53.7178 42.1462 52.625 43.6875 52.625C44.8087 52.625 45.8358 53.2011 46.4338 54.1655L47.4063 55.7352L47.9068 53.9583C48.3968 52.2163 50.0031 51 51.8125 51C53.2043 51 54.4645 51.6979 55.2136 52.8484C54.4084 54.1281 53.4586 55.3298 52.3634 56.4259Z" fill="#0C3847"/>
<path d="M38 25.8125C36.2076 25.8125 34.75 27.2701 34.75 29.0625C34.75 30.8549 36.2076 32.3125 38 32.3125C39.7924 32.3125 41.25 30.8549 41.25 29.0625C41.25 27.2701 39.7924 25.8125 38 25.8125ZM38 30.6875C37.1038 30.6875 36.375 29.9587 36.375 29.0625C36.375 28.1663 37.1038 27.4375 38 27.4375C38.8962 27.4375 39.625 28.1663 39.625 29.0625C39.625 29.9587 38.8962 30.6875 38 30.6875Z" fill="#0C3847"/>
<path d="M50.1875 30.6875V31.5H49.375V33.125H50.1875V33.9375H51.8125V33.125H52.625V31.5H51.8125V30.6875H50.1875Z" fill="#0C3847"/>
<path d="M26.625 29.875H28.25V29.0625H29.0625V27.4375H28.25V26.625H26.625V27.4375H25.8125V29.0625H26.625V29.875Z" fill="#0C3847"/>
</svg>
