<svg width="76" height="76" viewBox="0 0 76 76" fill="none" xmlns="http://www.w3.org/2000/svg">
<rect width="76" height="76" rx="38" fill="#CEE2F1"/>
<path d="M56.5288 27.5689L55.4279 16.1847C55.3709 15.5956 55.8002 15.0744 56.3893 15.0174L60.732 14.5975C61.3306 14.5396 61.8518 14.9688 61.9088 15.5579L63.0097 26.9422C63.0667 27.5313 62.6374 28.0524 62.0388 28.1102L57.6961 28.5301C57.1068 28.5871 56.5858 28.158 56.5288 27.5689Z" fill="#92E6FD"/>
<path d="M23.6178 22.914C23.7098 22.6501 23.8821 22.4057 24.1318 22.2144L31.6516 16.5271C35.8499 13.6493 41.1391 12.858 46.0011 14.3632L55.5499 17.4516L56.4109 26.3073L52.6909 27.6897C49.4935 28.8716 45.8938 27.7894 43.8844 25.0431L38.7949 23.267C38.1355 23.0368 37.5667 22.647 37.1163 22.1417L29.0802 25.1685C27.4791 25.7413 25.704 25.5657 24.2534 24.6851C23.614 24.2965 23.3957 23.5502 23.6178 22.914Z" fill="#FED480"/>
<path d="M21.0809 50.0469L22.1818 61.4311C22.2388 62.0202 21.8095 62.5414 21.2204 62.5984L16.8777 63.0183C16.2791 63.0762 15.7579 62.647 15.701 62.0578L14.6 50.6736C14.5431 50.0845 14.9723 49.5633 15.5709 49.5056L19.9136 49.0857C20.5029 49.0285 21.0241 49.4576 21.0809 50.0469Z" fill="#92E6FD"/>
<path d="M53.9929 54.7017C53.9008 54.9656 53.7286 55.21 53.4788 55.4013L45.959 61.0886C41.7608 63.9663 36.4715 64.7577 31.6095 63.2526L22.0608 60.1642L21.1997 51.3085L24.9198 49.9261C28.1171 48.7443 31.7169 49.8264 33.7263 52.5728L38.8157 54.3488C39.4751 54.579 40.0439 54.9689 40.4943 55.4742L48.5304 52.4473C50.1315 51.8746 51.9066 52.0502 53.3572 52.9307C53.9967 53.3192 54.215 54.0655 53.9929 54.7017Z" fill="#FED480"/>
<path d="M28.4263 35.4731C28.4263 43.4989 38.8356 50.3413 38.8356 50.3413C38.8356 50.3413 49.245 43.4989 49.245 35.4731C49.245 32.4207 46.7584 29.9341 43.7058 29.9341C41.5966 29.9341 39.7616 31.1175 38.8356 32.8323C37.8925 31.1174 36.0576 29.9341 33.9653 29.9341C30.8957 29.9339 28.4263 32.4207 28.4263 35.4731Z" fill="#F59977"/>
<path d="M61.3702 14.435C61.2836 13.5301 60.4737 12.9035 59.6082 12.9923L55.2657 13.412C54.3748 13.4993 53.7379 14.2837 53.8221 15.1646L53.8662 15.6208L45.0846 12.7808C40.0355 11.2137 34.6376 12.0271 30.2554 15.0265L22.7324 20.711C21.584 21.5797 21.6821 23.3277 22.9019 24.0684C24.4802 25.0309 26.4122 25.2425 28.195 24.594L35.9044 21.6926C36.3659 22.1315 36.9191 22.4793 37.5438 22.6971L42.4789 24.4192C44.0493 26.4742 46.4865 27.6216 48.9865 27.6216C49.9307 27.6216 50.8856 27.4583 51.8047 27.117L54.8676 25.9816L54.9223 26.5485V26.5496C55.0039 27.3776 55.7034 27.9996 56.5177 27.9996C56.6447 27.9996 57.3404 27.9256 61.0173 27.5724C61.9029 27.4865 62.5552 26.7004 62.4714 25.8189L61.3702 14.435ZM51.4321 26.1119C48.4726 27.2081 45.1057 26.1958 43.2422 23.6507C43.1784 23.5628 43.0893 23.4969 42.9868 23.4612L37.8978 21.6856C36.6782 21.2595 35.7966 20.2021 35.5988 18.927C35.538 18.5314 35.9213 18.2189 36.2908 18.3492L45.4427 21.5434C46.1093 21.7812 46.4681 20.766 45.7966 20.532L36.6447 17.3378C35.5034 16.9411 34.3547 17.9011 34.5394 19.0913C34.6367 19.7168 34.8594 20.3021 35.1839 20.8187L27.8234 23.5888C26.3693 24.1154 24.779 23.9573 23.459 23.1523C22.8758 22.7987 22.8407 21.9731 23.3795 21.5651L30.8815 15.8961C34.9727 13.0956 40.0334 12.3346 44.7601 13.8024L53.9786 16.7836L54.7609 24.8777L51.4321 26.1119ZM60.9149 26.5045L56.5712 26.9244C56.2791 26.9642 56.0174 26.738 55.9902 26.4459L54.8899 15.0609C54.8599 14.7701 55.0712 14.5083 55.3684 14.4799L59.712 14.0602C59.9833 14.0229 60.2723 14.2232 60.3024 14.5375L61.4038 25.9214C61.433 26.2199 61.2174 26.4763 60.9149 26.5045Z" fill="#021938"/>
<path d="M59.0515 22.6426C58.6138 22.4888 58.1428 22.517 57.725 22.718C57.3094 22.919 56.9964 23.2708 56.8435 23.7084C56.53 24.6058 57.0105 25.5912 57.9114 25.9058C58.3406 26.0569 58.8129 26.0347 59.2315 25.8347C59.6503 25.6347 59.9643 25.2851 60.1172 24.8486C60.4302 23.9472 59.9529 22.9577 59.0515 22.6426ZM59.1049 24.4957C59.0472 24.66 58.929 24.7909 58.7708 24.8663C58.2468 25.118 57.6636 24.6125 57.8558 24.0613C57.8558 24.0613 57.8558 24.0602 57.8569 24.0602C57.9528 23.7832 58.2108 23.6173 58.4788 23.6173C58.9391 23.6173 59.2523 24.0715 59.1049 24.4957Z" fill="#021938"/>
<path d="M52.5626 51.4028C50.9619 50.4281 49.0335 50.2355 47.2684 50.8783L39.5599 53.7789C39.0984 53.3401 38.5452 52.9926 37.9205 52.7753L32.9857 51.0521C30.8218 48.2202 27.0111 47.1106 23.66 48.3542L20.596 49.49L20.5412 48.9236C20.4569 48.064 19.7173 47.4081 18.7887 47.4789L14.445 47.8986C13.5583 47.9854 12.9071 48.7728 12.993 49.6521L14.0932 61.0371C14.1748 61.8652 14.8784 62.4871 15.6991 62.4871C15.8247 62.4871 16.5684 62.4086 20.1998 62.0599C21.0792 61.9731 21.7261 61.1879 21.6425 60.3074L21.5983 59.8508L30.3799 62.6902C32.0655 63.2136 33.7896 63.4712 35.5023 63.4712C38.9184 63.4712 42.2883 62.4443 45.2091 60.4456L52.7321 54.7611C53.2691 54.3548 53.5697 53.711 53.5362 53.0379C53.5027 52.3648 53.1383 51.7534 52.5626 51.4028ZM20.0963 60.9924L15.7526 61.4121C15.4427 61.4435 15.1905 61.23 15.1611 60.9336L14.0608 49.5486C14.0315 49.2513 14.2461 48.9959 14.5487 48.9665C19.5271 48.4855 18.8331 48.5436 18.9436 48.5436C19.2184 48.5436 19.447 48.7511 19.4733 49.0262L20.5747 60.4101C20.603 60.7023 20.3883 60.9641 20.0963 60.9924ZM52.0852 53.9059L44.5831 59.5759C40.4919 62.3752 35.4365 63.1364 30.7034 61.6686L21.4859 58.6886L20.7028 50.5935L24.0327 49.3592C26.9913 48.2601 30.357 49.2745 32.2226 51.8204C32.2864 51.9084 32.3755 51.9743 32.478 52.01L37.5681 53.7876C38.7878 54.2116 39.6682 55.2691 39.865 56.5462C39.9273 56.9402 39.5431 57.2526 39.174 57.122L30.0221 53.9289C29.7436 53.8295 29.4358 53.9792 29.3395 54.2577C29.241 54.5372 29.3887 54.8428 29.6682 54.9403L38.8201 58.1333C39.9476 58.5316 41.111 57.5806 40.9243 56.3819C40.8277 55.7553 40.6051 55.1695 40.2806 54.6525L47.6401 51.8833C49.0922 51.3547 50.6844 51.5137 52.0057 52.3178C52.2821 52.4864 52.4495 52.768 52.4653 53.0915C52.4821 53.4139 52.3427 53.7113 52.0852 53.9059Z" fill="#021938"/>
<path d="M17.5538 49.5667C16.6664 49.2559 15.6679 49.7101 15.3501 50.6219C15.0335 51.5261 15.5078 52.5129 16.4157 52.8309C17.8668 53.3335 19.2178 51.8223 18.542 50.4428C18.3389 50.0295 17.9883 49.7185 17.5538 49.5667ZM17.6103 51.4113C17.49 51.7547 17.112 51.9338 16.7686 51.8185C16.4246 51.6974 16.2398 51.3231 16.3614 50.9757C16.4827 50.6309 16.8629 50.4606 17.1999 50.5779C17.5444 50.6984 17.7287 51.0721 17.6103 51.4113Z" fill="#021938"/>
<path d="M37.4704 49.7178C37.6483 49.8351 37.8807 49.8351 38.0587 49.7178C38.4941 49.4321 48.7098 42.622 48.7098 34.4017C48.7098 31.0517 45.9848 28.3267 42.6347 28.3267C40.6928 28.3267 38.8942 29.2449 37.7613 30.7701C36.616 29.2447 34.8185 28.3267 32.8932 28.3267C29.5432 28.3267 26.8181 31.0517 26.8181 34.4017C26.8181 42.6218 37.0348 49.4319 37.4704 49.7178ZM32.8932 29.3985C34.719 29.3985 36.4055 30.4024 37.2943 32.019C37.4813 32.3598 38.0252 32.4066 38.2365 32.0148C39.1075 30.4016 40.792 29.3987 42.6344 29.3987C45.3929 29.3987 47.6375 31.6432 47.6375 34.4017C47.6375 41.2987 39.4361 47.4398 37.7642 48.6187C36.0923 47.4409 27.8898 41.305 27.8898 34.4017C27.8901 31.643 30.1347 29.3985 32.8932 29.3985Z" fill="#021938"/>
</svg>
