<svg width="76" height="76" viewBox="0 0 76 76" fill="none" xmlns="http://www.w3.org/2000/svg">
<rect width="76" height="76" rx="38" fill="#CEE2F1"/>
<path d="M60.0985 46.1997H55.5132V55.5265C55.5132 56.1549 55.2878 56.7314 54.9064 57.1778C54.4643 57.7152 53.7926 58.0532 53.0428 58.0662H38.0905V63.6008H18.5398V58.0662C18.5398 58.0662 19.684 44.3361 17.8377 40.2535C16.7022 37.7701 16.0737 35.018 16.0737 32.1099C16.0737 20.0397 26.9174 10.5179 39.3863 12.7109C49.6536 14.5268 56.848 24.482 55.3311 34.81V34.8186L60.0985 46.1997Z" fill="white"/>
<g opacity="0.1">
<path d="M54.8982 57.1788C54.4561 57.7162 53.7843 58.0543 53.0345 58.0673H38.0866V63.6018H30.1423C30.3504 63.3851 30.5671 63.1684 30.7794 62.9647C31.6159 62.1716 32.7774 61.4911 33.8912 61.8118C34.0863 61.8725 34.2943 61.9679 34.511 61.9462C34.7884 61.9245 35.0181 61.7208 35.2001 61.4911C35.8589 60.698 36.2186 59.7098 36.6823 58.7824C37.1548 57.8636 37.8049 56.9578 38.7627 56.5764C39.3608 56.351 40.0195 56.351 40.6696 56.351L46.2648 56.3813C47.1706 56.3813 48.0894 56.3813 48.9649 56.1343C49.472 55.9913 49.9444 55.7616 50.4385 55.5795C51.6043 55.1678 53.0042 55.0855 53.975 55.8569C54.4128 56.1863 54.7118 56.65 54.8982 57.1788Z" fill="black"/>
</g>
<g opacity="0.1">
<path d="M50.6827 19.2778C48.1387 17.1021 45.0052 15.5549 41.5293 14.9395C29.0604 12.7421 18.2167 22.2683 18.2167 34.3341C18.2167 37.2423 18.8451 39.9944 19.9806 42.4777C21.8269 46.5604 20.6827 60.2905 20.6827 60.2905V63.5973H18.4551V58.0628C18.4551 58.0628 19.5992 44.3327 17.753 40.2501C16.6174 37.7667 15.989 35.0146 15.989 32.1065C15.989 20.0363 26.8327 10.5145 39.3016 12.7075C43.8697 13.5136 47.8309 15.9363 50.6827 19.2778Z" fill="black"/>
</g>
<path d="M38.0038 64H18.4532C18.2321 64 18.0544 63.8223 18.0544 63.6013V58.0624C18.0674 57.8934 19.1683 44.3583 17.387 40.4143C16.1951 37.8009 15.5884 35.0055 15.5884 32.1061C15.5884 26.1468 18.2105 20.5299 22.7785 16.6943C27.3465 12.8631 33.3968 11.2638 39.3734 12.317C49.8617 14.1676 57.1471 24.2268 55.6606 34.7628L60.3803 46.0399C60.4323 46.1612 60.4193 46.3043 60.3456 46.4169C60.272 46.5296 60.1463 46.5946 60.0119 46.5946H55.8253V55.5227C55.8253 57.1176 54.5381 58.4351 52.9562 58.4568H38.4069V63.5926C38.4069 63.8223 38.2249 64 38.0038 64ZM18.8519 63.1982H37.6051V58.0624C37.6051 57.8414 37.7828 57.6637 38.0038 57.6637H52.9475C54.0873 57.6463 55.0191 56.6885 55.0191 55.527V46.2002C55.0191 45.9792 55.1968 45.8015 55.4179 45.8015H59.4052L54.8761 34.9752C54.8545 34.9275 54.8458 34.8755 54.8458 34.8191V34.8105C56.341 24.5996 49.3329 14.8914 39.2304 13.1058C33.4878 12.096 27.6759 13.6259 23.2899 17.3141C18.9039 20.9937 16.3858 26.3895 16.3858 32.1104C16.3858 34.8928 16.9666 37.5756 18.1108 40.085C19.9787 44.2153 18.8952 57.5293 18.8475 58.0971L18.8519 63.1982Z" fill="#65271C"/>
<path d="M55.4272 50.773H48.042C47.821 50.773 47.6433 50.5954 47.6433 50.3743C47.6433 50.1533 47.821 49.9756 48.042 49.9756H55.4272C55.6482 49.9756 55.8259 50.1533 55.8259 50.3743C55.8259 50.591 55.6482 50.773 55.4272 50.773Z" fill="#65271C"/>
<path d="M55.4285 53.4645H51.7359C51.5149 53.4645 51.3372 53.2868 51.3372 53.0657C51.3372 52.8447 51.5149 52.667 51.7359 52.667H55.4285C55.6495 52.667 55.8272 52.8447 55.8272 53.0657C55.8272 53.2868 55.6495 53.4645 55.4285 53.4645Z" fill="#65271C"/>
<path d="M35.0052 61.7337C34.7841 61.7337 34.6064 61.556 34.6064 61.335V34.8846C34.6064 34.6635 34.7841 34.4858 35.0052 34.4858C35.2262 34.4858 35.4039 34.6635 35.4039 34.8846V61.335C35.4082 61.556 35.2262 61.7337 35.0052 61.7337Z" fill="#65271C"/>
<path d="M35.0052 21.5698V35.664C35.0052 36.9642 33.9521 38.013 32.6562 38.013H22.6013V21.5698H35.0052Z" fill="#D5E7F2"/>
<g opacity="0.1">
<path d="M35.0052 21.5698V35.664C35.0052 36.9642 33.9521 38.013 32.6562 38.013H22.6013V37.3803H31.5467C32.8469 37.3803 33.8957 36.3271 33.8957 35.0312V21.5698H35.0052Z" fill="black"/>
</g>
<path d="M32.6575 38.4159H22.6026C22.3816 38.4159 22.2039 38.2382 22.2039 38.0172V21.5696C22.2039 21.3486 22.3816 21.1709 22.6026 21.1709H35.0065C35.2275 21.1709 35.4052 21.3486 35.4052 21.5696V35.6638C35.4096 37.1807 34.1744 38.4159 32.6575 38.4159ZM23.0056 37.6141H32.6575C33.7323 37.6141 34.6078 36.7386 34.6078 35.6638V21.9684H23.0056V37.6141Z" fill="#65271C"/>
<path d="M32.7925 25.1026H24.8179C24.5969 25.1026 24.4192 24.9249 24.4192 24.7039C24.4192 24.4829 24.5969 24.3052 24.8179 24.3052H32.7925C33.0135 24.3052 33.1912 24.4829 33.1912 24.7039C33.1912 24.9206 33.0135 25.1026 32.7925 25.1026Z" fill="#65271C"/>
<path d="M32.7925 27.6466H24.8179C24.5969 27.6466 24.4192 27.4689 24.4192 27.2478C24.4192 27.0268 24.5969 26.8491 24.8179 26.8491H32.7925C33.0135 26.8491 33.1912 27.0268 33.1912 27.2478C33.1912 27.4689 33.0135 27.6466 32.7925 27.6466Z" fill="#65271C"/>
<path d="M32.7925 30.1949H24.8179C24.5969 30.1949 24.4192 30.0172 24.4192 29.7962C24.4192 29.5752 24.5969 29.3975 24.8179 29.3975H32.7925C33.0135 29.3975 33.1912 29.5752 33.1912 29.7962C33.1912 30.0129 33.0135 30.1949 32.7925 30.1949Z" fill="#65271C"/>
<path d="M32.7925 32.7384H24.8179C24.5969 32.7384 24.4192 32.5607 24.4192 32.3396C24.4192 32.1186 24.5969 31.9409 24.8179 31.9409H32.7925C33.0135 31.9409 33.1912 32.1186 33.1912 32.3396C33.1912 32.5607 33.0135 32.7384 32.7925 32.7384Z" fill="#65271C"/>
<path d="M29.8367 35.2833H24.8179C24.5969 35.2833 24.4192 35.1056 24.4192 34.8846C24.4192 34.6635 24.5969 34.4858 24.8179 34.4858H29.8367C30.0577 34.4858 30.2354 34.6635 30.2354 34.8846C30.2354 35.1056 30.0577 35.2833 29.8367 35.2833Z" fill="#65271C"/>
<path d="M35.0071 21.5698V35.664C35.0071 36.9642 36.0602 38.013 37.3561 38.013H47.411V21.5698H35.0071Z" fill="#D5E7F2"/>
<g opacity="0.1">
<path d="M35.0071 21.5698V35.664C35.0071 36.9642 36.0602 38.013 37.3561 38.013H47.411V37.3803H38.47C37.1698 37.3803 36.1209 36.3271 36.1209 35.0312V21.5698H35.0071Z" fill="black"/>
</g>
<path d="M47.4093 38.4164H37.3544C35.8375 38.4164 34.6023 37.1812 34.6023 35.6643V21.5701C34.6023 21.3491 34.78 21.1714 35.001 21.1714H47.4049C47.626 21.1714 47.8037 21.3491 47.8037 21.5701V38.0133C47.8123 38.2387 47.6303 38.4164 47.4093 38.4164ZM35.4084 21.9688V35.6643C35.4084 36.7391 36.2839 37.6146 37.3587 37.6146H47.0105V21.9688H35.4084Z" fill="#65271C"/>
<path d="M45.1946 25.1021H37.22C36.999 25.1021 36.8213 24.9244 36.8213 24.7034C36.8213 24.4824 36.999 24.3047 37.22 24.3047H45.1946C45.4156 24.3047 45.5933 24.4824 45.5933 24.7034C45.5933 24.9201 45.4156 25.1021 45.1946 25.1021Z" fill="#65271C"/>
<path d="M45.1946 27.6466H37.22C36.999 27.6466 36.8213 27.4689 36.8213 27.2478C36.8213 27.0268 36.999 26.8491 37.22 26.8491H45.1946C45.4156 26.8491 45.5933 27.0268 45.5933 27.2478C45.5933 27.4689 45.4156 27.6466 45.1946 27.6466Z" fill="#65271C"/>
<path d="M45.1946 30.1949H37.22C36.999 30.1949 36.8213 30.0172 36.8213 29.7962C36.8213 29.5752 36.999 29.3975 37.22 29.3975H45.1946C45.4156 29.3975 45.5933 29.5752 45.5933 29.7962C45.5933 30.0129 45.4156 30.1949 45.1946 30.1949Z" fill="#65271C"/>
<path d="M45.1946 32.7389H37.22C36.999 32.7389 36.8213 32.5612 36.8213 32.3401C36.8213 32.1191 36.999 31.9414 37.22 31.9414H45.1946C45.4156 31.9414 45.5933 32.1191 45.5933 32.3401C45.5933 32.5612 45.4156 32.7389 45.1946 32.7389Z" fill="#65271C"/>
<path d="M45.1961 35.2833H40.1773C39.9563 35.2833 39.7786 35.1056 39.7786 34.8846C39.7786 34.6635 39.9563 34.4858 40.1773 34.4858H45.1961C45.4171 34.4858 45.5948 34.6635 45.5948 34.8846C45.5948 35.1056 45.4171 35.2833 45.1961 35.2833Z" fill="#65271C"/>
<path d="M35.0046 55.457C39.0613 55.457 42.3508 52.1675 42.3508 48.1108C40.3225 48.1108 38.4848 48.93 37.1543 50.2605C35.8281 51.591 35.0046 53.4287 35.0046 55.457Z" fill="#A9C83E"/>
<g opacity="0.2">
<path d="M42.1852 49.6543C42.2069 49.4376 42.2156 49.2209 42.2156 48.9999C40.1873 48.9999 38.3496 49.819 37.0191 51.1495C36.0396 52.129 35.3288 53.3902 35.0298 54.8074C35.1858 53.0392 35.9703 51.4529 37.1534 50.2654C38.484 48.9349 40.3216 48.1157 42.3499 48.1157C42.3499 48.6401 42.2936 49.1559 42.1852 49.6543Z" fill="white"/>
</g>
<path d="M35.0061 55.8565C34.7851 55.8565 34.6074 55.6788 34.6074 55.4578C34.6074 53.3904 35.4135 51.4445 36.8741 49.9839C38.339 48.519 40.2806 47.7129 42.3523 47.7129C42.5733 47.7129 42.751 47.8906 42.751 48.1116C42.751 52.3849 39.2795 55.8565 35.0061 55.8565ZM41.9406 48.5233C40.2416 48.623 38.6554 49.3338 37.4419 50.5473C36.2283 51.7608 35.5176 53.3471 35.4179 55.046C38.9198 54.838 41.7369 52.0252 41.9406 48.5233Z" fill="#65271C"/>
<path d="M35.0048 55.457C30.9482 55.457 27.6587 52.1675 27.6587 48.1108C29.687 48.1108 31.5246 48.93 32.8552 50.2605C34.1814 51.591 35.0048 53.4287 35.0048 55.457Z" fill="#A9C83E"/>
<g opacity="0.1">
<path d="M35.0037 55.4578C31.0554 55.4578 27.844 52.3503 27.6663 48.4497C28.3294 51.8216 31.2982 54.3613 34.8694 54.3613C34.8694 54.2399 34.865 54.1186 34.8607 54.0016C34.9561 54.474 35.0037 54.9637 35.0037 55.4578Z" fill="black"/>
</g>
<path d="M35.008 55.8565C30.7347 55.8565 27.2632 52.3806 27.2632 48.1116C27.2632 47.8906 27.4409 47.7129 27.6619 47.7129C29.7292 47.7129 31.6752 48.519 33.1401 49.9839C34.605 51.4445 35.4068 53.3904 35.4068 55.4578C35.4111 55.6788 35.2291 55.8565 35.008 55.8565ZM28.0736 48.5233C28.2817 52.0252 31.0944 54.838 34.5963 55.046C34.4966 53.3471 33.7902 51.7608 32.5723 50.5473C31.3588 49.3338 29.7769 48.623 28.0736 48.5233Z" fill="#65271C"/>
<path d="M35.0046 47.77C39.0613 47.77 42.3508 44.4805 42.3508 40.4238C40.3225 40.4238 38.4848 41.243 37.1543 42.5735C35.8281 43.904 35.0046 45.7417 35.0046 47.77Z" fill="#A9C83E"/>
<g opacity="0.2">
<path d="M42.1852 41.9624C42.2069 41.7457 42.2156 41.529 42.2156 41.308C40.1873 41.308 38.3496 42.1271 37.0191 43.4576C36.0396 44.4371 35.3288 45.6983 35.0298 47.1155C35.1858 45.3473 35.9703 43.761 37.1534 42.5735C38.484 41.243 40.3216 40.4238 42.3499 40.4238C42.3499 40.9526 42.2936 41.4683 42.1852 41.9624Z" fill="white"/>
</g>
<path d="M35.0061 48.168C34.7851 48.168 34.6074 47.9903 34.6074 47.7693C34.6074 45.702 35.4135 43.756 36.8741 42.2954C38.339 40.8305 40.2806 40.0244 42.3523 40.0244C42.5733 40.0244 42.751 40.2021 42.751 40.4231C42.751 44.6965 39.2795 48.168 35.0061 48.168ZM41.9406 40.8349C40.2416 40.9346 38.6554 41.6453 37.4419 42.8589C36.2283 44.0724 35.5176 45.6586 35.4179 47.3575C38.9198 47.1495 41.7369 44.3367 41.9406 40.8349Z" fill="#65271C"/>
<path d="M35.0048 47.77C30.9482 47.77 27.6587 44.4805 27.6587 40.4238C29.687 40.4238 31.5246 41.243 32.8552 42.5735C34.1814 43.904 35.0048 45.7417 35.0048 47.77Z" fill="#A9C83E"/>
<g opacity="0.1">
<path d="M35.0037 47.7698C31.0554 47.7698 27.844 44.6623 27.6663 40.7617C28.3294 44.1336 31.2982 46.6733 34.8694 46.6733C34.8694 46.5519 34.865 46.4306 34.8607 46.3136C34.9561 46.786 35.0037 47.2714 35.0037 47.7698Z" fill="black"/>
</g>
<path d="M35.008 48.1685C30.7347 48.1685 27.2632 44.6926 27.2632 40.4236C27.2632 40.2026 27.4409 40.0249 27.6619 40.0249C29.7292 40.0249 31.6752 40.831 33.1401 42.2959C34.605 43.7565 35.4068 45.7024 35.4068 47.7698C35.4111 47.9908 35.2291 48.1685 35.008 48.1685ZM28.0736 40.8354C28.2817 44.3372 31.0944 47.15 34.5963 47.358C34.4966 45.6591 33.7902 44.0729 32.5723 42.8593C31.3588 41.6458 29.7769 40.935 28.0736 40.8354Z" fill="#65271C"/>
</svg>
