<svg width="76" height="76" viewBox="0 0 76 76" fill="none" xmlns="http://www.w3.org/2000/svg">
<rect width="76" height="76" rx="38" fill="#CEE2F1"/>
<path d="M57.3606 26.8252V52.1091H18.9934V26.8252C18.9934 25.3425 20.1914 24.1406 21.6693 24.1406H54.6848C56.1626 24.1406 57.3606 25.3425 57.3606 26.8252Z" fill="white"/>
<path d="M42.5735 48.3716V50.7249H33.7789V48.3716H17.6216C17.0346 48.3716 16.5586 48.849 16.5586 49.4381V52.0136C16.5586 53.2135 17.5282 54.1863 18.7242 54.1863H57.6282C58.8242 54.1863 59.7938 53.2135 59.7938 52.0136V49.4381C59.7938 48.849 59.3179 48.3716 58.7308 48.3716H42.5735Z" fill="#5656D3"/>
<path d="M20.9454 34.3002C25.7849 34.3002 29.7081 30.3641 29.7081 25.5087C29.7081 20.6534 25.7849 16.7173 20.9454 16.7173C16.1058 16.7173 12.1826 20.6534 12.1826 25.5087C12.1826 30.3641 16.1058 34.3002 20.9454 34.3002Z" fill="#E3E3E3"/>
<path d="M55.0535 59.2826C59.8931 59.2826 63.8163 55.3465 63.8163 50.4912C63.8163 45.6358 59.8931 41.6997 55.0535 41.6997C50.214 41.6997 46.2908 45.6358 46.2908 50.4912C46.2908 55.3465 50.214 59.2826 55.0535 59.2826Z" fill="#E3E3E3"/>
<path d="M18.4602 34.4838V47.8391H17.6217C16.7422 47.8391 16.0264 48.5562 16.0264 49.4378V52.0132C16.0264 53.5046 17.2365 54.7182 18.7242 54.7182H46.7797C48.3195 57.7383 51.4462 59.8148 55.054 59.8148C60.1795 59.8148 64.3491 55.6323 64.3491 50.4912C64.3491 46.3431 61.6332 42.8222 57.8923 41.6156V26.8251C57.8923 25.0512 56.4528 23.6082 54.6839 23.6082H30.0457C29.1682 19.3755 25.4223 16.1851 20.9459 16.1851C15.8205 16.1851 11.6509 20.3676 11.6509 25.5087C11.6509 29.785 14.5397 33.3893 18.4602 34.4838ZM18.7241 53.6536C17.8238 53.6536 17.0909 52.9177 17.0909 52.0132V49.4378C17.0909 49.1433 17.3289 48.9037 17.6216 48.9037H33.2466V50.7246C33.2466 51.0185 33.4846 51.2569 33.7789 51.2569H42.5733C42.8675 51.2569 43.1056 51.0185 43.1056 50.7246V48.9037H45.9039C45.8148 49.4208 45.7588 49.9491 45.7588 50.4912C45.7588 51.6026 45.9638 52.6644 46.321 53.6536H18.7241ZM63.2844 50.4912C63.2844 55.0451 59.592 58.7502 55.0539 58.7502C50.5158 58.7502 46.8234 55.0451 46.8234 50.4912C46.8234 45.9369 50.5158 42.2319 55.0539 42.2319C59.592 42.2319 63.2844 45.9371 63.2844 50.4912ZM54.6838 24.6727C55.8659 24.6727 56.8276 25.6382 56.8276 26.825V41.3422C56.2529 41.2303 55.6608 41.1673 55.0539 41.1673C50.8473 41.1673 47.2895 43.9868 46.1473 47.8391H42.5734C42.2791 47.8391 42.0411 48.0774 42.0411 48.3714V50.1923H34.3113V48.3714C34.3113 48.0774 34.0732 47.8391 33.779 47.8391H19.5248V34.7118C19.9893 34.7838 20.4615 34.8325 20.9459 34.8325C26.0714 34.8325 30.241 30.6497 30.241 25.5086C30.241 25.2265 30.2234 24.9486 30.1988 24.6728H54.6838V24.6727ZM20.9459 17.2496C25.4841 17.2496 29.1764 20.9547 29.1764 25.5086C29.1764 30.0628 25.4841 33.7679 20.9459 33.7679C16.4078 33.7679 12.7155 30.0627 12.7155 25.5086C12.7155 20.9546 16.4078 17.2496 20.9459 17.2496Z" fill="black"/>
<path d="M15.7939 26.442L18.0047 27.9002C18.2507 28.062 18.5807 27.9938 18.7424 27.7489C18.9041 27.5033 18.8365 27.1732 18.5911 27.0113L16.4261 25.5835L18.6114 23.9918C18.8489 23.8189 18.9014 23.4858 18.7284 23.2481C18.5548 23.0108 18.2225 22.9581 17.9845 23.1315L15.755 24.7554C15.1769 25.1765 15.1968 26.0479 15.7939 26.442Z" fill="black"/>
<path d="M25.465 25.5832L23.2999 27.011C23.0546 27.1729 22.987 27.503 23.1487 27.7486C23.3104 27.9936 23.6405 28.0617 23.8864 27.8999L26.0972 26.4414C26.6938 26.0475 26.7146 25.1762 26.1362 24.7551L23.9067 23.1312C23.6692 22.9573 23.3364 23.0106 23.1628 23.2478C22.9898 23.4854 23.0423 23.8186 23.2798 23.9915L25.465 25.5832Z" fill="black"/>
<path d="M19.7805 28.3709C20.0508 28.4814 20.363 28.3524 20.474 28.0785L22.4035 23.3406C22.5148 23.0685 22.3838 22.7578 22.1114 22.6469C21.8405 22.5359 21.5287 22.6669 21.4179 22.9393L19.4884 27.6772C19.3771 27.9493 19.5081 28.2599 19.7805 28.3709Z" fill="black"/>
<path d="M51.1099 49.7439V46.9704C51.1099 46.5205 50.7439 46.1543 50.2943 46.1543H49.2276C48.9334 46.1543 48.6953 46.3927 48.6953 46.6866C48.6953 46.9805 48.9334 47.2189 49.2276 47.2189H50.0453V49.7439C50.0453 50.0379 50.2834 50.2762 50.5776 50.2762C50.8719 50.2762 51.1099 50.0379 51.1099 49.7439Z" fill="black"/>
<path d="M59.5308 47.2189H60.348V49.7439C60.348 50.0379 60.586 50.2762 60.8803 50.2762C61.1746 50.2762 61.4126 50.0379 61.4126 49.7439V46.9704C61.4126 46.5205 61.0472 46.1543 60.5975 46.1543H59.5308C59.2366 46.1543 58.9985 46.3927 58.9985 46.6866C58.9985 46.9805 59.2367 47.2189 59.5308 47.2189Z" fill="black"/>
<path d="M53.49 50.2891C54.3414 50.2891 55.0084 49.361 55.0084 48.1761C55.0084 46.9911 54.3414 46.063 53.49 46.063C52.637 46.063 51.9685 46.9911 51.9685 48.1761C51.9685 49.3609 52.637 50.2891 53.49 50.2891ZM53.49 47.1275C53.646 47.1275 53.9438 47.5359 53.9438 48.1759C53.9438 48.816 53.646 49.2244 53.49 49.2244C53.3288 49.2244 53.0331 48.8263 53.0331 48.1759C53.0331 47.5359 53.3331 47.1275 53.49 47.1275Z" fill="black"/>
<path d="M57.1429 50.2891C57.9938 50.2891 58.6608 49.361 58.6608 48.1761C58.6608 46.9911 57.9938 46.063 57.1429 46.063C56.2893 46.063 55.6208 46.9911 55.6208 48.1761C55.6207 49.3609 56.2893 50.2891 57.1429 50.2891ZM57.1429 47.1275C57.2983 47.1275 57.5962 47.5359 57.5962 48.1759C57.5962 48.816 57.2983 49.2244 57.1429 49.2244C56.9817 49.2244 56.6855 48.8263 56.6855 48.1759C56.6855 47.5359 56.9858 47.1275 57.1429 47.1275Z" fill="black"/>
<path d="M59.2404 50.7837H58.1737C57.8794 50.7837 57.6414 51.0221 57.6414 51.316C57.6414 51.6099 57.8794 51.8483 58.1737 51.8483H58.9914V54.3736C58.9914 54.6676 59.2294 54.9059 59.5237 54.9059C59.8179 54.9059 60.056 54.6676 60.056 54.3736V51.5998C60.056 51.15 59.6901 50.7837 59.2404 50.7837Z" fill="black"/>
<path d="M52.1348 50.6929C51.2817 50.6929 50.6133 51.621 50.6133 52.8059C50.6133 53.9909 51.2817 54.9193 52.1348 54.9193C52.9857 54.9193 53.6527 53.9909 53.6527 52.8059C53.6527 51.621 52.9858 50.6929 52.1348 50.6929ZM52.1348 53.8547C51.9736 53.8547 51.6779 53.4566 51.6779 52.8059C51.6779 52.1657 51.9778 51.7575 52.1348 51.7575C52.2902 51.7575 52.5881 52.1658 52.5881 52.8059C52.5881 53.4463 52.2902 53.8547 52.1348 53.8547Z" fill="black"/>
<path d="M55.7859 50.6929C54.9324 50.6929 54.2639 51.621 54.2639 52.8059C54.2639 53.9909 54.9324 54.9193 55.7859 54.9193C56.6369 54.9193 57.3038 53.9909 57.3038 52.8059C57.3038 51.621 56.6369 50.6929 55.7859 50.6929ZM55.7859 53.8547C55.6248 53.8547 55.3285 53.4566 55.3285 52.8059C55.3285 52.1657 55.629 51.7575 55.7859 51.7575C55.9414 51.7575 56.2392 52.1658 56.2392 52.8059C56.2392 53.4463 55.9413 53.8547 55.7859 53.8547Z" fill="black"/>
</svg>
