<svg width="76" height="76" viewBox="0 0 76 76" fill="none" xmlns="http://www.w3.org/2000/svg">
<rect width="76" height="76" rx="38" fill="#CEE2F1"/>
<path d="M60.6017 15.0246V56.4552C60.6017 57.7043 59.5884 58.7176 58.3393 58.7176H27.0458C25.7968 58.7176 24.7834 57.7043 24.7834 56.4552V15.0246C24.7834 13.7755 25.7968 12.7622 27.0458 12.7622H58.3393C59.5884 12.7622 60.6017 13.7755 60.6017 15.0246Z" fill="#9EAFC6"/>
<path d="M36.8404 43.944C36.8404 44.1249 36.8201 44.318 36.7693 44.5203C39.177 45.5122 39.7137 46.7745 39.7137 47.7014V51.9579C39.7137 52.8838 39.177 54.1461 36.7693 55.1381C36.8201 55.3403 36.8404 55.5335 36.8404 55.7144V58.7177H27.0458C25.7967 58.7177 24.7834 57.7044 24.7834 56.4553V28.9925C25.9258 28.8573 27.1404 28.7861 28.3834 28.7861C31.2088 28.7861 33.8828 29.151 35.9115 29.8137C39.054 30.8412 39.7137 32.2814 39.7137 33.3099V37.5664C39.7137 38.4831 39.1872 39.7292 36.8404 40.7161V43.944Z" fill="#8590A8"/>
<path d="M56.2132 18.228H29.1721V25.7196H56.2132V18.228Z" fill="#57D3D0"/>
<path d="M47.2703 18.228L39.7798 25.7196H35.3088L42.8004 18.228H47.2703Z" fill="#8CE5E1"/>
<path d="M53.8929 18.228L46.4013 25.7196H41.9304L49.4219 18.228H53.8929Z" fill="#8CE5E1"/>
<path d="M32.6732 33.519H30.7859C29.9817 33.519 29.3298 32.8671 29.3298 32.063C29.3298 31.2588 29.9817 30.6069 30.7859 30.6069H32.6732C33.4774 30.6069 34.1292 31.2588 34.1292 32.063C34.1294 32.8671 33.4775 33.519 32.6732 33.519Z" fill="#ED6294"/>
<path d="M41.4384 32.0628C41.4384 32.4653 41.2748 32.8292 41.0115 33.0934C40.7483 33.3567 40.3845 33.5193 39.982 33.5193H38.0946C37.2907 33.5193 36.6382 32.8678 36.6382 32.0628C36.6382 31.6604 36.8008 31.2965 37.0651 31.0333C37.2643 30.8341 37.5214 30.6928 37.808 30.6359C37.9015 30.6176 37.997 30.6074 38.0946 30.6074H39.982C40.7859 30.6074 41.4384 31.2589 41.4384 32.0628Z" fill="#ED6294"/>
<path d="M39.7137 33.3098V33.5191H38.0946C37.2907 33.5191 36.6382 32.8676 36.6382 32.0627C36.6382 31.6602 36.8008 31.2964 37.0651 31.0331C37.2643 30.8339 37.5214 30.6927 37.808 30.6357C39.3386 31.525 39.7137 32.5343 39.7137 33.3098Z" fill="#DC4173"/>
<path d="M47.2904 33.519H45.403C44.5989 33.519 43.947 32.8671 43.947 32.063C43.947 31.2588 44.5989 30.6069 45.403 30.6069H47.2904C48.0946 30.6069 48.7464 31.2588 48.7464 32.063C48.7464 32.8671 48.0946 33.519 47.2904 33.519Z" fill="#ED6294"/>
<path d="M54.599 33.519H52.7116C51.9075 33.519 51.2556 32.8671 51.2556 32.063C51.2556 31.2588 51.9075 30.6069 52.7116 30.6069H54.599C55.4031 30.6069 56.055 31.2588 56.055 32.063C56.055 32.8671 55.4031 33.519 54.599 33.519Z" fill="#ED6294"/>
<path d="M32.6732 40.9311H30.7859C29.9817 40.9311 29.3298 40.2792 29.3298 39.4751C29.3298 38.6709 29.9817 38.019 30.7859 38.019H32.6732C33.4774 38.019 34.1292 38.6709 34.1292 39.4751C34.1294 40.2792 33.4775 40.9311 32.6732 40.9311Z" fill="#697491"/>
<path d="M41.4384 39.475C41.4384 39.8764 41.2748 40.2413 41.0115 40.5045C40.7483 40.7688 40.3845 40.9314 39.982 40.9314H38.0946C37.7338 40.9314 37.4015 40.8003 37.1474 40.5808C36.8354 40.3135 36.6382 39.9171 36.6382 39.475C36.6382 39.0735 36.8008 38.7087 37.0651 38.4454C37.3283 38.1812 37.6932 38.0186 38.0946 38.0186H39.982C40.7859 38.0186 41.4384 38.6711 41.4384 39.475Z" fill="#697491"/>
<path d="M36.6382 39.475C36.6382 39.0735 36.8008 38.7087 37.0651 38.4454C37.3283 38.1812 37.6932 38.0186 38.0946 38.0186H39.67C39.5134 38.8215 38.8914 39.7748 37.1474 40.5808C36.8354 40.3135 36.6382 39.9171 36.6382 39.475Z" fill="#515B7C"/>
<path d="M47.2904 40.9311H45.403C44.5989 40.9311 43.947 40.2792 43.947 39.4751C43.947 38.6709 44.5989 38.019 45.403 38.019H47.2904C48.0946 38.019 48.7464 38.6709 48.7464 39.4751C48.7464 40.2792 48.0946 40.9311 47.2904 40.9311Z" fill="#697491"/>
<path d="M54.599 40.9311H52.7116C51.9075 40.9311 51.2556 40.2792 51.2556 39.4751C51.2556 38.6709 51.9075 38.019 52.7116 38.019H54.599C55.4031 38.019 56.055 38.6709 56.055 39.4751C56.055 40.2792 55.4031 40.9311 54.599 40.9311Z" fill="#697491"/>
<path d="M32.6732 46.8871H30.7859C29.9817 46.8871 29.3298 46.2353 29.3298 45.4311C29.3298 44.627 29.9817 43.9751 30.7859 43.9751H32.6732C33.4774 43.9751 34.1292 44.627 34.1292 45.4311C34.1294 46.2352 33.4775 46.8871 32.6732 46.8871Z" fill="#697491"/>
<path d="M41.4384 45.431C41.4384 45.8325 41.2748 46.1974 41.0115 46.4606C40.7483 46.7249 40.3845 46.8875 39.982 46.8875H38.0946C37.2907 46.8875 36.6382 46.235 36.6382 45.431C36.6382 45.1139 36.7398 44.8192 36.9126 44.5804C36.9583 44.5163 37.0092 44.4564 37.0651 44.4015C37.3283 44.1372 37.6932 43.9746 38.0946 43.9746H39.982C40.7859 43.9746 41.4384 44.6271 41.4384 45.431Z" fill="#697491"/>
<path d="M36.6382 45.4308C36.6382 45.1137 36.7398 44.8189 36.9126 44.5801C38.5672 45.2915 39.2949 46.1331 39.5693 46.8872H38.0946C37.2907 46.8872 36.6382 46.2347 36.6382 45.4308Z" fill="#515B7C"/>
<path d="M47.2904 46.8871H45.403C44.5989 46.8871 43.947 46.2353 43.947 45.4311C43.947 44.627 44.5989 43.9751 45.403 43.9751H47.2904C48.0946 43.9751 48.7464 44.627 48.7464 45.4311C48.7464 46.2352 48.0946 46.8871 47.2904 46.8871Z" fill="#697491"/>
<path d="M54.599 46.8871H52.7116C51.9075 46.8871 51.2556 46.2353 51.2556 45.4311C51.2556 44.627 51.9075 43.9751 52.7116 43.9751H54.599C55.4031 43.9751 56.055 44.627 56.055 45.4311C56.055 46.2352 55.4031 46.8871 54.599 46.8871Z" fill="#697491"/>
<path d="M32.6732 52.8427H30.7859C29.9817 52.8427 29.3298 52.1908 29.3298 51.3867C29.3298 50.5826 29.9817 49.9307 30.7859 49.9307H32.6732C33.4774 49.9307 34.1292 50.5826 34.1292 51.3867C34.1294 52.1908 33.4775 52.8427 32.6732 52.8427Z" fill="#697491"/>
<path d="M41.4384 51.3866C41.4384 51.788 41.2748 52.1529 41.0115 52.4161C40.7483 52.6804 40.3845 52.843 39.982 52.843H38.0946C37.2907 52.843 36.6382 52.1905 36.6382 51.3866C36.6382 50.9851 36.8008 50.6213 37.0651 50.357C37.3283 50.0938 37.6932 49.9312 38.0946 49.9312H39.982C40.7859 49.9312 41.4384 50.5826 41.4384 51.3866Z" fill="#697491"/>
<path d="M38.0946 49.9312H39.7137V51.9578C39.7137 52.2291 39.6679 52.5289 39.5419 52.843H38.0946C37.2907 52.843 36.6382 52.1905 36.6382 51.3866C36.6382 50.9851 36.8008 50.6213 37.0651 50.357C37.3283 50.0938 37.6932 49.9312 38.0946 49.9312Z" fill="#515B7C"/>
<path d="M47.2904 52.8427H45.403C44.5989 52.8427 43.947 52.1908 43.947 51.3867C43.947 50.5826 44.5989 49.9307 45.403 49.9307H47.2904C48.0946 49.9307 48.7464 50.5826 48.7464 51.3867C48.7464 52.1908 48.0946 52.8427 47.2904 52.8427Z" fill="#697491"/>
<path d="M54.599 52.8427H52.7116C51.9075 52.8427 51.2556 52.1908 51.2556 51.3867C51.2556 50.5826 51.9075 49.9307 52.7116 49.9307H54.599C55.4031 49.9307 56.055 50.5826 56.055 51.3867C56.055 52.1908 55.4031 52.8427 54.599 52.8427Z" fill="#697491"/>
<path d="M15.3987 55.7148V59.9711C15.3987 61.7959 19.9256 63.2751 25.51 63.2751C31.0943 63.2751 35.6212 61.7959 35.6212 59.9711V55.7148H15.3987Z" fill="#EFAE2E"/>
<path d="M25.51 59.0186C31.0943 59.0186 35.6212 57.5393 35.6212 55.7146C35.6212 53.8899 31.0943 52.4106 25.51 52.4106C19.9257 52.4106 15.3987 53.8899 15.3987 55.7146C15.3987 57.5393 19.9257 59.0186 25.51 59.0186Z" fill="#FFD243"/>
<path d="M18.2717 47.7012V51.9574C18.2717 53.7822 22.7987 55.2614 28.383 55.2614C33.9673 55.2614 38.4943 53.7822 38.4943 51.9574V47.7012H18.2717Z" fill="#EFAE2E"/>
<path d="M28.3832 51.0049C33.9676 51.0049 38.4945 49.5257 38.4945 47.7009C38.4945 45.8762 33.9676 44.397 28.3832 44.397C22.7989 44.397 18.272 45.8762 18.272 47.7009C18.272 49.5257 22.7989 51.0049 28.3832 51.0049Z" fill="#FFD243"/>
<path d="M15.3987 39.6875V43.9438C15.3987 45.7685 19.9256 47.2477 25.51 47.2477C31.0943 47.2477 35.6212 45.7685 35.6212 43.9438V39.6875H15.3987Z" fill="#EFAE2E"/>
<path d="M25.51 42.9912C31.0943 42.9912 35.6212 41.512 35.6212 39.6873C35.6212 37.8625 31.0943 36.3833 25.51 36.3833C19.9257 36.3833 15.3987 37.8625 15.3987 39.6873C15.3987 41.512 19.9257 42.9912 25.51 42.9912Z" fill="#FFD243"/>
<path d="M18.2717 33.3096V37.5658C18.2717 39.3906 22.7987 40.8698 28.383 40.8698C33.9673 40.8698 38.4943 39.3906 38.4943 37.5658V33.3096H18.2717Z" fill="#EFAE2E"/>
<path d="M28.3832 36.6138C33.9676 36.6138 38.4945 35.1345 38.4945 33.3098C38.4945 31.4851 33.9676 30.0059 28.3832 30.0059C22.7989 30.0059 18.272 31.4851 18.272 33.3098C18.272 35.1345 22.7989 36.6138 28.3832 36.6138Z" fill="#FFD243"/>
<path d="M60.6016 46.9207C60.1806 46.9207 59.8394 47.262 59.8394 47.683V56.4551C59.8394 57.2825 59.1662 57.9557 58.3388 57.9557H36.3834V55.7148C36.3834 55.486 36.3386 55.1937 36.1852 54.8727C37.1292 54.5265 37.908 54.1035 38.4453 53.6054H39.9819C41.2051 53.6054 42.2002 52.6102 42.2002 51.387C42.2002 50.1638 41.2051 49.1687 39.9819 49.1687H39.2567V47.7013C39.2567 47.6842 39.256 47.6668 39.2555 47.6495H39.9819C41.2051 47.6495 42.2002 46.6543 42.2002 45.4312C42.2002 44.208 41.2051 43.2129 39.9819 43.2129H38.0945C37.405 43.2129 36.788 43.5292 36.3809 44.0241C36.382 43.9974 36.3834 43.9708 36.3834 43.9438V40.8855C36.7906 41.3787 37.4065 41.6935 38.0944 41.6935H39.9818C41.205 41.6935 42.2001 40.6984 42.2001 39.4752C42.2001 38.2521 41.205 37.2569 39.9818 37.2569H39.2566V34.2815H39.9818C41.205 34.2815 42.2001 33.2864 42.2001 32.0632C42.2001 30.84 41.205 29.8449 39.9818 29.8449H38.0944C37.4907 29.8449 36.9183 30.0944 36.5053 30.5175C34.4114 29.6754 31.3872 29.2434 28.3831 29.2434C27.4291 29.2434 26.4732 29.2871 25.5455 29.3735V15.0251C25.5455 14.1977 26.2187 13.5245 27.0461 13.5245H33.2142C33.6352 13.5245 33.9765 13.1832 33.9765 12.7623C33.9765 12.3413 33.6352 12 33.2142 12H27.0461C25.378 12 24.021 13.357 24.021 15.0251V29.5587C20.3827 30.1092 17.5096 31.3751 17.5096 33.3096V36.8449C15.1421 37.76 14.6362 38.89 14.6362 39.6874V43.9437C14.6362 45.2032 15.8541 46.1792 17.7078 46.859C17.5546 47.1798 17.5096 47.4719 17.5096 47.7012V51.9575C17.5096 52.2535 17.5771 52.5338 17.7042 52.7984C15.1953 53.712 14.6362 54.8677 14.6362 55.7148V59.9711C14.6362 62.5073 19.4166 63.7126 23.5103 63.9741C23.5269 63.9751 23.5432 63.9757 23.5596 63.9757C23.9583 63.9757 24.2938 63.6655 24.3196 63.262C24.3465 62.8419 24.0276 62.4795 23.6075 62.4527C18.4094 62.1207 16.1608 60.6487 16.1608 59.9712V57.8979C18.1616 59.1404 21.8507 59.7811 25.5098 59.7811C29.1688 59.7811 32.8579 59.1404 34.8588 57.8979V59.9712C34.8588 60.731 32.2309 62.218 26.9949 62.4765C26.5744 62.4972 26.2503 62.8549 26.2711 63.2753C26.2912 63.6831 26.6281 64 27.0318 64C27.0445 64 27.0572 63.9997 27.07 63.9991C31.7057 63.7703 36.3833 62.436 36.3833 59.9711V59.4802H58.3387C60.0068 59.4802 61.3638 58.1231 61.3638 56.4551V47.683C61.3639 47.262 61.0226 46.9207 60.6016 46.9207ZM35.2961 53.569C33.4608 54.1687 31.0057 54.4989 28.3831 54.4989C22.334 54.4989 19.0341 52.8199 19.0341 51.9574V49.8841C21.035 51.1266 24.724 51.7673 28.3831 51.7673C32.0422 51.7673 35.7312 51.1266 37.7321 49.8841V51.9574C37.7322 52.2603 37.2192 52.9407 35.2961 53.569ZM19.2162 47.315C21.0716 47.7753 23.2962 48.0098 25.5099 48.0098C29.2828 48.0098 33.0876 47.3287 35.0407 46.009C37.1633 46.6519 37.7323 47.3917 37.7323 47.7011C37.7323 48.004 37.2193 48.6844 35.2963 49.3127C33.4609 49.9125 31.0058 50.2427 28.3833 50.2427C22.3341 50.2427 19.0343 48.5637 19.0343 47.7011C19.0341 47.5691 19.1191 47.4306 19.2162 47.315ZM19.0341 35.4927C21.035 36.7352 24.724 37.3759 28.3831 37.3759C32.0422 37.3759 35.7312 36.7352 37.7321 35.4927V37.5659C37.7321 37.8041 37.4143 38.2758 36.3435 38.772C36.3406 38.7732 36.338 38.7746 36.3352 38.7758C36.0461 38.9093 35.703 39.0446 35.296 39.1775C33.4606 39.7773 31.0056 40.1075 28.383 40.1075C22.3339 40.1075 19.034 38.4285 19.034 37.5658L19.0341 35.4927ZM39.9819 50.6931C40.3645 50.6931 40.6757 51.0043 40.6757 51.3869C40.6757 51.7694 40.3644 52.0807 39.9819 52.0807H39.2528C39.2554 52.04 39.2567 51.9988 39.2567 51.9575V50.6932H39.9819V50.6931ZM38.0945 44.7372H39.9819C40.3645 44.7372 40.6757 45.0484 40.6757 45.431C40.6757 45.8135 40.3644 46.1248 39.9819 46.1248H38.5279C38.2563 45.8549 37.892 45.5846 37.4098 45.3239C37.4616 44.9922 37.7485 44.7372 38.0945 44.7372ZM40.6757 39.4751C40.6757 39.8577 40.3644 40.1689 39.9819 40.1689H38.0945C37.8595 40.1689 37.6517 40.0511 37.5262 39.8718C38.0897 39.5511 38.5364 39.1873 38.8351 38.7814H39.982C40.3645 38.7813 40.6757 39.0925 40.6757 39.4751ZM38.0945 31.3694H39.9819C40.3645 31.3694 40.6757 31.6806 40.6757 32.0632C40.6757 32.4457 40.3644 32.7569 39.9819 32.7569H39.174C39.0169 32.2385 38.6398 31.7756 38.0917 31.3695C38.0927 31.3695 38.0935 31.3694 38.0945 31.3694ZM21.4702 31.698C23.3056 31.0983 25.7606 30.768 28.3832 30.768C34.4324 30.768 37.7322 32.4471 37.7322 33.3097C37.7322 33.6127 37.2192 34.2931 35.2962 34.9214C33.4608 35.5211 31.0057 35.8513 28.3832 35.8513C22.334 35.8513 19.0342 34.1723 19.0342 33.3097C19.0341 33.0067 19.5472 32.3263 21.4702 31.698ZM17.707 38.4123C18.731 40.5298 23.5832 41.632 28.3832 41.632C29.6281 41.632 30.8764 41.5577 32.0608 41.411C30.2696 41.9385 27.9453 42.229 25.51 42.229C19.4608 42.229 16.161 40.55 16.161 39.6873C16.1609 39.3722 16.6444 38.8789 17.707 38.4123ZM16.1609 43.9436V41.8704C18.1618 43.1129 21.8508 43.7536 25.5099 43.7536C28.9606 43.7536 32.7911 43.1553 34.8589 41.8727V43.9436C34.8589 44.2466 34.3458 44.9269 32.4229 45.5553C30.5875 46.155 28.1325 46.4852 25.5099 46.4852C19.4606 46.4853 16.1609 44.8063 16.1609 43.9436ZM32.4229 57.3264C30.5875 57.9262 28.1325 58.2564 25.5099 58.2564C19.4606 58.2564 16.1609 56.5774 16.1609 55.7147C16.1609 55.2873 17.0048 54.5837 18.8526 54.0227C20.8057 55.3423 24.6104 56.0235 28.3832 56.0235C30.597 56.0235 32.8217 55.7889 34.6772 55.3285C34.7735 55.4433 34.859 55.5824 34.859 55.7147C34.8589 56.0177 34.3458 56.6981 32.4229 57.3264Z" fill="black"/>
<path d="M58.3387 12H36.6878C36.2668 12 35.9255 12.3413 35.9255 12.7623C35.9255 13.1832 36.2668 13.5245 36.6878 13.5245H58.3387C59.1661 13.5245 59.8393 14.1977 59.8393 15.0251V44.2093C59.8393 44.6303 60.1805 44.9716 60.6015 44.9716C61.0226 44.9716 61.3638 44.6303 61.3638 44.2093V15.0251C61.3638 13.357 60.0068 12 58.3387 12Z" fill="black"/>
<path d="M56.9754 18.2276C56.9754 17.8066 56.6343 17.4653 56.2132 17.4653H29.1719C28.751 17.4653 28.4097 17.8066 28.4097 18.2276V25.7199C28.4097 26.1409 28.751 26.4822 29.1719 26.4822H56.2133C56.6344 26.4822 56.9755 26.1409 56.9755 25.7199L56.9754 18.2276ZM55.4509 24.9578H29.9342V18.9899H55.451L55.4509 24.9578Z" fill="black"/>
<path d="M47.2905 29.8447H45.4031C44.1799 29.8447 43.1848 30.8398 43.1848 32.063C43.1848 33.2862 44.1799 34.2813 45.4031 34.2813H47.2905C48.5136 34.2813 49.5088 33.2862 49.5088 32.063C49.5088 30.8398 48.5136 29.8447 47.2905 29.8447ZM47.2905 32.7568H45.4031C45.0206 32.7568 44.7093 32.4456 44.7093 32.063C44.7093 31.6805 45.0207 31.3693 45.4031 31.3693H47.2905C47.673 31.3693 47.9842 31.6805 47.9842 32.063C47.9842 32.4456 47.673 32.7568 47.2905 32.7568Z" fill="black"/>
<path d="M54.5991 29.8447H52.7117C51.4885 29.8447 50.4934 30.8398 50.4934 32.063C50.4934 33.2862 51.4885 34.2813 52.7117 34.2813H54.5991C55.8222 34.2813 56.8174 33.2862 56.8174 32.063C56.8174 30.8398 55.8222 29.8447 54.5991 29.8447ZM54.5991 32.7568H52.7117C52.3291 32.7568 52.0179 32.4456 52.0179 32.063C52.0179 31.6805 52.3292 31.3693 52.7117 31.3693H54.5991C54.9816 31.3693 55.2928 31.6805 55.2928 32.063C55.2928 32.4456 54.9816 32.7568 54.5991 32.7568Z" fill="black"/>
<path d="M47.2905 37.2568H45.4031C44.1799 37.2568 43.1848 38.2519 43.1848 39.4751C43.1848 40.6983 44.1799 41.6934 45.4031 41.6934H47.2905C48.5136 41.6934 49.5088 40.6983 49.5088 39.4751C49.5088 38.2519 48.5136 37.2568 47.2905 37.2568ZM47.2905 40.169H45.4031C45.0206 40.169 44.7093 39.8578 44.7093 39.4752C44.7093 39.0927 45.0207 38.7815 45.4031 38.7815H47.2905C47.673 38.7815 47.9842 39.0927 47.9842 39.4752C47.9842 39.8578 47.673 40.169 47.2905 40.169Z" fill="black"/>
<path d="M54.5991 37.2568H52.7117C51.4885 37.2568 50.4934 38.2519 50.4934 39.4751C50.4934 40.6983 51.4885 41.6934 52.7117 41.6934H54.5991C55.8222 41.6934 56.8174 40.6983 56.8174 39.4751C56.8174 38.2519 55.8222 37.2568 54.5991 37.2568ZM54.5991 40.169H52.7117C52.3291 40.169 52.0179 39.8578 52.0179 39.4752C52.0179 39.0927 52.3292 38.7815 52.7117 38.7815H54.5991C54.9816 38.7815 55.2928 39.0927 55.2928 39.4752C55.2928 39.8578 54.9816 40.169 54.5991 40.169Z" fill="black"/>
<path d="M47.2905 43.2129H45.4031C44.1799 43.2129 43.1848 44.208 43.1848 45.4312C43.1848 46.6544 44.1799 47.6496 45.4031 47.6496H47.2905C48.5136 47.6496 49.5088 46.6544 49.5088 45.4312C49.5088 44.208 48.5136 43.2129 47.2905 43.2129ZM47.2905 46.125H45.4031C45.0206 46.125 44.7093 45.8137 44.7093 45.4312C44.7093 45.0486 45.0207 44.7374 45.4031 44.7374H47.2905C47.673 44.7374 47.9842 45.0486 47.9842 45.4312C47.9842 45.8137 47.673 46.125 47.2905 46.125Z" fill="black"/>
<path d="M54.5991 43.2129H52.7117C51.4885 43.2129 50.4934 44.208 50.4934 45.4312C50.4934 46.6544 51.4885 47.6496 52.7117 47.6496H54.5991C55.8222 47.6496 56.8174 46.6544 56.8174 45.4312C56.8174 44.208 55.8222 43.2129 54.5991 43.2129ZM54.5991 46.125H52.7117C52.3291 46.125 52.0179 45.8137 52.0179 45.4312C52.0179 45.0486 52.3292 44.7374 52.7117 44.7374H54.5991C54.9816 44.7374 55.2928 45.0486 55.2928 45.4312C55.2928 45.8137 54.9816 46.125 54.5991 46.125Z" fill="black"/>
<path d="M47.2905 49.1685H45.4031C44.1799 49.1685 43.1848 50.1636 43.1848 51.3867C43.1848 52.6099 44.1799 53.6051 45.4031 53.6051H47.2905C48.5136 53.6051 49.5088 52.6099 49.5088 51.3867C49.5088 50.1636 48.5136 49.1685 47.2905 49.1685ZM47.2905 52.0805H45.4031C45.0206 52.0805 44.7093 51.7692 44.7093 51.3866C44.7093 51.0041 45.0207 50.6929 45.4031 50.6929H47.2905C47.673 50.6929 47.9842 51.0041 47.9842 51.3866C47.9842 51.7692 47.673 52.0805 47.2905 52.0805Z" fill="black"/>
<path d="M54.5991 49.1685H52.7117C51.4885 49.1685 50.4934 50.1636 50.4934 51.3867C50.4934 52.6099 51.4885 53.6051 52.7117 53.6051H54.5991C55.8222 53.6051 56.8174 52.6099 56.8174 51.3867C56.8174 50.1636 55.8222 49.1685 54.5991 49.1685ZM54.5991 52.0805H52.7117C52.3291 52.0805 52.0179 51.7692 52.0179 51.3866C52.0179 51.0041 52.3292 50.6929 52.7117 50.6929H54.5991C54.9816 50.6929 55.2928 51.0041 55.2928 51.3866C55.2928 51.7692 54.9816 52.0805 54.5991 52.0805Z" fill="black"/>
<path d="M18.9754 28.5738H21.5527C21.9736 28.5738 22.3149 28.2326 22.3149 27.8116C22.3149 27.3906 21.9736 27.0493 21.5527 27.0493H18.9754C18.5544 27.0493 18.2131 27.3906 18.2131 27.8116C18.2131 28.2326 18.5544 28.5738 18.9754 28.5738Z" fill="black"/>
<path d="M18.9754 26.212H21.5527C21.9736 26.212 22.3149 25.8707 22.3149 25.4498C22.3149 25.0288 21.9736 24.6875 21.5527 24.6875H18.9754C18.5544 24.6875 18.2131 25.0288 18.2131 25.4498C18.2131 25.8707 18.5544 26.212 18.9754 26.212Z" fill="black"/>
<path d="M21.5477 23.5914H21.5578C21.9788 23.5914 22.315 23.2501 22.315 22.8292C22.315 22.4082 21.9686 22.0669 21.5477 22.0669C21.1267 22.0669 20.7854 22.4082 20.7854 22.8292C20.7854 23.2501 21.1267 23.5914 21.5477 23.5914Z" fill="black"/>
</svg>
